
<svg width="46" height="38" viewBox="0 0 46 38" fill="none" xmlns="http://www.w3.org/2000/svg">
<path d="M24.2209 38C22.2864 37.9307 20.412 37.3076 18.8127 36.217L12.5705 32.279C12.1406 32.0194 11.6591 31.8722 11.1604 31.8722H8.08224C4.10131 32.3309 0.515888 29.4662 0.0515888 25.4762C-0.0171963 24.9136 -0.0171963 24.3511 0.0515888 23.7885V15.1768C-0.41271 11.1869 2.42467 7.56908 6.39701 7.10171C6.95589 7.03247 7.51477 7.03247 8.07365 7.10171H11.1346C11.6333 7.10171 12.1234 6.95458 12.5447 6.69493L18.7869 2.74826C21.2374 0.844166 24.5305 0.463347 27.3421 1.75294C29.9301 3.46662 31.3574 6.48721 31.0393 9.59434V29.3363C31.3402 32.4348 29.9129 35.4467 27.3421 37.1777C26.3963 37.7317 25.3129 38.0173 24.2209 38ZM8.07365 10.3473C4.69458 10.3473 3.25869 11.7927 3.25869 15.1941V23.8058C3.25869 27.2072 4.69458 28.6526 8.07365 28.6526H11.1346C12.2437 28.6526 13.3271 28.9642 14.2557 29.5527L20.4979 33.4907C21.9854 34.7111 23.9974 35.0573 25.803 34.3908C27.3163 33.2051 28.0901 31.3097 27.8579 29.3969V9.62031C28.1073 7.70756 27.3249 5.80346 25.803 4.62639C23.9974 3.9513 21.9768 4.2975 20.4979 5.5265L14.2299 9.44721C13.3013 10.0444 12.2265 10.356 11.126 10.3473H8.06505H8.07365Z" fill="#ffffff"/>
<path d="M35.88 29.7257C35.5361 29.7257 35.1922 29.6132 34.9171 29.4055C34.212 28.8688 34.0658 27.8562 34.5989 27.1465C37.9608 22.6113 37.9608 16.397 34.5989 11.8618C34.0658 11.1521 34.212 10.1395 34.9171 9.60288C35.6221 9.06627 36.6281 9.21341 37.1612 9.92312C41.3571 15.6181 41.3571 23.3989 37.1612 29.0852C36.8602 29.492 36.3873 29.7343 35.88 29.7343V29.7257Z" fill="#ffffff"/>
<path d="M39.7922 35.1092C39.4482 35.1092 39.1043 34.9967 38.8292 34.7889C38.1241 34.2523 37.978 33.2397 38.511 32.53C44.2202 24.7924 44.2202 14.2074 38.511 6.47853C37.978 5.76882 38.1241 4.75619 38.8292 4.21958C39.5342 3.68297 40.5402 3.83011 41.0733 4.53981C47.6422 13.4198 47.6422 25.5887 41.0733 34.4687C40.7723 34.8841 40.2994 35.1265 39.7922 35.1178V35.1092Z" fill="#ffffff"/>
</svg>
