
<svg width="41" height="41" viewBox="0 0 41 41" fill="none" xmlns="http://www.w3.org/2000/svg">
<path d="M15.9217 33.3681C11.3395 33.3681 7.62415 29.6528 7.62415 25.0706C7.62415 21.3243 10.132 18.0424 13.7467 17.0672C14.451 16.8737 15.1864 17.2452 15.4418 17.9263C16.0765 19.5131 17.4155 20.7128 19.0642 21.1695C20.0008 21.4172 20.9838 21.4172 21.9281 21.1695C22.6325 20.976 23.3678 21.3398 23.6464 22.0054C24.9081 25.2409 24.0334 28.9175 21.4559 31.2318C19.9466 32.6096 17.9728 33.3681 15.9294 33.3681H15.9217ZM13.4216 20.2562C10.7589 21.6339 9.71401 24.908 11.0918 27.5784C12.4695 30.2411 15.7436 31.286 18.414 29.9082C18.8243 29.6992 19.2035 29.4361 19.5441 29.1265C20.6974 28.1047 21.3631 26.6264 21.3553 25.0861C21.3553 24.7842 21.3321 24.4823 21.2779 24.1882C20.2794 24.2811 19.2732 24.1882 18.3057 23.925C16.27 23.3677 14.5284 22.0596 13.4216 20.2639V20.2562Z" fill="#ffffff"/>
<path d="M20.4962 24.2191C19.7531 24.2191 19.0178 24.1262 18.3057 23.9327C13.8705 22.7175 11.2621 18.1352 12.4773 13.7001C13.6925 9.26495 18.2747 6.65649 22.7099 7.8717C27.145 9.08692 29.7535 13.6691 28.5383 18.1043C27.7642 20.9372 25.5428 23.1587 22.7099 23.9327C21.99 24.1262 21.247 24.2191 20.4962 24.2191ZM20.4962 10.4879C17.493 10.4879 15.0625 12.9183 15.0548 15.9215C15.0548 18.3752 16.6957 20.527 19.0642 21.1694C20.0008 21.4171 20.9838 21.4171 21.9281 21.1694C23.5768 20.7205 24.9236 19.5207 25.5505 17.9263C26.6574 15.132 25.2874 11.974 22.4932 10.8672C21.8585 10.6117 21.1773 10.4879 20.4962 10.4879Z" fill="#ffffff"/>
<path d="M25.0784 33.3681C23.035 33.3681 21.0612 32.6095 19.5518 31.2318C18.9636 30.7054 18.9094 29.7998 19.4435 29.2038C19.4822 29.1651 19.5131 29.1264 19.5518 29.0955C20.7051 28.0738 21.3631 26.6109 21.3631 25.0706C21.3631 24.3817 21.2315 23.7083 20.9838 23.0658C20.829 22.6866 20.8522 22.2608 21.038 21.9048C21.2237 21.541 21.5411 21.2701 21.9358 21.1617C23.5845 20.7051 24.9236 19.5053 25.5583 17.9186C25.8214 17.2452 26.5568 16.8737 27.2534 17.0594C31.673 18.2592 34.2892 22.8181 33.0895 27.2378C32.1065 30.8525 28.8246 33.3603 25.0861 33.3603L25.0784 33.3681ZM22.6402 29.9392C23.3987 30.3184 24.2347 30.5197 25.0784 30.5119C28.0816 30.5119 30.5043 28.066 30.4965 25.0706C30.4965 23.0504 29.3665 21.1927 27.5707 20.2639C26.727 21.6416 25.5041 22.7407 24.0412 23.4296C24.1573 23.9714 24.2115 24.5287 24.2115 25.086C24.2115 26.8276 23.6542 28.5304 22.6325 29.9392H22.6402Z" fill="#ffffff"/>
<path d="M26.2239 41H14.7838C4.42741 41 0 36.5726 0 26.2239V14.7838C0 4.42741 4.42741 0 14.7761 0H26.2162C36.5726 0 40.9923 4.42741 40.9923 14.7761V26.2162C40.9923 36.5726 36.5648 40.9923 26.2162 40.9923L26.2239 41ZM14.7761 2.86389C5.99094 2.86389 2.86389 5.99094 2.86389 14.7761V26.2162C2.86389 35.0091 5.99094 38.1361 14.7838 38.1361H26.2239C35.0168 38.1361 38.1439 35.0091 38.1439 26.2162V14.7761C38.1439 5.9832 35.0168 2.85614 26.2239 2.85614H14.7838L14.7761 2.86389Z" fill="#ffffff"/>
</svg>
