
<svg width="53" height="53" viewBox="0 0 53 53" fill="none" xmlns="http://www.w3.org/2000/svg">
<path d="M50.7696 35.3782C50.7696 43.8927 43.8647 50.796 35.3484 50.796L37.663 46.9391" stroke="#ffffff" stroke-width="3" stroke-miterlimit="10"/>
<path d="M2.29883 17.7535C2.29883 9.23906 9.20372 2.33569 17.7201 2.33569L15.4054 6.1926" stroke="#ffffff" stroke-width="3" stroke-miterlimit="10"/>
<path d="M32.8092 33.972C32.8092 41.4808 26.7247 47.564 19.2143 47.564C11.7039 47.564 5.61938 41.4808 5.61938 33.972C5.61938 26.4633 11.7039 20.3801 19.2143 20.3801C19.5659 20.3801 19.8979 20.3997 20.2691 20.4289C26.9493 20.9465 32.2623 26.2582 32.7799 32.937C32.7799 33.269 32.7994 33.601 32.7994 33.972H32.8092Z" stroke="#ffffff" stroke-width="3" stroke-miterlimit="10"/>
<path d="M47.4588 19.2963C47.4588 26.7953 41.3841 32.8784 33.8835 32.8882C33.8835 32.8882 33.8835 32.8882 33.8737 32.8882H32.7896C32.272 26.2094 26.9591 20.8976 20.2788 20.3801V19.2963C20.2788 11.7875 26.3633 5.70435 33.8737 5.70435C41.3841 5.70435 47.4686 11.7875 47.4686 19.2963H47.4588Z" stroke="#ffffff" stroke-width="3" stroke-miterlimit="10"/>
</svg>
