
<svg width="53" height="53" viewBox="0 0 53 53" fill="none" xmlns="http://www.w3.org/2000/svg">
<path d="M50.7396 35.3137C50.7396 43.8333 43.8332 50.7398 35.3136 50.7398L37.6241 46.8832" stroke="#ffffff" stroke-width="3" stroke-miterlimit="10"/>
<path d="M2.26025 17.6863C2.26025 9.16668 9.16668 2.26025 17.6863 2.26025L15.3757 6.11676" stroke="#ffffff" stroke-width="3" stroke-miterlimit="10"/>
<path d="M14.6448 28.9281H20.837C22.1898 28.9701 23.282 30.0623 23.324 31.4151C23.324 32.793 22.215 33.902 20.837 33.902H14.6448V28.9197V28.9281Z" stroke="#ffffff" stroke-width="3" stroke-miterlimit="10"/>
<path d="M14.6448 33.9105H21.7444C23.2148 33.8181 24.4835 34.9271 24.5843 36.3975C24.4751 37.8678 23.2064 38.9769 21.7444 38.8845H14.6448V33.9021V33.9105Z" stroke="#ffffff" stroke-width="3" stroke-miterlimit="10"/>
<path d="M18.6105 38.8677V41.3379" stroke="#ffffff" stroke-width="3" stroke-miterlimit="10"/>
<path d="M18.6105 26.458V28.9282" stroke="#ffffff" stroke-width="3" stroke-miterlimit="10"/>
<path d="M32.7846 33.9106C32.7846 41.4219 26.6932 47.505 19.1902 47.505C11.6872 47.505 5.5874 41.4135 5.5874 33.9106C5.5874 26.3992 11.6788 20.3162 19.1818 20.3162C19.5347 20.3162 19.8624 20.3414 20.2404 20.3582C26.9284 20.8791 32.2385 26.1891 32.7594 32.8771C32.7594 33.2048 32.7846 33.5409 32.7846 33.9106V33.9106Z" stroke="#ffffff" stroke-width="3" stroke-miterlimit="10"/>
<path d="M47.4377 19.2322C47.4377 26.7352 41.363 32.8266 33.8517 32.8266C33.8517 32.8266 33.8433 32.8266 33.8349 32.8266H32.751C32.2301 26.1386 26.92 20.8286 20.2321 20.3076V19.2238C20.2321 11.7124 26.3235 5.62939 33.8265 5.62939C41.3378 5.62939 47.4209 11.7208 47.4209 19.2238L47.4377 19.2322Z" stroke="#ffffff" stroke-width="3" stroke-miterlimit="10"/>
</svg>
