
<svg width="43" height="46" viewBox="0 0 43 46" fill="none" xmlns="http://www.w3.org/2000/svg">
<path d="M15.7618 22.3323H15.5963C15.4675 22.314 15.348 22.314 15.2192 22.3323C9.29709 22.1677 4.63477 17.2554 4.8003 11.3643C4.96582 5.48242 9.90402 0.835437 15.817 1.00009C21.7391 1.16475 26.4015 6.07702 26.2359 11.9681C26.0796 17.6213 21.5 22.1677 15.817 22.3323H15.7526H15.7618ZM15.4307 3.93648C11.1914 3.90903 7.72459 7.31194 7.7062 11.5381C7.68781 15.682 10.9799 19.0849 15.1365 19.2221C15.3572 19.2038 15.5779 19.2038 15.8078 19.2221C20.0471 19.03 23.3208 15.4442 23.1277 11.2271C22.9346 7.13814 19.5413 3.92733 15.4307 3.93648Z" fill="#ffffff"/>
<path d="M31.1465 22.6067C31.0821 22.6067 31.0178 22.6067 30.9626 22.5884C30.089 22.689 29.2797 22.0853 29.1418 21.2163C29.0223 20.393 29.5924 19.6246 30.42 19.4965H30.4384C30.6867 19.4782 30.9626 19.4782 31.1925 19.4782C34.3559 19.3044 36.7836 16.615 36.6089 13.4682C36.4434 10.4404 33.9237 8.07114 30.8798 8.07114C30.0246 8.08029 29.3257 7.40336 29.3165 6.55264C29.3165 6.55264 29.3165 6.54349 29.3165 6.53434C29.3165 5.67447 30.0154 4.9884 30.8798 4.97925C35.7721 4.9884 39.7263 8.93101 39.7355 13.7884C39.7447 18.536 35.9744 22.4329 31.2109 22.5975H31.1465V22.6067Z" fill="#ffffff"/>
<path d="M15.7802 45.0001C11.7891 45.0733 7.86249 43.9939 4.4784 41.8899C1.81159 40.3623 0.119547 37.5814 0 34.5261C0.128743 31.4616 1.81159 28.6716 4.4784 27.1257C11.4397 23.0001 20.1114 23.0001 27.0727 27.1257C29.7303 28.6533 31.4224 31.4342 31.5511 34.4895C31.4224 37.5539 29.7395 40.344 27.0727 41.8899C23.6886 43.9939 19.762 45.0733 15.771 45.0001H15.7802ZM6.20723 29.7327C4.42323 30.7115 3.26454 32.5228 3.1266 34.5444C3.27374 36.5477 4.44162 38.3406 6.20723 39.3103C12.111 42.7772 19.4401 42.7772 25.3439 39.3103C27.1279 38.3315 28.2866 36.5203 28.4245 34.4986C28.2774 32.4953 27.1095 30.7024 25.3439 29.7327C19.4309 26.2932 12.1202 26.2932 6.20723 29.7327Z" fill="#ffffff"/>
<path d="M34.8984 41.2679C34.1535 41.2679 33.519 40.7465 33.381 40.0238C33.2155 39.1822 33.7489 38.3681 34.5857 38.176C35.8364 37.9382 37.0226 37.4168 38.0434 36.6667C39.1285 35.9531 39.8182 34.7639 39.8733 33.4741C39.8182 32.1935 39.1377 31.0134 38.0618 30.2999C37.0502 29.559 35.8823 29.0375 34.6409 28.7906C33.7949 28.5985 33.2615 27.766 33.4546 26.9244C33.6477 26.0829 34.4846 25.5523 35.3306 25.7444C37.0042 26.092 38.5859 26.7964 39.9561 27.8209C41.8137 29.1199 42.9448 31.2238 43 33.4833C42.9356 35.7519 41.7953 37.8558 39.9377 39.1639C38.5491 40.2068 36.9399 40.9203 35.2294 41.2405C35.1191 41.277 35.0087 41.2862 34.8984 41.2862V41.2679Z" fill="#ffffff"/>
</svg>
