<svg width="214" height="106" viewBox="0 0 214 106" fill="none" xmlns="http://www.w3.org/2000/svg">
<path fill-rule="evenodd" clip-rule="evenodd" d="M11 52.0948C11 30.5869 28.4356 13.1514 49.9434 13.1514H59.4528C59.953 13.1514 60.3585 13.5568 60.3585 14.057C60.3585 14.5572 59.953 14.9627 59.4528 14.9627H49.9434C29.4359 14.9627 12.8113 31.5873 12.8113 52.0948V53.9061C12.8113 74.4136 29.4359 91.0382 49.9434 91.0382H59.4528C59.953 91.0382 60.3585 91.4436 60.3585 91.9438C60.3585 92.444 59.953 92.8495 59.4528 92.8495H49.9434C28.4356 92.8495 11 75.4139 11 53.9061V52.0948ZM153.641 14.057C153.641 13.5568 154.047 13.1514 154.547 13.1514H164.057C185.564 13.1514 203 30.5869 203 52.0948V53.9061C203 75.4139 185.564 92.8495 164.057 92.8495H154.547C154.047 92.8495 153.641 92.444 153.641 91.9438C153.641 91.4436 154.047 91.0382 154.547 91.0382H164.057C184.564 91.0382 201.189 74.4136 201.189 53.9061V52.0948C201.189 31.5873 184.564 14.9627 164.057 14.9627H154.547C154.047 14.9627 153.641 14.5572 153.641 14.057Z" fill="url(#paint0_linear_5565_12364)"/>
<path d="M21.8682 53.0003C21.8682 34.9937 36.4654 20.3965 54.4719 20.3965H159.529C177.535 20.3965 192.132 34.9937 192.132 53.0003V53.0003C192.132 71.0068 177.535 85.604 159.529 85.604H54.4719C36.4654 85.604 21.8682 71.0068 21.8682 53.0003V53.0003Z" fill="#313B57"/>
<g filter="url(#filter0_f_5565_12364)">
<path d="M24.585 53.0003C24.585 37.4946 37.1548 24.9248 52.6604 24.9248H161.34C176.845 24.9248 189.415 37.4946 189.415 53.0003V53.0003C189.415 68.5059 176.845 81.0757 161.34 81.0757H52.6604C37.1548 81.0757 24.585 68.5059 24.585 53.0003V53.0003Z" fill="#A81BFF"/>
</g>
<path d="M28.2075 53.0005C28.2075 38.4952 39.9664 26.7363 54.4717 26.7363H159.528C174.034 26.7363 185.792 38.4952 185.792 53.0005V53.0005C185.792 67.5058 174.034 79.2646 159.528 79.2646H54.4717C39.9664 79.2646 28.2075 67.5058 28.2075 53.0005V53.0005Z" fill="url(#paint1_linear_5565_12364)"/>
<defs>
<filter id="filter0_f_5565_12364" x="0.584961" y="0.924805" width="212.83" height="104.151" filterUnits="userSpaceOnUse" color-interpolation-filters="sRGB">
<feFlood flood-opacity="0" result="BackgroundImageFix"/>
<feBlend mode="normal" in="SourceGraphic" in2="BackgroundImageFix" result="shape"/>
<feGaussianBlur stdDeviation="12" result="effect1_foregroundBlur_5565_12364"/>
</filter>
<linearGradient id="paint0_linear_5565_12364" x1="107" y1="14.057" x2="107" y2="91.9438" gradientUnits="userSpaceOnUse">
<stop stop-color="#C41BFF"/>
<stop offset="1" stop-color="#30A8FF"/>
</linearGradient>
<linearGradient id="paint1_linear_5565_12364" x1="107" y1="26.7363" x2="107" y2="79.2646" gradientUnits="userSpaceOnUse">
<stop offset="0.0234701" stop-color="#A81AFF"/>
<stop offset="1" stop-color="#30A8FF"/>
</linearGradient>
</defs>
</svg>
