<svg xmlns="http://www.w3.org/2000/svg" width="24" height="24" viewBox="0 0 24 24" fill="none">
  <g clip-path="url(#clip0_5089_14536)">
    <path d="M23.2047 18.7189H18.7135V23.2057C18.7135 23.4042 18.6346 23.5946 18.4942 23.735C18.3538 23.8753 18.1634 23.9542 17.9649 23.9542C17.7664 23.9542 17.576 23.8753 17.4356 23.735C17.2952 23.5946 17.2164 23.4042 17.2164 23.2057V18.7189H12.7251C12.6241 18.7234 12.5232 18.7075 12.4286 18.6719C12.3339 18.6364 12.2474 18.582 12.1744 18.5121C12.1013 18.4423 12.0431 18.3583 12.0034 18.2653C11.9636 18.1723 11.9431 18.0723 11.9431 17.9711C11.9431 17.87 11.9636 17.77 12.0034 17.677C12.0431 17.584 12.1013 17.5 12.1744 17.4301C12.2474 17.3603 12.3339 17.3059 12.4286 17.2704C12.5232 17.2348 12.6241 17.2188 12.7251 17.2233H17.2164V12.7366C17.2164 12.5381 17.2952 12.3477 17.4356 12.2073C17.576 12.0669 17.7664 11.9881 17.9649 11.9881C18.1634 11.9881 18.3538 12.0669 18.4942 12.2073C18.6346 12.3477 18.7135 12.5381 18.7135 12.7366V17.2233H23.2047C23.3057 17.2188 23.4066 17.2348 23.5012 17.2704C23.5959 17.3059 23.6824 17.3603 23.7555 17.4301C23.8286 17.5 23.8867 17.584 23.9265 17.677C23.9662 17.77 23.9867 17.87 23.9867 17.9711C23.9867 18.0723 23.9662 18.1723 23.9265 18.2653C23.8867 18.3583 23.8286 18.4423 23.7555 18.5121C23.6824 18.582 23.5959 18.6364 23.5012 18.6719C23.4066 18.7075 23.3057 18.7234 23.2047 18.7189ZM19.462 6.6465C19.462 3.61343 17.6056 1.52051 14.33 1.52051H6.63055C3.35195 1.52051 1.49558 3.49216 1.49558 6.6465V14.3385C1.49558 17.3731 3.51214 19.4675 6.63055 19.4675H9.35523V20.9615H5.9883C2.68276 20.9615 0 18.2848 0 14.9807V6.00725C0.000196532 5.22112 0.155255 4.44273 0.456321 3.71654C0.757386 2.99035 1.19856 2.33057 1.75464 1.77491C2.31073 1.21924 2.97083 0.77856 3.69725 0.47804C4.42367 0.17752 5.20218 0.023045 5.9883 0.0234382H14.9708C18.2778 0.0234382 20.9591 2.7032 20.9591 6.00725V9.37118H19.462V6.6465Z" fill="white"/>
  </g>
  <defs>
    <clipPath id="clip0_5089_14536">
      <rect width="24" height="24" fill="white"/>
    </clipPath>
  </defs>
</svg>