<svg width="20" height="20" fill="none" xmlns="http://www.w3.org/2000/svg"><path d="M17.974 10.67c-.066-.903-.234-1.8-.488-2.596-.389-1.22-.97-2.386-1.635-3.284a.575.575 0 00-.786-.124.533.533 0 00-.129.76c.596.803 1.12 1.857 1.474 2.97.229.716.38 1.528.44 2.35.217 2.99-1.055 5.432-3.514 6.818-.403-3.204-2.972-4.25-3.09-4.297a.58.58 0 00-.485.03c-2.237 1.2-2.888 3.216-3.077 4.344-2.213-1.126-3.558-3.246-3.558-5.69 0-1.646.848-3.172 2.59-4.662.232-.198.468-.393.705-.588C7.7 5.644 9.025 4.552 9.693 2.89c.072-.18.135-.342.189-.489 1.179.803 3.73 2.969 4.559 7.112.06.296.356.489.66.432a.545.545 0 00.446-.638c-1.145-5.727-5.259-7.988-5.726-8.23l-.05-.024a.573.573 0 00-.748.252.537.537 0 00-.058.236 16.88 16.88 0 01-.322.954c-.565 1.407-1.726 2.363-2.954 3.377-.241.199-.482.398-.72.6C3 8.16 2 10.003 2 11.95c0 3.146 1.902 5.833 4.963 7.012a.576.576 0 00.526-.057.54.54 0 00.246-.454c0-.11.008-2.645 2.32-4.059.611.34 2.208 1.471 2.208 4.039 0 .185.097.358.257.458a.58.58 0 00.538.038c3.346-1.467 5.184-4.555 4.916-8.258" fill="#fff" fill-opacity=".7"/></svg>