<svg width="16" height="16" viewBox="0 0 16 16" fill="none" xmlns="http://www.w3.org/2000/svg">
<path d="M2.23438 7.21875H14.7344C15.1656 7.21875 15.5156 7.56875 15.5156 8C15.5156 8.43125 15.1656 8.78125 14.7344 8.78125H2.23438C1.80312 8.78125 1.45312 8.43125 1.45312 8C1.45312 7.56875 1.80312 7.21875 2.23438 7.21875Z" fill="white"/>
<path d="M1.81865 7.55195L5.13271 10.866C5.4374 11.1707 5.4374 11.666 5.13271 11.9707C4.82803 12.2754 4.33271 12.2754 4.02803 11.9707L0.712402 8.65664C0.407715 8.35195 0.407715 7.85664 0.712402 7.55195C1.01865 7.2457 1.5124 7.2457 1.81865 7.55195Z" fill="white"/>
<path d="M5.13286 5.13398L1.8188 8.44805C1.51411 8.75274 1.0188 8.75274 0.714111 8.44805C0.409424 8.14336 0.409424 7.64805 0.714111 7.34336L4.02817 4.0293C4.33286 3.72461 4.82817 3.72461 5.13286 4.0293C5.43755 4.33398 5.43755 4.8293 5.13286 5.13398Z" fill="white"/>
</svg>
