<svg width="200" height="200" viewBox="0 0 200 200" fill="none" xmlns="http://www.w3.org/2000/svg">
<path opacity="0.3" d="M20 175C20 177.652 28.4285 180.196 43.4315 182.071C58.4344 183.946 78.7827 185 100 185C121.217 185 141.566 183.946 156.569 182.071C171.571 180.196 180 177.652 180 175C180 172.348 171.571 169.804 156.569 167.929C141.566 166.054 121.217 165 100 165C78.7827 165 58.4344 166.054 43.4315 167.929C28.4285 169.804 20 172.348 20 175Z" fill="#4A68CC"/>
<path d="M19.8 159.6C19.8 161.3 21.1 162.6 22.8 162.6C24.5 162.6 25.8 161.3 25.8 159.6C25.8 157.9 24.5 156.6 22.8 156.6C21.2 156.6 19.8 158 19.8 159.6ZM180 164.6C177 165.4 176.3 166 175.5 169.1C174.7 166.1 174.1 165.4 171 164.6C174 163.8 174.7 163.1 175.5 160.1C176.3 163.1 176.9 163.8 180 164.6ZM41 68.7C37.2 69.7 36.4 70.5 35.3 74.4C34.3 70.6 33.5 69.8 29.6 68.7C33.4 67.7 34.2 66.9 35.3 63C36.4 66.8 37.2 67.6 41 68.7ZM161.5 52.9C158.5 53.7 157.9 54.3 157.1 57.3C156.3 54.3 155.7 53.7 152.7 52.9C155.7 52.1 156.3 51.5 157.1 48.5C157.8 51.5 158.5 52.1 161.5 52.9ZM159 41.5C151.2 43.5 149.6 45.2 147.5 53C145.5 45.2 143.8 43.6 136 41.5C143.8 39.5 145.4 37.8 147.5 30C149.5 37.7 151.2 39.4 159 41.5Z" fill="#4A68CC"/>
<path opacity="0.5" d="M48.5 27.3996V28.2996L55.8 35.2996L84.3 21.3996L58.6 37.8996V45.9996L62.7 41.9996V41.8996L62.8 41.9996L66.9 45.9996L89 19.0996V18.0996L48.5 27.3996Z" fill="#4A68CC"/>
<path opacity="0.74" d="M177.1 86.6001C174.8 78.0001 163.5 72.9001 145.3 72.2001C132 54.0001 108.5 44.8001 85.4001 51.0001C62.3001 57.2001 46.7001 77.0001 44.4001 99.4001C29.0001 109.1 21.8001 119.2 24.2001 127.8C26.6001 136.9 38.8001 142 58.5001 142.3C72.2001 157.4 93.6001 164.6 114.6 158.9C135.6 153.2 150.6 136.3 154.8 116.3C171.6 106.2 179.5 95.7001 177.1 86.6001ZM87.3001 57.8001C113.3 50.8001 140.2 66.3001 147.3 92.3001C149.1 98.9001 149.4 105.6 148.5 112C137 118.5 122.1 124.4 106.5 128.6C90.8001 132.8 75.0001 135.2 61.8001 135.4C57.8001 130.3 54.7001 124.4 52.9001 117.8C45.7001 91.7001 61.2001 64.8001 87.3001 57.8001ZM30.9001 126C29.7001 121.4 34.7001 114.7 44.2001 107.9C44.4001 111.7 45.0001 115.6 46.0001 119.5C47.5001 125.2 49.9001 130.4 52.9001 135.1C40.4001 134.2 32.2001 130.9 30.9001 126ZM112.7 152.2C96.5001 156.6 80.0001 152.2 68.2001 142.1C80.6001 141.4 94.2001 139.1 108.2 135.3C122.2 131.5 135.1 126.7 146.2 121.1C141 135.8 128.9 147.9 112.7 152.2ZM155.9 107.4C156.1 101.8 155.5 96.1001 154 90.5001C153 86.6001 151.5 83.0001 149.8 79.6001C161.4 80.7001 169.1 83.9001 170.4 88.5001C171.6 93.3001 166.2 100.3 155.9 107.4Z" fill="#4A68CC"/>
<path opacity="0.5" d="M89.4 65.5998C67.7 71.4998 54.8 93.8998 60.7 115.6C66.6 137.3 89 150.2 110.7 144.3C132.4 138.4 145.3 116 139.4 94.2998C133.5 72.5998 111.1 59.7998 89.4 65.5998ZM115.7 83.3998C116.2 85.2998 115.1 87.1998 113.2 87.6998C111.3 88.1998 109.4 87.0998 108.9 85.1998C108.4 83.2998 109.5 81.3998 111.4 80.8998C113.3 80.4998 115.2 81.5998 115.7 83.3998Z" fill="#4A68CC"/>
</svg>
