<svg width="20" height="20" fill="none" xmlns="http://www.w3.org/2000/svg"><path d="M3.13 4.342v4.511a8.237 8.237 0 003.397 6.665L10 18.049l3.473-2.531a8.237 8.237 0 003.397-6.665V4.342L10 1.734 3.13 4.342zm-1.374-.953L10 .263l8.244 3.126v5.453a9.6 9.6 0 01-3.96 7.769L10 19.737l-4.284-3.116a9.606 9.606 0 01-3.96-7.779V3.39z" fill="#fff"/><path d="M10 10.682a2.743 2.743 0 01-2.748-2.738A2.752 2.752 0 0110 5.196a2.752 2.752 0 012.748 2.748A2.743 2.743 0 0110 10.682zm0-1.364c.757 0 1.374-.616 1.374-1.374 0-.757-.617-1.374-1.374-1.374-.757 0-1.374.617-1.374 1.374 0 .758.617 1.364 1.374 1.374z" fill="#fff"/><path d="M10 10c.454 0 .682.227.682.682v3.516c0 .454-.228.681-.682.681-.454 0-.682-.227-.682-.681v-3.516c0-.455.228-.682.682-.682z" fill="#fff"/><path d="M12.056 12.456c0 .454-.227.682-.682.682h-1.31c-.453 0-.68-.228-.68-.682 0-.454.227-.682.68-.682h1.31c.454 0 .682.228.682.682z" fill="#fff"/></svg>