<svg width="28" height="26" viewBox="0 0 28 26" fill="none" xmlns="http://www.w3.org/2000/svg">
<path d="M14.3612 14.6548C15.227 13.7922 15.2299 12.2894 14.3593 11.4222C10.806 7.88291 7.26397 4.33239 3.71809 0.785813C3.37664 0.444255 2.97181 0.226169 2.49345 0.148973C2.39796 0.133547 2.30177 0.121935 2.20586 0.108398C2.17812 0.108398 2.15025 0.108398 2.12251 0.108398C2.01334 0.123964 1.90306 0.133932 1.7954 0.155933C0.89458 0.340406 0.31185 0.875986 0.0650812 1.7596C-0.0215238 2.07016 -0.0108556 2.43197 0.0343707 2.72544C0.0817656 3.03233 0.226854 3.31569 0.426087 3.56151C0.519268 3.67655 0.616821 3.78925 0.721475 3.89405C3.72561 6.90039 6.73111 9.90585 9.73686 12.9107C9.77593 12.9498 9.82417 12.9798 9.87719 13.0211C9.81979 13.0812 9.78317 13.1211 9.74519 13.1591C6.83507 16.0693 3.92715 18.9819 1.01224 21.8873C0.584012 22.314 0.104851 22.7303 0.0343707 23.3555C0.00100188 23.6506 -0.0159274 23.9537 0.0343707 24.2464C0.0592399 24.3915 0.12262 24.5284 0.183026 24.6619C0.82298 26.0772 2.60468 26.3998 3.71795 25.2891C7.26834 21.7468 10.8078 18.194 14.3612 14.6548ZM2.12237 0.108398L1.79526 0.155933C1.90306 0.133932 2.01334 0.123964 2.12237 0.108398ZM14.9189 0.134772C13.8909 0.212108 13.0134 1.13668 12.9805 2.16663C12.9589 2.8424 13.2005 3.40163 13.6756 3.87631C16.6888 6.88605 19.6993 9.89875 22.7117 12.9092C22.7533 12.9507 22.8115 12.9754 22.8902 13.0263C22.7993 13.0984 22.7518 13.1292 22.7125 13.1684C20.8716 15.008 19.0313 16.8486 17.191 18.689C16.0132 19.8666 14.8357 21.0447 13.6577 22.222C13.1315 22.7479 12.8913 23.3774 13.0071 24.1172C13.1378 24.9537 13.6142 25.538 14.4061 25.8219C15.2028 26.1073 15.9398 25.9518 16.5836 25.3931C16.6362 25.3476 16.6864 25.2992 16.7356 25.2501C20.2558 21.7301 23.7682 18.2024 27.3011 14.6955C28.2012 13.8018 28.2061 12.2896 27.3337 11.4207C23.7802 7.88179 20.2383 4.33116 16.6925 0.784449C16.351 0.442856 15.9456 0.225644 15.4673 0.148553C15.3717 0.133128 15.2755 0.121655 15.1796 0.108398C15.1517 0.108398 15.124 0.108398 15.0961 0.108538C15.0371 0.117423 14.9782 0.13026 14.9189 0.134772Z" fill="url(#paint0_linear_5850_546)"/>
<defs>
<linearGradient id="paint0_linear_5850_546" x1="28" y1="13.0003" x2="-1.59883e-07" y2="13.0003" gradientUnits="userSpaceOnUse">
<stop offset="0.0686877" stop-color="#3491FF"/>
<stop offset="1" stop-color="#C41BFF"/>
</linearGradient>
</defs>
</svg>
