<svg xmlns="http://www.w3.org/2000/svg" width="25" height="25" viewBox="0 0 25 25" fill="none">
  <rect x="0.3125" y="0.761719" width="24" height="24" rx="4" fill="black" fill-opacity="0.3"/>
  <path fill-rule="evenodd" clip-rule="evenodd" d="M12.3119 7.96268C14.811 7.96268 17.1575 9.79235 18.9795 13.0052C17.1575 16.2888 14.811 18.0422 12.3119 18.0422C9.81289 18.0422 7.46632 16.2125 5.64433 12.9997C7.46632 9.71612 9.81289 7.96268 12.3119 7.96268ZM4.39201 12.6026C4.33276 12.7212 4.30642 12.8506 4.313 12.9748C4.30642 13.0852 4.33276 13.2037 4.39201 13.3222C6.47199 17.1622 9.27196 19.2422 12.3119 19.2422C15.2719 19.2422 18.0719 17.1622 20.2319 13.4022C20.2908 13.2844 20.3172 13.1557 20.311 13.0322C20.3172 12.9183 20.2908 12.8005 20.2319 12.6826C18.1519 8.84268 15.3519 6.7627 12.3119 6.7627C9.35196 6.7627 6.55199 8.84268 4.39201 12.6026ZM9.03271 13.083C9.03271 14.923 10.5527 16.3629 12.3127 16.3629C14.1527 16.3629 15.5927 14.923 15.5927 13.163C15.5927 11.323 14.0727 9.88301 12.3127 9.88301C10.5527 9.88301 9.11271 11.323 9.03271 13.083ZM10.3127 13.163C10.3127 12.043 11.1927 11.163 12.3127 11.163C13.4327 11.163 14.3127 12.043 14.3127 13.163C14.3127 14.283 13.4327 15.163 12.3127 15.163C11.1927 15.163 10.3127 14.283 10.3127 13.163Z" fill="white"/>
</svg>