<svg width="72" height="72" viewBox="0 0 72 72" fill="none" xmlns="http://www.w3.org/2000/svg">
<path d="M57.5385 64H14.4615C10.9077 64 8 61.0923 8 57.5385V25.2308C8 21.6769 10.9077 18.7692 14.4615 18.7692H20.9231V14.4615C20.9231 10.9077 23.8308 8 27.3846 8H57.5385C61.0923 8 64 10.9077 64 14.4615V57.5385C64 61.0923 61.0923 64 57.5385 64ZM14.4615 23.0769C13.2769 23.0769 12.3077 24.0462 12.3077 25.2308V57.5385C12.3077 58.7231 13.2769 59.6923 14.4615 59.6923H57.5385C58.7231 59.6923 59.6923 58.7231 59.6923 57.5385V14.4615C59.6923 13.2769 58.7231 12.3077 57.5385 12.3077H27.3846C26.2 12.3077 25.2308 13.2769 25.2308 14.4615V51.0769C25.2308 52.2615 24.2615 53.2308 23.0769 53.2308C21.8923 53.2308 20.9231 52.2615 20.9231 51.0769V23.0769H14.4615ZM51.0769 46.7692H33.8462C32.6615 46.7692 31.6923 45.8 31.6923 44.6154C31.6923 43.4308 32.6615 42.4615 33.8462 42.4615H51.0769C52.2615 42.4615 53.2308 43.4308 53.2308 44.6154C53.2308 45.8 52.2615 46.7692 51.0769 46.7692ZM51.0769 29.5385H33.8462C32.6615 29.5385 31.6923 28.5692 31.6923 27.3846C31.6923 26.2 32.6615 25.2308 33.8462 25.2308H51.0769C52.2615 25.2308 53.2308 26.2 53.2308 27.3846C53.2308 28.5692 52.2615 29.5385 51.0769 29.5385Z" fill="url(#paint0_linear_5370_10189)"/>
<defs>
<linearGradient id="paint0_linear_5370_10189" x1="59" y1="8" x2="8" y2="64" gradientUnits="userSpaceOnUse">
<stop stop-color="#119BFF"/>
<stop offset="1" stop-color="#10FFF1"/>
</linearGradient>
</defs>
</svg>
