<svg width="72" height="72" viewBox="0 0 72 72" fill="none" xmlns="http://www.w3.org/2000/svg">
<path d="M47.1857 9C48.2965 8.99997 49.3942 9.2401 50.4037 9.70398C51.4133 10.1679 52.3108 10.8445 53.0351 11.6878L61.1351 21.1123C62.3388 22.514 63.0005 24.3014 63 26.1499V34.5299C63.0004 36.483 62.2617 38.3637 60.9326 39.7934L41.6469 60.5386C40.9249 61.3151 40.051 61.9345 39.0794 62.358C38.1079 62.7814 37.0596 63 36 63C34.9404 63 33.8921 62.7814 32.9206 62.358C31.949 61.9345 31.0751 61.3151 30.3531 60.5386L11.0674 39.7934C9.73834 38.3637 8.99962 36.483 9 34.5299V26.1499C9.00001 24.3011 9.66241 22.5137 10.8669 21.1123L18.9649 11.6878C19.6889 10.8448 20.5862 10.1683 21.5954 9.70438C22.6046 9.24051 23.7019 9.00024 24.8124 9H47.1857ZM47.1857 12.8617H24.8143C24.2587 12.8616 23.7097 12.9816 23.2048 13.2135C22.6998 13.4455 22.2509 13.7839 21.8886 14.2056L13.7886 23.6301C13.1869 24.3314 12.8564 25.2254 12.8571 26.1499V34.5299C12.857 35.5064 13.2263 36.4468 13.8909 37.1616L33.1766 57.9087C33.5375 58.297 33.9745 58.6067 34.4603 58.8184C34.9461 59.0302 35.4702 59.1395 36 59.1395C36.5298 59.1395 37.0539 59.0302 37.5397 58.8184C38.0255 58.6067 38.4625 58.297 38.8234 57.9087L58.1091 37.1616C58.7737 36.4468 59.143 35.5064 59.1429 34.5299V26.1499C59.1431 25.2252 58.8119 24.3311 58.2094 23.6301L50.1114 14.2056C49.7493 13.7841 49.3007 13.4458 48.7961 13.2139C48.2915 12.982 47.7429 12.8618 47.1876 12.8617H47.1857ZM45.0276 34.7075C45.8473 35.5127 45.8473 36.8218 45.0296 37.6289L37.4831 45.0801C37.0873 45.468 36.5556 45.6856 36.0018 45.6863C35.4479 45.6871 34.9157 45.4709 34.5189 45.084L26.9743 37.6347C26.7798 37.4447 26.6251 37.2177 26.5193 36.9671C26.4135 36.7165 26.3588 36.4473 26.3582 36.1752C26.3577 35.9031 26.4114 35.6337 26.5162 35.3827C26.621 35.1316 26.7748 34.9041 26.9685 34.7133C27.364 34.3251 27.8955 34.1072 28.4494 34.1061C29.0033 34.105 29.5357 34.3208 29.9327 34.7075L35.9942 40.699L42.0654 34.7075C42.4608 34.3193 42.9926 34.1018 43.5465 34.1018C44.1004 34.1018 44.6321 34.3193 45.0276 34.7075Z" fill="url(#paint0_linear_5395_10206)"/>
<defs>
<linearGradient id="paint0_linear_5395_10206" x1="57.5" y1="13" x2="16" y2="55" gradientUnits="userSpaceOnUse">
<stop stop-color="#B61AFF"/>
<stop offset="1" stop-color="#0C98FF"/>
</linearGradient>
</defs>
</svg>
