<svg width="72" height="72" viewBox="0 0 72 72" fill="none" xmlns="http://www.w3.org/2000/svg">
<path d="M36.3265 65.3019C19.9891 65.3019 6.69775 52.162 6.69775 36.0099C6.69775 31.7938 7.58706 27.7169 9.34056 23.8919C9.4325 23.6904 9.56384 23.5087 9.72706 23.3573C9.89029 23.206 10.0822 23.0878 10.2918 23.0097C10.5014 22.9315 10.7246 22.8949 10.9485 22.9019C11.1725 22.9089 11.3929 22.9594 11.597 23.0505C12.4533 23.4285 12.8367 24.4273 12.4513 25.2762C10.8948 28.6603 10.105 32.2712 10.105 36.0102C10.105 50.3098 21.8675 61.9422 36.3258 61.9422C38.813 61.9422 40.8361 59.947 40.8361 57.4945C40.8361 56.4025 40.4426 55.336 39.8094 54.711C38.9643 53.705 38.6269 52.8982 38.6269 51.9098C38.6269 49.6177 40.5156 47.7524 42.8355 47.7524H48.0653C56.1523 47.7524 62.7314 41.2051 62.7314 33.1582C62.5338 20.4178 50.6893 10.0504 36.3265 10.0504C32.3347 10.0504 28.5025 10.9172 24.9357 12.6274C24.7045 12.7389 24.4505 12.7967 24.1931 12.7965C23.8736 12.7953 23.5607 12.7061 23.2899 12.5389C23.019 12.3716 22.801 12.1331 22.6604 11.8502C22.562 11.6521 22.5046 11.4367 22.4913 11.2165C22.4781 10.9963 22.5094 10.7757 22.5834 10.5676C22.6561 10.359 22.77 10.1668 22.9186 10.002C23.0672 9.83713 23.2474 9.70297 23.4489 9.60725C27.4721 7.67649 31.8046 6.69727 36.3258 6.69727C52.5359 6.69727 65.9103 18.5598 66.1396 33.1409C66.1396 43.0564 58.0321 51.1202 48.0659 51.1202H42.8358C42.4019 51.1202 42.0348 51.4852 42.0348 51.9167C42.0348 52.0161 42.0348 52.1089 42.3309 52.4667C43.5011 53.6112 44.2374 55.5471 44.2374 57.5007C44.241 59.5781 43.4205 61.5352 41.9277 63.0091C40.431 64.4879 38.4415 65.3019 36.3265 65.3019ZM14.5168 20.4345C14.1324 20.4335 13.7595 20.3052 13.4579 20.0701C12.7263 19.493 12.6047 18.433 13.1853 17.7066C14.6229 15.9274 16.2645 14.3182 18.0773 12.9112C18.3776 12.6779 18.7489 12.5513 19.1312 12.5518C19.6583 12.5518 20.1454 12.7861 20.468 13.1954C20.6068 13.3679 20.7094 13.566 20.7698 13.7782C20.8301 13.9903 20.8469 14.2121 20.8193 14.4307C20.7927 14.6497 20.7226 14.8613 20.6129 15.0535C20.5033 15.2457 20.3562 15.4147 20.1801 15.5507C18.5972 16.776 17.1394 18.2039 15.847 19.7958C15.538 20.1998 15.0515 20.4345 14.5168 20.4345Z" fill="url(#paint0_linear_5370_10199)"/>
<path d="M35.3788 41.86C33.1413 41.8386 30.9466 41.4946 29.0293 40.8643C26.8686 40.1546 25.1484 39.1151 23.9164 37.7754C23.265 37.065 23.2872 35.934 23.9647 35.2548C24.2839 34.9371 24.7088 34.7599 25.1507 34.7601C25.3828 34.7592 25.6127 34.8078 25.8261 34.9029C26.0394 34.998 26.2318 35.1377 26.3911 35.3131C28.0474 37.1135 31.5024 38.2537 35.4085 38.2894L35.5955 38.2904C39.5414 38.2904 43.0653 37.1675 44.7901 35.3606C44.9487 35.1924 45.138 35.0588 45.347 34.9677C45.556 34.8767 45.7804 34.83 46.007 34.8304C46.4626 34.8304 46.8917 35.0153 47.2161 35.3525C47.8868 36.05 47.8894 37.181 47.223 37.8741C44.8436 40.3693 40.4989 41.8603 35.603 41.8603L35.3788 41.86ZM23.6664 26.32C23.6664 28.3707 25.2656 30.033 27.2387 30.033C29.2114 30.033 30.8106 28.3707 30.8106 26.32C30.8115 24.2692 29.2134 22.6058 27.2406 22.6045C25.2678 22.6035 23.6678 24.2651 23.6668 26.3155L23.6664 26.32ZM40.3481 26.32C40.3465 28.3707 41.9449 30.0341 43.9177 30.0351C45.8908 30.0361 47.4903 28.3748 47.4916 26.324V26.32C47.4929 24.2692 45.8941 22.6058 43.922 22.6045C41.9495 22.6035 40.3497 24.2651 40.3484 26.3155L40.3481 26.32Z" fill="url(#paint1_linear_5370_10199)"/>
<defs>
<linearGradient id="paint0_linear_5370_10199" x1="63" y1="14" x2="13" y2="58" gradientUnits="userSpaceOnUse">
<stop stop-color="#FFB016"/>
<stop offset="1" stop-color="#FF0D90"/>
</linearGradient>
<linearGradient id="paint1_linear_5370_10199" x1="25.5" y1="23" x2="48" y2="42" gradientUnits="userSpaceOnUse">
<stop stop-color="#FFB421"/>
<stop offset="1" stop-color="#F70E99"/>
</linearGradient>
</defs>
</svg>
