<svg xmlns="http://www.w3.org/2000/svg" width="35" height="35" viewBox="0 0 35 35" fill="none">
  <path d="M4.5625 14.3934C4.5625 13.6861 5.2767 13.2023 5.93351 13.4647L14.7148 16.9731C15.0946 17.1248 15.3438 17.4926 15.3438 17.9017V28.67C15.3438 29.3773 14.6296 29.8611 13.9727 29.5987L5.19149 26.0904C4.81163 25.9386 4.5625 25.5708 4.5625 25.1617V14.3934Z" stroke="white" stroke-width="1.5" stroke-linecap="round" stroke-linejoin="round"/>
  <path d="M19.6562 17.9017C19.6562 17.4926 19.9054 17.1248 20.2852 16.9731L29.0665 13.4647C29.7233 13.2023 30.4375 13.6861 30.4375 14.3934V25.1617C30.4375 25.5708 30.1884 25.9386 29.8085 26.0904L21.0273 29.5987C20.3704 29.8611 19.6562 29.3773 19.6562 28.67V17.9017Z" stroke="white" stroke-width="1.5" stroke-linecap="round" stroke-linejoin="round"/>
  <path d="M9.04309 9.53774C8.20444 9.20268 8.20444 8.01555 9.0431 7.68049L17.129 4.44998C17.3672 4.35482 17.6328 4.35482 17.871 4.44998L25.9569 7.68049C26.7956 8.01555 26.7956 9.20268 25.9569 9.53774L17.871 12.7682C17.6328 12.8634 17.3672 12.8634 17.129 12.7682L9.04309 9.53774Z" stroke="white" stroke-width="1.5" stroke-linecap="round" stroke-linejoin="round"/>
</svg>