<svg width="144" height="107" viewBox="0 0 144 107" fill="none" xmlns="http://www.w3.org/2000/svg">
<circle cx="72.5" cy="56.875" r="49.5" fill="url(#paint0_linear_5236_756)" fill-opacity="0.08"/>
<circle cx="72.5" cy="56.875" r="39.5" fill="url(#paint1_linear_5236_756)" fill-opacity="0.2"/>
<circle cx="72.5" cy="56.875" r="28.5" fill="url(#paint2_linear_5236_756)"/>
<path d="M86.8334 47.247C87.8056 48.2429 87.8016 49.8338 86.8244 50.8248L70.2312 67.6516C69.1849 68.7127 67.4726 68.7125 66.4265 67.6512L57.6926 58.7902C56.6505 57.733 56.6492 56.0353 57.6896 54.9764C58.7541 53.8931 60.4998 53.8921 61.5656 54.9742L68.5608 62.0767L83.1865 47.2383C84.1903 46.2199 85.8345 46.2238 86.8334 47.247Z" fill="white"/>
<circle cx="115.5" cy="36.875" r="3.5" fill="#936FFF"/>
<circle cx="139" cy="50.375" r="5" fill="#FFD24A"/>
<circle cx="2.5" cy="34.875" r="2.5" fill="#F51010"/>
<circle cx="38.8573" cy="3.80357" r="3.42857" fill="#0889FF"/>
<circle cx="131.5" cy="90.875" r="2.5" fill="#2DDE57"/>
<defs>
<linearGradient id="paint0_linear_5236_756" x1="72.5" y1="7.375" x2="72.5" y2="106.375" gradientUnits="userSpaceOnUse">
<stop stop-color="#71A1FE"/>
<stop offset="1" stop-color="#55C2FF"/>
</linearGradient>
<linearGradient id="paint1_linear_5236_756" x1="72.5" y1="17.375" x2="72.5" y2="96.3749" gradientUnits="userSpaceOnUse">
<stop stop-color="#71D4FE"/>
<stop offset="1" stop-color="#55A3FF"/>
</linearGradient>
<linearGradient id="paint2_linear_5236_756" x1="72.5" y1="28.375" x2="72.5" y2="85.375" gradientUnits="userSpaceOnUse">
<stop stop-color="#0788FF"/>
<stop offset="1" stop-color="#55A3FF"/>
</linearGradient>
</defs>
</svg>
