<svg width="44" height="44" fill="none" xmlns="http://www.w3.org/2000/svg"><circle cx="22" cy="22" r="21.5" stroke="#fff"/><path d="M28.886 31H15.05c-1.09 0-2.05-.957-2.05-2.106v-3.638c0-.384.256-.639.64-.639.385 0 .641.255.641.639v3.638c0 .447.32.83.769.83h13.9c.384 0 .769-.383.769-.83v-3.638c0-.384.256-.639.64-.639.385 0 .641.255.641.639v3.638C30.936 30.043 30.04 31 28.886 31z" fill="#fff"/><path d="M21.968 27.17c-.385 0-.64-.255-.64-.638V13.766c0-.383.255-.638.64-.638.384 0 .64.255.64.638v12.766c0 .383-.256.639-.64.639z" fill="#fff"/><path d="M26.131 18.425a.583.583 0 01-.448-.191l-3.715-3.702-3.715 3.702a.62.62 0 01-.897 0 .616.616 0 010-.894l4.163-4.149a.62.62 0 01.897 0l4.164 4.15a.615.615 0 010 .893.582.582 0 01-.448.191z" fill="#fff"/></svg>