<svg width="12" height="7" viewBox="0 0 12 7" fill="none" xmlns="http://www.w3.org/2000/svg">
<path d="M5.4697 0.2197C5.60242 0.0869689 5.78008 0.00882624 5.9676 0.000703222C6.15512 -0.00741979 6.33888 0.0550673 6.48257 0.175825L6.5302 0.2197L11.7802 5.4697C11.9166 5.60644 11.995 5.79054 11.999 5.98364C12.0031 6.17674 11.9325 6.36396 11.8019 6.50631C11.6714 6.64865 11.491 6.73514 11.2982 6.74776C11.1055 6.76039 10.9153 6.69817 10.7673 6.57407L10.7197 6.5302L5.99995 1.8112L1.2802 6.5302C1.14748 6.66293 0.969821 6.74107 0.782298 6.7492C0.594774 6.75732 0.411021 6.69483 0.267324 6.57407L0.219699 6.5302C0.0869686 6.39748 0.00882624 6.21982 0.000703224 6.0323C-0.00741979 5.84477 0.0550671 5.66102 0.175824 5.51732L0.219699 5.4697L5.4697 0.2197Z" fill="#666666"/>
</svg>
