<svg xmlns="http://www.w3.org/2000/svg" width="28" height="28" viewBox="0 0 28 28" fill="none">
  <path d="M21.4756 18.2602L20.6788 18.4737C20.6788 18.4737 20.2517 16.8799 18.0269 15.4832C18.7942 16.4875 19.4335 17.8109 19.7491 18.7228L17.5576 19.31C17.1496 18.8499 16.6574 18.3412 15.8996 17.9037C16.2412 18.3816 16.6006 18.9259 16.8935 19.488L9.58872 21.4453C9.45113 21.1974 9.36217 20.8654 9.29099 20.5998C8.70379 18.4083 9.38311 16.1622 10.8914 14.6193L17.0009 12.9822C19.0786 13.5643 20.7721 15.1034 21.3771 17.3613C21.4483 17.6269 21.4531 17.9104 21.4756 18.2602ZM15.4414 12.4748L11.9882 13.4001C11.5234 13.5247 11.0182 13.233 10.8936 12.7681L10.6623 11.9048C10.5377 11.44 10.8294 10.9348 11.2943 10.8102L12.1576 10.5789L11.2323 7.12571C11.1077 6.66086 11.3994 6.15565 11.8643 6.03109C12.3291 5.90654 12.8343 6.19822 12.9589 6.66307L13.8842 10.1163L14.7475 9.88494C15.2123 9.76038 15.7175 10.0521 15.8421 10.5169L16.0734 11.3802C16.198 11.8451 15.9063 12.3503 15.4414 12.4748Z" fill="white"/>
</svg>