<svg xmlns="http://www.w3.org/2000/svg" width="17" height="17" viewBox="0 0 17 17" fill="none">
<g id="Frame" clip-path="url(#clip0_2167_62847)">
<path id="Vector" d="M15.4063 8.5C15.2234 8.50187 15.0422 8.5353 14.8708 8.59881L12.4573 4.97834C12.6479 4.68182 12.7495 4.33687 12.75 3.98438C12.75 3.49124 12.5541 3.0183 12.2054 2.6696C11.8567 2.3209 11.3838 2.125 10.8906 2.125C10.3975 2.125 9.92455 2.3209 9.57585 2.6696C9.22715 3.0183 9.03126 3.49124 9.03126 3.98438C9.03126 4.454 9.21135 4.87847 9.49876 5.20572L7.06616 9.66556C6.84145 9.60035 6.60897 9.56568 6.37501 9.5625C5.84694 9.5625 5.3566 9.72188 4.94276 9.98856L2.99466 7.65106C3.11366 7.42794 3.18751 7.17719 3.18751 6.90625C3.18742 6.56386 3.07708 6.2306 2.87282 5.95581C2.66855 5.68103 2.38122 5.47933 2.05338 5.38059C1.72553 5.28185 1.37461 5.29131 1.05256 5.40758C0.730516 5.52384 0.454475 5.74073 0.265314 6.02613C0.0761532 6.31152 -0.0160697 6.65024 0.00230143 6.99214C0.0206726 7.33404 0.148661 7.66093 0.367315 7.92441C0.585968 8.18789 0.883661 8.37395 1.21631 8.45504C1.54896 8.53613 1.89888 8.50793 2.21426 8.37463L4.17669 10.7297C3.87802 11.1688 3.71845 11.6877 3.71876 12.2188C3.71876 13.6834 4.91035 14.875 6.37501 14.875C7.83966 14.875 9.03126 13.6834 9.03126 12.2188C9.03126 11.3757 8.6291 10.6319 8.01444 10.1453L10.4008 5.77044C10.5581 5.81347 10.7201 5.84375 10.8906 5.84375C11.161 5.84375 11.416 5.78319 11.6477 5.67959L14.0452 9.27562C13.8942 9.52189 13.8137 9.80488 13.8125 10.0938C13.8125 10.409 13.906 10.7171 14.0811 10.9792C14.2562 11.2413 14.5051 11.4456 14.7964 11.5662C15.0876 11.6868 15.408 11.7184 15.7172 11.6569C16.0263 11.5954 16.3103 11.4436 16.5332 11.2207C16.7561 10.9978 16.9079 10.7138 16.9694 10.4047C17.0309 10.0955 16.9993 9.77507 16.8787 9.48385C16.7581 9.19263 16.5538 8.94372 16.2917 8.76859C16.0296 8.59347 15.7215 8.5 15.4063 8.5ZM6.37501 13.8125C5.49632 13.8125 4.78126 13.0974 4.78126 12.2188C4.78126 11.3401 5.49632 10.625 6.37501 10.625C7.25369 10.625 7.96876 11.3401 7.96876 12.2188C7.96876 13.0974 7.25369 13.8125 6.37501 13.8125Z" fill="#F6F6F6"/>
</g>
<defs>
<clipPath id="clip0_2167_62847">
<rect width="17" height="17" fill="white"/>
</clipPath>
</defs>
</svg>