<svg xmlns="http://www.w3.org/2000/svg" width="22" height="22" viewBox="0 0 22 22" fill="none"><script xmlns=""/><script xmlns="" id="argent-x-extension" data-extension-id="dlcobpjiigpikoobohmabehhmhfoodbb"/><script xmlns=""/>
<path d="M11 6C14.695 6 18.06 9.5 19.345 11C18.06 12.5 14.695 16 11 16C7.30502 16 3.94002 12.5 2.65502 11C3.94002 9.5 7.30502 6 11 6ZM11 4.5C6.41502 4.5 2.53002 8.765 1.22002 10.385C1.07694 10.558 0.998657 10.7755 0.998657 11C0.998657 11.2245 1.07694 11.442 1.22002 11.615C2.53002 13.235 6.41502 17.5 11 17.5C15.585 17.5 19.47 13.235 20.78 11.615C20.9231 11.442 21.0014 11.2245 21.0014 11C21.0014 10.7755 20.9231 10.558 20.78 10.385C19.47 8.765 15.585 4.5 11 4.5Z" fill="white"/>
<path d="M11 9.5C11.2967 9.5 11.5867 9.58797 11.8334 9.7528C12.08 9.91762 12.2723 10.1519 12.3858 10.426C12.4994 10.7001 12.5291 11.0017 12.4712 11.2926C12.4133 11.5836 12.2704 11.8509 12.0607 12.0607C11.8509 12.2704 11.5836 12.4133 11.2926 12.4712C11.0017 12.5291 10.7001 12.4994 10.426 12.3858C10.1519 12.2723 9.91762 12.08 9.7528 11.8334C9.58797 11.5867 9.5 11.2967 9.5 11C9.5 10.6022 9.65804 10.2206 9.93934 9.93934C10.2206 9.65804 10.6022 9.5 11 9.5ZM11 8C10.4067 8 9.82664 8.17595 9.33329 8.50559C8.83994 8.83524 8.45543 9.30377 8.22836 9.85195C8.0013 10.4001 7.94189 11.0033 8.05765 11.5853C8.1734 12.1672 8.45912 12.7018 8.87868 13.1213C9.29824 13.5409 9.83279 13.8266 10.4147 13.9424C10.9967 14.0581 11.5999 13.9987 12.1481 13.7716C12.6962 13.5446 13.1648 13.1601 13.4944 12.6667C13.8241 12.1734 14 11.5933 14 11C14 10.2044 13.6839 9.44129 13.1213 8.87868C12.5587 8.31607 11.7957 8 11 8Z" fill="white"/>
</svg>