<svg xmlns="http://www.w3.org/2000/svg" width="20" height="20" viewBox="0 0 20 20" fill="none"><script xmlns=""/><script xmlns="" id="argent-x-extension" data-extension-id="dlcobpjiigpikoobohmabehhmhfoodbb"/><script xmlns=""/>
<path d="M15.8066 12.8809C14.8262 12.8809 13.957 13.3652 13.4258 14.1074L9.58203 11.668C9.79492 11.1543 9.90625 10.5977 9.90625 10.0234C9.90625 9.46875 9.80078 8.92969 9.60156 8.42969L13.6953 6.17578C14.2305 6.74414 14.9883 7.09961 15.8281 7.09961C17.4434 7.09961 18.7559 5.78516 18.7559 4.17188C18.7559 2.55859 17.4434 1.24414 15.8281 1.24414C14.2129 1.24414 12.9004 2.55859 12.9004 4.17188C12.9004 4.37109 12.9199 4.56641 12.959 4.75391L8.74023 7.07617C8.70898 7.04297 8.67773 7.00977 8.64648 6.97852C7.83398 6.16602 6.75195 5.7168 5.60156 5.7168C4.45117 5.7168 3.37109 6.16406 2.55664 6.97852C1.74414 7.79102 1.29492 8.87305 1.29492 10.0234C1.29492 11.1738 1.74219 12.2539 2.55664 13.0684C3.36914 13.8809 4.45117 14.3301 5.60156 14.3301C6.75195 14.3301 7.83203 13.8828 8.64648 13.0684C8.66602 13.0488 8.68555 13.0273 8.70508 13.0078L12.8828 15.6582C12.8809 15.709 12.8789 15.7578 12.8789 15.8086C12.8789 17.4238 14.1934 18.7363 15.8066 18.7363C17.4199 18.7363 18.7344 17.4219 18.7344 15.8086C18.7344 14.1953 17.4199 12.8809 15.8066 12.8809ZM15.8281 2.8457C16.5605 2.8457 17.1543 3.44141 17.1543 4.17188C17.1543 4.90234 16.5586 5.49805 15.8281 5.49805C15.0977 5.49805 14.502 4.90234 14.502 4.17188C14.502 3.44141 15.0977 2.8457 15.8281 2.8457ZM5.59961 12.7285C4.10938 12.7285 2.89453 11.5156 2.89453 10.0234C2.89453 8.53125 4.10742 7.31836 5.59961 7.31836C7.0918 7.31836 8.30469 8.53125 8.30469 10.0234C8.30469 11.5156 7.0918 12.7285 5.59961 12.7285ZM15.8066 17.1348C15.0742 17.1348 14.4805 16.5391 14.4805 15.8086C14.4805 15.0781 15.0762 14.4824 15.8066 14.4824C16.5371 14.4824 17.1328 15.0781 17.1328 15.8086C17.1328 16.5391 16.5371 17.1348 15.8066 17.1348Z" fill="white"/>
</svg>