<svg xmlns="http://www.w3.org/2000/svg" width="18" height="18" viewBox="0 0 18 18" fill="none">
<g id="Frame">
<path id="Vector" d="M8.34001 15.54C4.38001 15.54 1.14001 12.3 1.14001 8.34001C1.14001 4.38001 4.38001 1.14001 8.34001 1.14001C12.3 1.14001 15.54 4.38001 15.54 8.34001C15.54 12.3 12.3 15.54 8.34001 15.54ZM8.34001 14.34C11.64 14.34 14.34 11.64 14.34 8.34001C14.34 5.04001 11.64 2.34001 8.34001 2.34001C5.04001 2.34001 2.34001 5.04001 2.34001 8.34001C2.34001 11.64 5.04001 14.34 8.34001 14.34ZM12.78 15.3C12.54 15.06 12.6 14.64 12.84 14.46C13.08 14.28 13.5 14.28 13.68 14.52L14.82 15.9C15.06 16.14 15 16.56 14.76 16.74C14.52 16.92 14.1 16.92 13.92 16.68L12.78 15.3Z" fill="white"/>
</g>
</svg>