<svg xmlns="http://www.w3.org/2000/svg" width="126" height="93" viewBox="0 0 126 93" fill="none">
<circle cx="63.4374" cy="49.4375" r="43.3124" fill="url(#paint0_linear_3040_2687)" fill-opacity="0.08"/>
<circle cx="63.4374" cy="49.4373" r="34.5624" fill="url(#paint1_linear_3040_2687)" fill-opacity="0.2"/>
<circle cx="63.4375" cy="49.4372" r="24.9375" fill="url(#paint2_linear_3040_2687)"/>
<path d="M75.9794 40.013C76.8301 40.8844 76.8266 42.2764 75.9716 43.1435L61.4526 57.867C60.537 58.7954 59.0388 58.7953 58.1234 57.8666L50.4812 50.1132C49.5694 49.1882 49.5683 47.7027 50.4786 46.7762C51.4101 45.8283 52.9376 45.8274 53.8701 46.7742L59.991 52.9889L72.7884 40.0053C73.6667 39.1142 75.1054 39.1177 75.9794 40.013Z" fill="white"/>
<circle cx="101.062" cy="31.9374" r="3.06249" fill="#936FFF"/>
<circle cx="121.625" cy="43.7499" r="4.37499" fill="#FFD24A"/>
<circle cx="2.1875" cy="30.1874" r="2.1875" fill="#F51010"/>
<circle cx="32.8125" cy="2.1875" r="2.1875" fill="#C89CFF"/>
<circle cx="115.062" cy="79.1874" r="2.1875" fill="#2DDE57"/>
<defs>
<linearGradient id="paint0_linear_3040_2687" x1="63.4374" y1="6.12506" x2="63.4374" y2="92.7499" gradientUnits="userSpaceOnUse">
<stop stop-color="#71A1FE"/>
<stop offset="1" stop-color="#55C2FF"/>
</linearGradient>
<linearGradient id="paint1_linear_3040_2687" x1="63.4374" y1="14.8749" x2="63.4374" y2="83.9998" gradientUnits="userSpaceOnUse">
<stop stop-color="#71D4FE"/>
<stop offset="1" stop-color="#55A3FF"/>
</linearGradient>
<linearGradient id="paint2_linear_3040_2687" x1="63.4375" y1="24.4998" x2="63.4375" y2="74.3747" gradientUnits="userSpaceOnUse">
<stop stop-color="#0788FF"/>
<stop offset="1" stop-color="#55A3FF"/>
</linearGradient>
</defs>
</svg>