<svg xmlns="http://www.w3.org/2000/svg" width="18" height="17" viewBox="0 0 18 17" fill="none">
<path d="M15.6303 3.55971H10.9916V3.35908C11.042 1.75398 9.73109 0.5 8.11765 0.5H2.87395C1.2605 0.5 2.16649e-08 1.80414 0 3.35908V13.8925C0 15.1967 1.05882 16.25 2.36975 16.25H15.6303C16.9412 16.25 18 15.1967 18 13.8925V5.86704C18 4.61306 16.9412 3.55971 15.6303 3.55971ZM1.5126 3.35908C1.5126 2.60669 2.11765 2.00478 2.87395 2.00478H8.11765C8.87395 2.00478 9.47899 2.60669 9.47899 3.35908V3.55971H1.5126V3.35908ZM15.6303 14.7452H2.36975C1.91597 14.7452 1.5126 14.3941 1.5126 13.8925V5.06449H15.6303C16.084 5.06449 16.4874 5.41561 16.4874 5.9172V7.07086H12.2017C10.6387 7.07086 9.42857 8.32484 9.42857 9.82962V10.0303C9.42857 11.5852 10.6891 12.789 12.2017 12.789H16.4874V13.8925C16.4874 14.3941 16.084 14.7452 15.6303 14.7452ZM16.3866 8.57564V11.2842H12.2017C11.4958 11.2842 10.9412 10.7325 10.9412 10.0303V9.87978C10.9412 9.17755 11.4958 8.6258 12.2017 8.6258H16.3866V8.57564Z" fill="white"/>
</svg>