<svg xmlns="http://www.w3.org/2000/svg" width="18" height="18" viewBox="0 0 18 18" fill="none">
<g clip-path="url(#clip0_223_63227)">
<path d="M16.0589 9.76684C15.9039 9.76684 15.753 9.70566 15.6388 9.5996L14.0031 8.0496C13.8892 7.93725 13.8237 7.78472 13.8209 7.62471C13.8181 7.4647 13.878 7.30994 13.9879 7.19362C14.0979 7.07731 14.249 7.00868 14.4089 7.00247C14.5688 6.99625 14.7248 7.05295 14.8434 7.16039L15.9774 8.23315L16.9033 6.97683C16.9509 6.91202 17.0109 6.85723 17.0798 6.81559C17.1486 6.77395 17.225 6.74629 17.3045 6.73416C17.3841 6.72204 17.4652 6.72571 17.5433 6.74495C17.6215 6.76419 17.695 6.79863 17.7599 6.8463C17.8247 6.89398 17.8795 6.95395 17.9211 7.0228C17.9627 7.09165 17.9904 7.16802 18.0025 7.24756C18.0146 7.3271 18.011 7.40825 17.9917 7.48638C17.9725 7.5645 17.9381 7.63807 17.8904 7.70289L16.5525 9.51802C16.4505 9.66079 16.2874 9.75052 16.116 9.76276C16.0956 9.76684 16.0752 9.76684 16.0589 9.76684Z" fill="#7149FF"/>
<path d="M8.43128 17.2599C3.83838 17.2599 0.102051 13.5236 0.102051 8.93065C0.102051 4.33775 3.84246 0.605499 8.43128 0.605499C13.0201 0.605499 16.7605 4.34183 16.7605 8.93473C16.7605 9.27329 16.4872 9.54658 16.1487 9.54658C15.8101 9.54658 15.5368 9.27329 15.5368 8.93473C15.5368 5.01893 12.3512 1.82919 8.43128 1.82919C4.5114 1.82919 1.32982 5.01485 1.32982 8.93065C1.32982 12.8465 4.51548 16.0362 8.43536 16.0362C10.0058 16.0362 11.4946 15.5345 12.7387 14.5841C12.8674 14.4856 13.03 14.4424 13.1906 14.4638C13.3512 14.4852 13.4968 14.5696 13.5952 14.6983C13.6937 14.827 13.737 14.9896 13.7155 15.1502C13.6941 15.3109 13.6098 15.4564 13.481 15.5549C12.0324 16.6655 10.2567 17.2651 8.43128 17.2599Z" fill="#7149FF"/>
<path d="M11.749 8.86234C11.9965 9.01946 11.9965 9.38053 11.749 9.53766L7.11435 12.4811C6.84804 12.6502 6.4999 12.4589 6.4999 12.1434L6.4999 6.25657C6.4999 5.94109 6.84804 5.74978 7.11435 5.91891L11.749 8.86234Z" stroke="#7149FF" stroke-width="1.2"/>
</g>
<defs>
<clipPath id="clip0_223_63227">
<rect width="18" height="18" fill="white"/>
</clipPath>
</defs>
</svg>