<svg xmlns="http://www.w3.org/2000/svg" width="34" height="34" viewBox="0 0 34 34" fill="none">
  <path d="M17 0C7.54375 0 0 7.54375 0 17C0 26.4563 7.54375 34 17 34C26.4563 34 34 26.4563 34 17C34 7.54375 26.4563 0 17 0ZM15.3638 6.65125C15.81 6.205 16.1925 5.9075 16.915 5.9075C17.7225 5.84375 18.4663 6.22625 18.7638 6.8C19.1038 7.20375 19.295 8.09625 19.21 8.6275C19.21 8.77625 19.1038 9.775 19.0613 10.0513L18.4663 17.595C18.4663 18.3388 18.3175 19.0825 18.02 19.6563C17.8713 20.1025 17.425 20.4 16.83 20.4C16.3838 20.4 15.9375 20.1025 15.7888 19.6563C15.4913 18.9125 15.3425 18.3175 15.3425 17.595L14.9388 10.2C14.79 8.86125 14.79 9.3075 14.79 8.56375C14.79 7.84125 14.9388 7.24625 15.3638 6.65125ZM18.6363 27.4975C18.19 27.9438 17.595 28.0925 17.1488 28.0925C16.5538 28.0925 15.9588 27.9438 15.5125 27.4975C15.0663 27.0513 14.7688 26.4563 14.7688 25.7338C14.7688 25.1388 14.9175 24.5438 15.3638 24.0975C15.81 23.6513 16.405 23.3538 17 23.3538C17.595 23.3538 18.19 23.6513 18.6363 24.0975C19.0825 24.5438 19.2313 25.1388 19.2313 25.7338C19.21 26.4563 19.0613 27.0513 18.6363 27.4975Z" fill="#FF7410"/>
</svg>