<svg xmlns="http://www.w3.org/2000/svg" width="24" height="24" viewBox="0 0 24 24" fill="none">
  <path d="M12 24C5.373 24 0 18.627 0 12C0 5.373 5.373 0 12 0C18.627 0 24 5.373 24 12C24 18.627 18.627 24 12 24ZM9.324 16.712C9.44008 16.8281 9.57789 16.9202 9.72957 16.9831C9.88125 17.0459 10.0438 17.0782 10.208 17.0782C10.3722 17.0782 10.5348 17.0459 10.6864 16.9831C10.8381 16.9202 10.9759 16.8281 11.092 16.712L18.67 9.134C18.7861 9.01791 18.8782 8.88009 18.941 8.72842C19.0038 8.57674 19.0362 8.41417 19.0362 8.25C19.0362 8.08583 19.0038 7.92326 18.941 7.77158C18.8782 7.61991 18.7861 7.48209 18.67 7.366C18.5539 7.24991 18.4161 7.15783 18.2644 7.095C18.1127 7.03217 17.9502 6.99984 17.786 6.99984C17.6218 6.99984 17.4593 7.03217 17.3076 7.095C17.1559 7.15783 17.0181 7.24991 16.902 7.366L10.154 14.006L7.134 10.986C6.89955 10.7515 6.58156 10.6198 6.25 10.6198C5.91844 10.6198 5.60045 10.7515 5.366 10.986C5.13155 11.2205 4.99984 11.5384 4.99984 11.87C4.99984 12.0342 5.03217 12.1967 5.095 12.3484C5.15782 12.5001 5.24991 12.6379 5.366 12.754L9.324 16.712Z" fill="#80D241"/>
</svg>