<svg xmlns="http://www.w3.org/2000/svg" width="20" height="20" viewBox="0 0 20 20" fill="black">
  <path d="M17.2461 7.89648C17.0469 8.00977 16.8008 8.00977 16.6016 7.89648C16.4023 7.7832 16.2832 7.57422 16.2871 7.35156V3.51172C16.2871 3.00977 15.8594 2.60352 15.332 2.60352H4.56055C4.0332 2.60352 3.60547 3.01172 3.60547 3.51172V16.4805C3.60547 16.9824 4.0332 17.3906 4.56055 17.3906H6.89648C7.24805 17.3906 7.5332 17.666 7.5332 18.0078C7.5332 18.3477 7.24805 18.625 6.89648 18.625H4.50781C3.30469 18.5977 2.33398 17.6465 2.33398 16.4824V3.51367C2.33398 2.33203 3.33398 1.37109 4.5625 1.37109H15.332C16.5605 1.37109 17.5605 2.33203 17.5605 3.51367V7.35352C17.5664 7.57422 17.4453 7.7832 17.2461 7.89648ZM8.22852 13.7852H5.29102C5.06055 13.7891 4.8457 13.6738 4.72852 13.4805C4.61133 13.2871 4.61133 13.0488 4.72852 12.8555C4.8457 12.6621 5.06055 12.5469 5.29102 12.5508H8.22852C8.45898 12.5469 8.67383 12.6621 8.79102 12.8555C8.9082 13.0488 8.9082 13.2871 8.79102 13.4805C8.67383 13.6738 8.45898 13.791 8.22852 13.7852ZM4.72852 6.07617C4.61133 5.88281 4.61133 5.64453 4.72852 5.45117C4.8457 5.25781 5.06055 5.14258 5.29102 5.14648H14.6406C14.8711 5.14258 15.0859 5.25781 15.2031 5.45117C15.3203 5.64453 15.3203 5.88281 15.2031 6.07617C15.0859 6.26953 14.8711 6.38477 14.6406 6.38086H5.29102C5.06055 6.38672 4.8457 6.26953 4.72852 6.07617ZM11.166 10.084H5.29102C5.06055 10.0898 4.8457 9.97266 4.72852 9.7793C4.61133 9.58594 4.61133 9.34766 4.72852 9.1543C4.8457 8.96094 5.06055 8.8457 5.29102 8.84961H11.166C11.5117 8.85742 11.7891 9.13086 11.7891 9.4668C11.7891 9.80273 11.5117 10.0762 11.166 10.084ZM11.5918 15.832L16.6113 10.8125C16.8555 10.5684 17.252 10.5684 17.498 10.8125C17.7422 11.0566 17.7422 11.4531 17.498 11.6992L12.4785 16.7188C12.2344 16.9629 11.8379 16.9629 11.5938 16.7188C11.3477 16.4746 11.3477 16.0781 11.5918 15.832Z" fill="#D1D1D1"/>
</svg>