<svg xmlns="http://www.w3.org/2000/svg" width="16" height="16" viewBox="0 0 16 16" fill="none">
<g clip-path="url(#clip0_402_98789)">
<path d="M13.557 14.864L8 9.307L2.443 14.864C2.263 15.044 1.97 15.044 1.789 14.864L1.135 14.21C0.955 14.03 0.955 13.737 1.135 13.556L6.693 8L1.135 2.443C0.955 2.263 0.955 1.97 1.135 1.789L1.789 1.135C1.969 0.955 2.262 0.955 2.443 1.135L8 6.692L13.557 1.135C13.737 0.955 14.03 0.955 14.211 1.135L14.865 1.789C15.045 1.969 15.045 2.262 14.865 2.443L9.307 8L14.864 13.557C15.044 13.737 15.044 14.03 14.864 14.211L14.21 14.865C14.031 15.045 13.737 15.045 13.557 14.864Z" fill="black"/>
</g>
<defs>
<clipPath id="clip0_402_98789">
<rect width="16" height="16" fill="white"/>
</clipPath>
</defs>
</svg>