<svg xmlns="http://www.w3.org/2000/svg" width="60" height="12" viewBox="0 0 60 12" fill="none">
<g id="Group 634448">
<g id="Group 634446">
<circle id="Ellipse 68" cx="30.0001" cy="6.16424" r="2.46576" fill="white"/>
<path id="Ellipse 69 (Stroke)" fill-rule="evenodd" clip-rule="evenodd" d="M30 10.2738C32.2697 10.2738 34.1096 8.43385 34.1096 6.16418C34.1096 3.89451 32.2697 2.05459 30 2.05459C27.7303 2.05459 25.8904 3.89451 25.8904 6.16418C25.8904 8.43385 27.7303 10.2738 30 10.2738ZM30 11.0957C32.7236 11.0957 34.9315 8.88778 34.9315 6.16418C34.9315 3.44058 32.7236 1.23267 30 1.23267C27.2764 1.23267 25.0685 3.44058 25.0685 6.16418C25.0685 8.88778 27.2764 11.0957 30 11.0957Z" fill="white"/>
</g>
<path id="Vector 137 (Stroke)" fill-rule="evenodd" clip-rule="evenodd" d="M0.179564 0.0714037C0.367117 -0.0564147 0.622777 -0.00798989 0.750595 0.179564C1.83946 1.7773 3.73486 3.86688 5.87141 4.97982C6.93503 5.53387 8.03427 5.83344 9.11158 5.73487C10.1798 5.63714 11.269 5.14438 12.318 4.03605C14.6174 1.60675 16.8809 1.05103 18.7978 1.42409C20.6808 1.79056 22.1485 3.03778 22.9304 4.07047C23.0675 4.25141 23.0318 4.50917 22.8509 4.64618C22.67 4.7832 22.4122 4.74759 22.2752 4.56664C21.5777 3.64555 20.2714 2.54822 18.6407 2.23087C17.0439 1.9201 15.0539 2.34128 12.915 4.60106C11.7448 5.83727 10.4762 6.43537 9.18647 6.55337C7.90591 6.67054 6.64726 6.31071 5.4917 5.70877C3.18988 4.50974 1.20172 2.301 0.0714037 0.642435C-0.0564147 0.454882 -0.00798989 0.199222 0.179564 0.0714037Z" fill="url(#paint0_linear_2023_2416)"/>
<path id="Vector 139 (Stroke)" fill-rule="evenodd" clip-rule="evenodd" d="M59.8207 0.0714037C59.6331 -0.0564147 59.3775 -0.00798989 59.2496 0.179564C58.1608 1.7773 56.2654 3.86688 54.1288 4.97982C53.0652 5.53387 51.966 5.83344 50.8887 5.73487C49.8205 5.63714 48.7313 5.14438 47.6822 4.03605C45.3828 1.60675 43.1194 1.05103 41.2025 1.42409C39.3194 1.79056 37.8518 3.03778 37.0698 4.07047C36.9328 4.25141 36.9684 4.50917 37.1493 4.64618C37.3303 4.7832 37.588 4.74759 37.7251 4.56664C38.4225 3.64555 39.7289 2.54822 41.3595 2.23087C42.9563 1.9201 44.9463 2.34128 47.0853 4.60106C48.2554 5.83727 49.5241 6.43537 50.8138 6.55337C52.0943 6.67054 53.353 6.31071 54.5085 5.70877C56.8104 4.50974 58.7985 2.301 59.9288 0.642435C60.0567 0.454882 60.0082 0.199222 59.8207 0.0714037Z" fill="url(#paint1_linear_2023_2416)"/>
<path id="Vector 138 (Stroke)" fill-rule="evenodd" clip-rule="evenodd" d="M0.185527 4.1768C0.375281 4.05227 0.630057 4.10515 0.754586 4.2949C1.80361 5.89339 3.62801 7.98119 5.68189 9.09221C6.70403 9.64513 7.75697 9.94221 8.78653 9.84439C9.80651 9.74747 10.8512 9.25868 11.8607 8.1511C14.0759 5.72081 16.2634 5.1583 18.1226 5.53405C19.9446 5.90227 21.3605 7.15393 22.113 8.18581C22.2467 8.3692 22.2064 8.62627 22.023 8.75999C21.8396 8.89372 21.5826 8.85345 21.4488 8.67006C20.7766 7.74816 19.5214 6.65528 17.9598 6.33968C16.4354 6.0316 14.527 6.44598 12.4682 8.70477C11.3407 9.94173 10.1148 10.5438 8.86427 10.6626C7.62329 10.7805 6.40567 10.4182 5.29083 9.81514C3.07073 8.6142 1.15539 6.40367 0.0674261 4.74586C-0.0571023 4.55611 -0.0042266 4.30133 0.185527 4.1768Z" fill="url(#paint2_linear_2023_2416)"/>
<path id="Vector 140 (Stroke)" fill-rule="evenodd" clip-rule="evenodd" d="M59.8147 4.1768C59.625 4.05227 59.3702 4.10515 59.2457 4.2949C58.1966 5.89339 56.3722 7.98119 54.3184 9.09221C53.2962 9.64513 52.2433 9.94221 51.2137 9.84439C50.1937 9.74747 49.1491 9.25868 48.1395 8.1511C45.9244 5.72081 43.7369 5.1583 41.8777 5.53405C40.0557 5.90227 38.6397 7.15393 37.8873 8.18581C37.7536 8.3692 37.7938 8.62627 37.9772 8.75999C38.1606 8.89372 38.4177 8.85345 38.5514 8.67006C39.2236 7.74816 40.4789 6.65528 42.0405 6.33968C43.5649 6.0316 45.4732 6.44598 47.5321 8.70477C48.6595 9.94173 49.8854 10.5438 51.136 10.6626C52.377 10.7805 53.5946 10.4182 54.7094 9.81514C56.9295 8.6142 58.8449 6.40367 59.9328 4.74586C60.0573 4.55611 60.0045 4.30133 59.8147 4.1768Z" fill="url(#paint3_linear_2023_2416)"/>
</g>
<defs>
<linearGradient id="paint0_linear_2023_2416" x1="22.9727" y1="3.92781" x2="0.780864" y2="3.92781" gradientUnits="userSpaceOnUse">
<stop offset="0.171875" stop-color="white"/>
<stop offset="1" stop-color="white" stop-opacity="0"/>
</linearGradient>
<linearGradient id="paint1_linear_2023_2416" x1="37.0276" y1="3.92781" x2="59.2194" y2="3.92781" gradientUnits="userSpaceOnUse">
<stop offset="0.171875" stop-color="white"/>
<stop offset="1" stop-color="white" stop-opacity="0"/>
</linearGradient>
<linearGradient id="paint2_linear_2023_2416" x1="22.1371" y1="8.03719" x2="0.767172" y2="8.03719" gradientUnits="userSpaceOnUse">
<stop offset="0.171875" stop-color="white"/>
<stop offset="1" stop-color="white" stop-opacity="0"/>
</linearGradient>
<linearGradient id="paint3_linear_2023_2416" x1="37.8632" y1="8.03719" x2="59.2331" y2="8.03719" gradientUnits="userSpaceOnUse">
<stop offset="0.171875" stop-color="white"/>
<stop offset="1" stop-color="white" stop-opacity="0"/>
</linearGradient>
</defs>
</svg>