<svg xmlns="http://www.w3.org/2000/svg" width="26" height="26" viewBox="0 0 26 26" fill="none">
<g id="Frame">
<path id="Vector" d="M19.5309 12.9984C19.5309 12.9041 19.5016 12.8147 19.4838 12.7221C19.4675 12.662 19.4675 12.6002 19.448 12.5434C19.385 12.3787 19.2888 12.2288 19.1653 12.103L8.57027 1.508C8.34063 1.27352 8.02759 1.13936 7.69942 1.13479C7.37125 1.13023 7.05459 1.25562 6.81852 1.48362C6.59093 1.71936 6.46591 2.0356 6.47078 2.36324C6.47565 2.69087 6.61002 3.00326 6.84452 3.23212L16.6108 13L6.84452 22.7695C6.61012 22.9981 6.47579 23.3102 6.47092 23.6376C6.46605 23.9649 6.59103 24.2809 6.81852 24.5164C7.05384 24.7446 7.37004 24.8702 7.69781 24.8656C8.02557 24.861 8.33815 24.7267 8.56702 24.492L19.162 13.8954C19.2851 13.7693 19.3813 13.6194 19.4448 13.455C19.4675 13.3965 19.4675 13.3347 19.4821 13.2762C19.5016 13.1836 19.5309 13.0926 19.5309 12.9984Z" fill="white"/>
</g>
</svg>