<svg xmlns="http://www.w3.org/2000/svg" width="14" height="14" viewBox="0 0 14 14" fill="none">
<g id="Group 631994">
<path id="Vector" d="M7 0C3.14001 0 0 3.14001 0 7C0 10.86 3.14001 14 7 14C10.86 14 14 10.86 14 7C14 3.14001 10.86 0 7 0ZM7 12.0055C6.586 12.0055 6.24999 11.6695 6.24999 11.2555C6.24999 10.8415 6.586 10.5055 7 10.5055C7.414 10.5055 7.75001 10.8415 7.75001 11.2555C7.75001 11.6695 7.414 12.0055 7 12.0055ZM8.38401 6.89351C7.94901 7.32802 7.50001 7.77702 7.50001 8.18051V9.02602C7.50001 9.30203 7.27601 9.52603 7 9.52603C6.72399 9.52603 6.49999 9.30203 6.49999 9.02602V8.18051C6.49999 7.36251 7.12498 6.73751 7.67698 6.18602C8.08147 5.78153 8.49999 5.36353 8.49999 5.03002C8.49999 4.19653 7.82699 3.51853 7 3.51853C6.15901 3.51853 5.50001 4.16753 5.50001 4.99602C5.50001 5.27203 5.27601 5.49601 5 5.49601C4.72399 5.49601 4.49999 5.27201 4.49999 4.99602C4.49999 3.63002 5.62148 2.51853 7 2.51853C8.37852 2.51853 9.50001 3.64502 9.50001 5.03002C9.50001 5.77799 8.93251 6.34501 8.38401 6.89351Z" fill="white"/>
</g>
</svg>