<svg xmlns="http://www.w3.org/2000/svg" width="16" height="16" viewBox="0 0 16 16" fill="none">
  <path d="M8 1C11.8682 1 15 4.1378 15 8.00387C15 11.87 11.8682 15 8 15C4.13178 15 1 11.87 1 8.00387C1 4.1378 4.13178 1 8 1ZM7.22481 11.6298C7.22481 12.0559 7.57364 12.4045 8 12.4045C8.42636 12.4045 8.77519 12.0559 8.77519 11.6298V6.80299C8.77519 6.37687 8.42636 6.02822 8 6.02822C7.57364 6.02822 7.22481 6.37687 7.22481 6.80299V11.6298ZM8 5.14499C8.42636 5.14499 8.77519 4.79635 8.77519 4.37023C8.77519 3.94411 8.42636 3.59546 8 3.59546C7.57364 3.59546 7.22481 3.94411 7.22481 4.37023C7.22481 4.79635 7.57364 5.14499 8 5.14499Z" fill="white"/>
</svg>