<svg xmlns="http://www.w3.org/2000/svg" width="17" height="18" viewBox="0 0 17 18" fill="none">
  <path d="M12.75 4.625H15.3087C15.4775 4.625 15.6175 4.6775 15.7287 4.78125C15.8421 4.89032 15.9145 5.0351 15.9337 5.19125L16.305 9H15.055L14.7425 5.875H12.75V7.75C12.753 7.83298 12.7391 7.9157 12.709 7.99309C12.6789 8.07048 12.6333 8.14089 12.575 8.2C12.5159 8.25832 12.4455 8.30393 12.3681 8.33402C12.2907 8.36412 12.208 8.37806 12.125 8.375C12.042 8.37806 11.9593 8.36412 11.8819 8.33402C11.8045 8.30393 11.7341 8.25832 11.675 8.2C11.6167 8.14089 11.5711 8.07048 11.541 7.99309C11.5109 7.9157 11.4969 7.83298 11.5 7.75V5.875H6.49998V7.75C6.50304 7.83298 6.4891 7.9157 6.459 7.99309C6.4289 8.07048 6.3833 8.14089 6.32498 8.2C6.26587 8.25832 6.19546 8.30393 6.11807 8.33402C6.04068 8.36412 5.95796 8.37806 5.87498 8.375C5.792 8.37806 5.70927 8.36412 5.63189 8.33402C5.5545 8.30393 5.48409 8.25832 5.42498 8.2C5.36666 8.14089 5.32105 8.07048 5.29096 7.99309C5.26086 7.9157 5.24692 7.83298 5.24998 7.75V5.875H3.25748L2.26123 15.875H8.99873V17.125H1.55998C1.47297 17.1266 1.38666 17.1091 1.30717 17.0737C1.22768 17.0383 1.15694 16.9858 1.09998 16.92C1.04046 16.8568 0.996303 16.7807 0.97094 16.6977C0.945576 16.6147 0.939687 16.5269 0.953729 16.4412L2.06748 5.19125C2.08709 5.03522 2.15942 4.89056 2.27248 4.78125C2.38634 4.67572 2.53733 4.61955 2.69248 4.625H5.24998V4.195C5.27623 3.075 5.64123 2.145 6.34373 1.4025C7.04623 0.66 7.93123 0.275 8.99998 0.25C10.0675 0.275 10.9537 0.66 11.6562 1.4025C12.3587 2.14375 12.7237 3.075 12.75 4.195V4.625ZM11.5 4.625V4.195C11.4875 3.42625 11.2425 2.78875 10.7675 2.28125C10.5437 2.03481 10.2708 1.83789 9.96646 1.70314C9.66207 1.56839 9.33286 1.49877 8.99998 1.49877C8.66709 1.49877 8.33789 1.56839 8.0335 1.70314C7.72911 1.83789 7.45626 2.03481 7.23248 2.28125C6.75748 2.78875 6.51373 3.42625 6.49998 4.195V4.625H11.5ZM15.425 14.0787L14 12.6312V17.125C14.003 17.208 13.9891 17.2907 13.959 17.3681C13.9289 17.4455 13.8833 17.5159 13.825 17.575C13.7659 17.6333 13.6955 17.6789 13.6181 17.709C13.5407 17.7391 13.458 17.7531 13.375 17.75C13.292 17.7531 13.2093 17.7391 13.1319 17.709C13.0545 17.6789 12.9841 17.6333 12.925 17.575C12.8667 17.5159 12.8211 17.4455 12.791 17.3681C12.7609 17.2907 12.7469 17.208 12.75 17.125V12.6325L11.325 14.0775C11.2469 14.1578 11.1481 14.215 11.0396 14.2428C10.9311 14.2706 10.8171 14.2679 10.71 14.235C10.6041 14.2094 10.5075 14.1546 10.4313 14.0768C10.355 13.999 10.3022 13.9014 10.2787 13.795C10.2477 13.6918 10.2448 13.5822 10.2706 13.4775C10.2963 13.3729 10.3496 13.277 10.425 13.2L12.925 10.7C12.9826 10.6383 13.0522 10.589 13.1296 10.5552C13.207 10.5215 13.2905 10.504 13.375 10.5037C13.5437 10.5037 13.6937 10.5687 13.825 10.7L16.325 13.2C16.4001 13.2772 16.4533 13.373 16.479 13.4776C16.5047 13.5822 16.502 13.6918 16.4712 13.795C16.4477 13.9012 16.3948 13.9987 16.3186 14.0763C16.2423 14.1538 16.1458 14.2084 16.04 14.2338C15.9331 14.2671 15.8192 14.2702 15.7106 14.2429C15.6021 14.2155 15.5033 14.1587 15.425 14.0787Z" fill="white"/>
</svg>