<svg xmlns="http://www.w3.org/2000/svg" width="16" height="16" viewBox="0 0 16 16" fill="none">
  <g clip-path="url(#clip0_360_85483)">
    <path d="M11.5789 6.42541H4.46472C4.38814 6.42541 4.31231 6.41033 4.24157 6.38102C4.17082 6.35172 4.10653 6.30876 4.05239 6.25461C3.99824 6.20047 3.95528 6.13618 3.92598 6.06544C3.89667 5.99469 3.88159 5.91886 3.88159 5.84228C3.90451 5.69586 3.97333 5.56049 4.07813 5.45569C4.18293 5.35089 4.31829 5.28207 4.46472 5.25916H11.5789C11.6554 5.25916 11.7313 5.27424 11.802 5.30354C11.8728 5.33285 11.937 5.3758 11.9912 5.42995C12.0453 5.4841 12.0883 5.54838 12.1176 5.61913C12.1469 5.68988 12.162 5.7657 12.162 5.84228C12.162 5.91886 12.1469 5.99469 12.1176 6.06544C12.0883 6.13618 12.0453 6.20047 11.9912 6.25461C11.937 6.30876 11.8728 6.35172 11.802 6.38102C11.7313 6.41033 11.6554 6.42541 11.5789 6.42541Z" fill="#ffffff"/>
    <path d="M8.08002 15.0557C7.856 15.0438 7.63682 14.9859 7.43616 14.8856C7.2355 14.7853 7.05767 14.6447 6.91377 14.4726L0.499373 7.35843C0.227033 7.11221 0.0532849 6.77554 0.010388 6.41092C-0.0325089 6.04629 0.0583595 5.67849 0.266123 5.37579L2.482 1.76041C2.63216 1.52157 2.83786 1.32259 3.08155 1.18043C3.32524 1.03828 3.59969 0.957174 3.88151 0.944031L12.2785 0.944031C12.5604 0.957174 12.8348 1.03828 13.0785 1.18043C13.3222 1.32259 13.5279 1.52157 13.678 1.76041L15.7773 5.49242C15.9632 5.80214 16.0412 6.16477 15.999 6.52354C15.9568 6.8823 15.7968 7.21694 15.544 7.47505L9.24628 14.4726C9.11381 14.6571 8.9384 14.8067 8.73521 14.9083C8.53202 15.0099 8.30715 15.0605 8.08002 15.0557ZM3.88151 2.11028L3.53163 2.34354L1.31575 6.07555C1.24951 6.15829 1.21341 6.26112 1.21341 6.36711C1.21341 6.4731 1.24951 6.57593 1.31575 6.65867L7.73015 13.7728H8.4299L14.7277 6.65867C14.8443 6.54205 14.9609 6.19217 14.8443 6.07555L12.6284 2.34354L12.2785 2.11028H3.88151Z" fill="#ffffff"/>
  </g>
  <defs>
    <clipPath id="clip0_360_85483">
      <rect width="16" height="16" fill="white"/>
    </clipPath>
  </defs>
</svg>