<svg xmlns="http://www.w3.org/2000/svg" width="24" height="24" viewBox="0 0 24 24" fill="none">
  <path d="M5.19069 2.18182H14.4456C14.9005 2.18182 15.2727 2.6469 15.2727 3.21532C15.2727 3.78374 14.9005 4.24881 14.4456 4.24881H6.01776V19.7512H14.4456C14.9005 19.7512 15.2727 20.2163 15.2727 20.7847C15.2727 21.3531 14.9005 21.8182 14.4456 21.8182H5.19069C4.7358 21.8182 4.36361 21.3531 4.36361 20.7847V3.21532C4.36361 2.6469 4.7358 2.18182 5.19069 2.18182Z" fill="#ffffff"/>
  <path d="M15.3105 14.7987L17.3467 12.9213H9.71576C9.17211 12.9213 8.72729 12.5072 8.72729 12.001C8.72729 11.4948 9.17211 11.0807 9.71576 11.0807H17.3369L15.3105 9.21243C14.925 8.85351 14.9151 8.27371 15.3006 7.91479C15.6861 7.54667 16.3088 7.54667 16.7042 7.89639L20.4308 11.3384C20.6186 11.5132 20.7273 11.7433 20.7273 11.9918C20.7273 12.2403 20.6186 12.4703 20.4308 12.6452L16.6943 16.0964C16.509 16.2676 16.2585 16.3636 15.9975 16.3636C15.7364 16.3636 15.4859 16.2676 15.3006 16.0964C15.2096 16.0106 15.1377 15.909 15.0889 15.7974C15.0402 15.6857 15.0155 15.5662 15.0165 15.4457C15.0174 15.3251 15.0438 15.2059 15.0943 15.0949C15.1447 14.9839 15.2182 14.8833 15.3105 14.7987Z" fill="#ffffff"/>
</svg>