<svg xmlns="http://www.w3.org/2000/svg" width="23" height="14" viewBox="0 0 23 14" fill="none">
  <path d="M20.692 14H1.80804C0.809598 14 0 13.1853 0 12.1805V1.81949C0 0.814729 0.809598 0 1.80804 0H20.692C21.6904 0 22.5 0.814729 22.5 1.81949V12.1805C22.5 13.1853 21.6904 14 20.692 14Z" fill="#EFF7FF"/>
  <path d="M5.75012 6.99982C5.75012 7.86177 6.1057 8.68842 6.73864 9.29791C7.37157 9.90741 8.23002 10.2498 9.12512 10.2498C10.0202 10.2498 10.8787 9.90741 11.5116 9.29791C12.1445 8.68842 12.5001 7.86177 12.5001 6.99982C12.5001 6.13786 12.1445 5.31121 11.5116 4.70172C10.8787 4.09223 10.0202 3.74982 9.12512 3.74982C8.23002 3.74982 7.37157 4.09223 6.73864 4.70172C6.1057 5.31121 5.75012 6.13786 5.75012 6.99982Z" fill="#EA001B"/>
  <path d="M9.99976 6.99982C9.99976 7.42661 10.0871 7.84923 10.2567 8.24354C10.4263 8.63785 10.6749 8.99612 10.9883 9.29791C11.3017 9.5997 11.6737 9.8391 12.0832 10.0024C12.4927 10.1658 12.9315 10.2498 13.3748 10.2498C13.818 10.2498 14.2568 10.1658 14.6663 10.0024C15.0758 9.8391 15.4478 9.5997 15.7612 9.29791C16.0746 8.99612 16.3232 8.63785 16.4928 8.24354C16.6625 7.84923 16.7498 7.42661 16.7498 6.99982C16.7498 6.57302 16.6625 6.1504 16.4928 5.7561C16.3232 5.36179 16.0746 5.00351 15.7612 4.70172C15.4478 4.39993 15.0758 4.16054 14.6663 3.99721C14.2568 3.83388 13.818 3.74982 13.3748 3.74982C12.9315 3.74982 12.4927 3.83388 12.0832 3.99721C11.6737 4.16054 11.3017 4.39993 10.9883 4.70172C10.6749 5.00351 10.4263 5.36179 10.2567 5.7561C10.0871 6.1504 9.99976 6.57302 9.99976 6.99982Z" fill="#F79F1A"/>
  <path d="M9.99976 7.00602C9.99976 8.0107 10.4835 8.90818 11.2419 9.5C12.0094 8.90818 12.4998 8.0054 12.4998 6.99398C12.4998 5.98931 12.016 5.09182 11.2576 4.5C10.4901 5.09182 9.99976 5.99436 9.99976 7.00602Z" fill="#FF5F01"/>
  <path d="M7.4661 11.0995C7.31903 11.0569 7.17807 11.0711 7.06057 11.1798C7.04604 11.1932 7.03788 11.2124 7.01596 11.2204C6.8406 11.0436 6.65248 11.0241 6.45265 11.1851C6.43812 11.1594 6.458 11.1309 6.43302 11.1041C6.37567 11.1019 6.31373 11.0983 6.24976 11.1068V11.9733H6.43634C6.45265 11.9485 6.4473 11.9286 6.4473 11.9096C6.44781 11.7787 6.4473 11.6476 6.44755 11.5167C6.44755 11.4814 6.44832 11.4464 6.458 11.4121C6.4863 11.3119 6.57041 11.2552 6.68358 11.2608C6.78426 11.2657 6.84671 11.3231 6.86404 11.4282C6.86787 11.4513 6.86838 11.4749 6.86863 11.4982C6.86914 11.6388 6.86914 11.7797 6.8694 11.9203C6.8694 11.9376 6.86455 11.9558 6.88495 11.9763C6.94128 11.9731 7.00347 11.9826 7.06133 11.9721C7.07637 11.9476 7.07153 11.9276 7.07153 11.9084C7.07204 11.7756 7.07178 11.6425 7.07178 11.5097C7.07178 11.4744 7.07382 11.4394 7.08427 11.4053C7.11409 11.3097 7.20203 11.253 7.3096 11.2606C7.41232 11.2679 7.47375 11.3241 7.49031 11.4284C7.49388 11.4515 7.49388 11.4751 7.49388 11.4985C7.49414 11.6352 7.49363 11.7722 7.49439 11.9089C7.49439 11.9298 7.48827 11.9522 7.50484 11.9721H7.69015C7.69397 11.9624 7.69805 11.957 7.69805 11.9517C7.69779 11.7641 7.70238 11.5763 7.69474 11.389C7.68862 11.2465 7.61139 11.1416 7.4661 11.0995ZM16.0761 10.7558V11.1898C15.8296 11.0365 15.6094 11.0511 15.447 11.2248C15.2948 11.3873 15.2908 11.6695 15.4383 11.8422C15.5069 11.9225 15.5956 11.9728 15.7019 11.9909C15.8398 12.014 15.9652 11.9887 16.0728 11.8797C16.074 11.9057 16.0748 11.9186 16.0756 11.9315C16.0761 11.9449 16.074 11.9592 16.0858 11.9699C16.1497 11.9801 16.2275 11.978 16.2716 11.9643V10.7504C16.204 10.7531 16.1418 10.7446 16.0761 10.7558ZM15.8166 11.8169C15.6581 11.8198 15.539 11.7036 15.5377 11.544C15.5365 11.3783 15.6499 11.2606 15.8115 11.2598C15.9695 11.2593 16.0863 11.3759 16.0878 11.5359C16.0891 11.697 15.9762 11.814 15.8166 11.8169ZM14.2416 11.1051C14.2179 11.1328 14.2414 11.1616 14.2172 11.189C14.1318 11.1015 14.0237 11.0711 13.9021 11.081C13.778 11.0912 13.675 11.1421 13.5945 11.2326C13.4487 11.3963 13.4469 11.6722 13.5911 11.8408C13.6582 11.9191 13.7443 11.9709 13.8483 11.9894C13.9875 12.014 14.116 11.9918 14.2182 11.8882C14.2411 11.9176 14.2164 11.9495 14.2421 11.9726H14.4274V11.1039C14.3599 11.1019 14.298 11.0981 14.2416 11.1051ZM13.9676 11.8169C13.8042 11.8164 13.6893 11.6997 13.6916 11.5357C13.6936 11.3722 13.8121 11.2567 13.9745 11.2598C14.1287 11.2627 14.2442 11.3832 14.2421 11.5391C14.2401 11.7016 14.1259 11.8172 13.9676 11.8169ZM8.62662 11.1063C8.60776 11.1353 8.62738 11.1633 8.60954 11.1854C8.39314 11.0375 8.16348 11.0479 8.00188 11.2119C7.8385 11.3776 7.82651 11.6602 7.97614 11.8376C8.04547 11.9198 8.13493 11.9736 8.24403 11.9909C8.38141 12.0125 8.50784 11.9894 8.60801 11.8862C8.62968 11.9162 8.6024 11.9475 8.6307 11.9724H8.8132V11.1022C8.7454 11.1044 8.6832 11.0954 8.62662 11.1063ZM8.35287 11.8169C8.18795 11.8142 8.07631 11.6984 8.07962 11.5335C8.08268 11.3715 8.1984 11.2579 8.35796 11.2601C8.51574 11.2623 8.63197 11.3832 8.62891 11.5415C8.62535 11.7048 8.51064 11.8196 8.35287 11.8169ZM11.4019 11.0925C11.2273 11.0462 11.0353 11.1063 10.9296 11.2426C10.8248 11.3776 10.81 11.5306 10.8551 11.6887C10.9036 11.8578 11.0249 11.9566 11.2026 11.9894C11.2979 12.0072 11.3945 12.0023 11.488 11.9743C11.5579 11.9536 11.6236 11.9249 11.6764 11.8712C11.6433 11.8242 11.6129 11.7814 11.5831 11.7391C11.2839 11.8751 11.0799 11.8298 11.0471 11.6101H11.7154C11.7307 11.5488 11.7258 11.4963 11.7162 11.4447C11.6838 11.2693 11.589 11.1418 11.4019 11.0925ZM11.0519 11.454C11.0593 11.3384 11.15 11.2559 11.2719 11.2516C11.4024 11.2469 11.4893 11.3187 11.5094 11.454H11.0519ZM9.69156 11.5041C9.65715 11.4861 9.6207 11.4744 9.58297 11.4649C9.50956 11.4467 9.43335 11.4435 9.35943 11.4289C9.31381 11.4199 9.26334 11.4102 9.25824 11.352C9.25442 11.3087 9.29494 11.271 9.35867 11.2579C9.41755 11.2457 9.47643 11.2511 9.53531 11.2618C9.5975 11.273 9.65536 11.2966 9.71704 11.3233C9.7461 11.2708 9.77312 11.2221 9.80371 11.1667C9.60132 11.0732 9.40353 11.0404 9.19987 11.1265C9.09231 11.1718 9.04184 11.2596 9.04694 11.3722C9.05178 11.479 9.11881 11.5413 9.21618 11.5817C9.29469 11.614 9.3788 11.6184 9.46139 11.6318C9.49962 11.6381 9.53862 11.6435 9.57278 11.6624C9.6263 11.6919 9.63115 11.7442 9.58476 11.7829C9.56105 11.8026 9.5325 11.8133 9.50166 11.8181C9.44074 11.8279 9.37982 11.8279 9.31839 11.8193C9.24065 11.8086 9.17158 11.7768 9.10225 11.7376L9.01354 11.878C9.01941 11.8867 9.02094 11.8906 9.02374 11.8931C9.02833 11.897 9.03368 11.8999 9.03878 11.9028C9.1963 11.9972 9.3681 12.014 9.54678 11.985C9.62223 11.9728 9.6913 11.9434 9.74738 11.8906C9.87151 11.7734 9.84475 11.5843 9.69156 11.5041ZM10.5444 11.8069C10.4088 11.8378 10.3459 11.7894 10.3456 11.6566C10.3454 11.5532 10.3451 11.4496 10.3459 11.3462C10.3459 11.3253 10.3395 11.3031 10.3619 11.2764H10.6658C10.6744 11.2165 10.6721 11.1647 10.6665 11.1002H10.3446V10.8409H10.1432V11.0944C10.0798 11.1114 10.0193 11.0917 9.95868 11.1095C9.9546 11.1642 9.95155 11.2177 9.95996 11.2713C10.0214 11.2861 10.082 11.2666 10.1366 11.2844C10.1473 11.309 10.143 11.3309 10.1432 11.3518C10.1437 11.471 10.1417 11.5899 10.1442 11.7091C10.1463 11.8086 10.1736 11.8994 10.2691 11.9561C10.3815 12.023 10.5979 12.0081 10.7083 11.9252C10.691 11.8741 10.6782 11.8201 10.6492 11.7719C10.6097 11.7853 10.5778 11.7994 10.5444 11.8069ZM12.8374 11.7203C12.7515 11.6269 12.7485 11.4615 12.8313 11.3652C12.9677 11.2068 13.1285 11.2496 13.2904 11.3343C13.3217 11.2849 13.3513 11.2389 13.3801 11.1937C13.2858 11.0638 12.9192 11.0234 12.7217 11.1895C12.5282 11.3523 12.5114 11.6768 12.6926 11.8605C12.8611 12.0312 13.2241 12.0473 13.3816 11.8865C13.3523 11.84 13.3222 11.7921 13.2906 11.742C13.1311 11.8269 12.9743 11.8692 12.8374 11.7203ZM12.136 11.1876C12.1181 11.1572 12.1388 11.129 12.1161 11.1049C12.058 11.0995 11.9976 11.1005 11.9321 11.1046V11.9726C11.9991 11.9772 12.0608 11.9782 12.1283 11.9716V11.5106C12.1283 11.4734 12.1281 11.4364 12.1377 11.4002C12.1622 11.3085 12.2247 11.2613 12.3241 11.2635C12.3641 11.2645 12.4041 11.2718 12.449 11.2769C12.4686 11.2199 12.488 11.1637 12.5091 11.1027C12.3608 11.0603 12.2356 11.0713 12.136 11.1876ZM14.898 11.1886C14.8814 11.1572 14.8985 11.1321 14.8801 11.1061H14.6971V11.9736C14.7644 11.975 14.8261 11.9809 14.8921 11.9694V11.5196C14.8921 11.4785 14.8926 11.4379 14.9033 11.3975C14.9268 11.3092 14.9895 11.2627 15.0851 11.2627C15.1261 11.2627 15.1654 11.2732 15.2123 11.2793C15.2324 11.2216 15.252 11.1657 15.2739 11.1034C15.1258 11.0601 14.9989 11.0703 14.898 11.1886ZM16.7457 11.9164C16.7457 11.8984 16.7255 11.8923 16.6975 11.8923H16.6544V11.9775H16.6725V11.9417H16.6967L16.7291 11.9775H16.7498L16.7151 11.9405C16.7334 11.9376 16.7457 11.9298 16.7457 11.9164ZM16.695 11.9327H16.6725V11.9016H16.695C16.7159 11.9016 16.7273 11.9055 16.7273 11.9164C16.7276 11.9274 16.7159 11.9327 16.695 11.9327Z" fill="black"/>
</svg>