<svg xmlns="http://www.w3.org/2000/svg" width="17" height="17" viewBox="0 0 17 17" fill="none">
  <path d="M14.626 7.34453H8.62781V9.80986H12.0544C11.9066 10.6067 11.4584 11.2808 10.7827 11.7323C10.2116 12.1142 9.48279 12.3399 8.62615 12.3399C6.96765 12.3399 5.56482 11.2193 5.06345 9.71357C4.93728 9.33174 4.86423 8.92334 4.86423 8.50332C4.86423 8.0833 4.93728 7.6749 5.06345 7.29307C5.56648 5.78896 6.96931 4.66836 8.62781 4.66836C9.56247 4.66836 10.4009 4.99043 11.0616 5.62129L12.8878 3.79346C11.7838 2.76416 10.3444 2.1333 8.62781 2.1333C6.13923 2.1333 3.98601 3.56104 2.93845 5.64287C2.50681 6.50283 2.26111 7.47568 2.26111 8.50498C2.26111 9.53428 2.50681 10.5055 2.93845 11.3654C3.98601 13.4473 6.13923 14.875 8.62781 14.875C10.3477 14.875 11.7887 14.3039 12.8413 13.3311C14.0449 12.2221 14.7405 10.5885 14.7405 8.64775C14.7405 8.19619 14.7007 7.76289 14.626 7.34453Z" fill="#1296DB"/>
  <mask id="mask0_1_8000" style="mask-type:alpha" maskUnits="userSpaceOnUse" x="2" y="2" width="13" height="13">
    <path d="M14.626 7.34453H8.62781V9.80986H12.0544C11.9066 10.6067 11.4584 11.2808 10.7827 11.7323C10.2116 12.1142 9.48279 12.3399 8.62615 12.3399C6.96765 12.3399 5.56482 11.2193 5.06345 9.71357C4.93728 9.33174 4.86423 8.92334 4.86423 8.50332C4.86423 8.0833 4.93728 7.6749 5.06345 7.29307C5.56648 5.78896 6.96931 4.66836 8.62781 4.66836C9.56248 4.66836 10.4009 4.99043 11.0616 5.62129L12.8878 3.79346C11.7838 2.76416 10.3444 2.1333 8.62781 2.1333C6.13923 2.1333 3.98601 3.56104 2.93845 5.64287C2.50681 6.50283 2.26111 7.47568 2.26111 8.50498C2.26111 9.53428 2.50681 10.5055 2.93845 11.3654C3.98601 13.4473 6.13923 14.875 8.62781 14.875C10.3477 14.875 11.7887 14.3039 12.8413 13.3311C14.0449 12.2221 14.7405 10.5885 14.7405 8.64775C14.7405 8.19619 14.7007 7.76289 14.626 7.34453Z" fill="#1296DB"/>
  </mask>
  <g mask="url(#mask0_1_8000)">
    <path d="M11.9 15.3L10.2 12.325L5.73751 9.77499L2.33751 10.625L1.48751 11.6875C1.13334 12.1125 0.80751 13.43 2.33751 15.3C3.86751 17.17 9.35001 16.0792 11.9 15.3Z" fill="#11A80E"/>
    <path d="M3.4 4.88751L5.525 6.37501L5.7375 9.77501L2.3375 10.625L0 6.37501L3.4 4.88751Z" fill="#E8AB0E"/>
    <path d="M3.4 4.88757L5.525 6.37507L5.95001 6.5875L8.92501 5.3125C9.63335 5.59583 11.22 6.0775 11.9 5.7375C14.45 4.25 13.3875 4.0375 12.9625 3.40007C11.2625 0.425071 5.7375 2.12507 4.4625 2.33757C3.4425 2.50757 3.32917 4.1084 3.4 4.88757Z" fill="#E60808"/>
  </g>
</svg>