<svg xmlns="http://www.w3.org/2000/svg" width="14" height="14" viewBox="0 0 14 14" fill="none">
  <g clip-path="url(#clip0_1_7998)">
    <path d="M11.438 9.24002C11.8207 9.78135 12.2594 10.1313 12.754 10.29C12.5394 10.9527 12.1987 11.6433 11.732 12.362C11.0134 13.4447 10.304 13.986 9.60402 13.986C9.34268 13.986 8.95535 13.8973 8.44202 13.72C7.96602 13.5427 7.55068 13.454 7.19602 13.454C6.84135 13.454 6.44935 13.5473 6.02002 13.734C5.57202 13.9113 5.20335 14 4.91402 14C4.07402 14 3.24802 13.286 2.43602 11.858C1.62402 10.4487 1.21802 9.06268 1.21802 7.70002C1.21802 6.44002 1.52602 5.40868 2.14202 4.60601C2.77668 3.80335 3.56068 3.40201 4.49402 3.40201C4.69935 3.40201 4.92802 3.42768 5.18002 3.47901C5.43202 3.53035 5.69335 3.62601 5.96402 3.76601C6.25335 3.92468 6.49135 4.03435 6.67802 4.09501C6.86468 4.15568 7.00935 4.18601 7.11202 4.18601C7.23335 4.18601 7.42002 4.15801 7.67202 4.10202C7.92402 4.04601 8.17602 3.94335 8.42802 3.79401C8.69868 3.64468 8.93202 3.53268 9.12802 3.45801C9.32402 3.38335 9.52468 3.34601 9.73002 3.34601C10.3834 3.34601 10.9714 3.52335 11.494 3.87801C11.774 4.06468 12.0587 4.34001 12.348 4.70401C11.9187 5.07735 11.606 5.40401 11.41 5.68401C11.046 6.20668 10.864 6.77602 10.864 7.39201C10.864 8.07335 11.0554 8.68935 11.438 9.24002ZM8.62402 2.70201C8.29735 3.01002 7.99868 3.21068 7.72802 3.30401C7.63468 3.33202 7.51568 3.35768 7.37102 3.38102C7.22635 3.40435 7.06068 3.42535 6.87402 3.44402C6.88335 2.62268 7.09802 1.91335 7.51802 1.31601C7.93802 0.718682 8.62868 0.308015 9.59002 0.0840149C9.60868 0.177348 9.62268 0.242682 9.63202 0.280015V0.434015C9.63202 0.770015 9.55268 1.14802 9.39402 1.56801C9.22602 1.97868 8.96935 2.35668 8.62402 2.70201Z" fill="#ffffff"/>
  </g>
  <defs>
    <clipPath id="clip0_1_7998">
      <rect width="14" height="14" fill="white"/>
    </clipPath>
  </defs>
</svg>