<svg xmlns="http://www.w3.org/2000/svg" width="22" height="14" viewBox="0 0 22 14" fill="none">
  <path d="M18.4462 7.85682H17.1574C17.2443 7.63204 17.4499 7.08838 17.7743 6.22582L17.8018 6.14416C17.8265 6.08349 17.8576 6.00454 17.895 5.90732C17.9325 5.8101 17.9604 5.73116 17.9787 5.67049L18.0911 6.17216L18.4462 7.85682ZM4.95882 7.26532L4.41727 4.57616C4.34873 4.24793 4.11522 4.08382 3.71673 4.08382H1.21341L1.19428 4.20282C3.13094 4.68271 4.38539 5.70354 4.95763 7.26532H4.95882ZM6.63129 4.08382L5.11782 8.07616L4.95882 7.26532C4.79704 6.83988 4.53244 6.44632 4.16503 6.08466C3.79762 5.72299 3.38996 5.45427 2.94206 5.27849L4.20328 9.92649H5.8375L8.27507 4.08382H6.63129ZM7.92957 9.93582H9.4801L10.452 4.08382H8.90149L7.92957 9.93582ZM15.1024 4.22966C14.6728 4.06554 14.209 3.98349 13.7109 3.98349C12.945 3.98349 12.3194 4.16277 11.834 4.52132C11.3486 4.87988 11.1028 5.3446 11.0964 5.91549C11.09 6.53538 11.5415 7.06388 12.4509 7.50099C12.7497 7.64099 12.9581 7.76543 13.0761 7.87432C13.194 7.98321 13.253 8.10182 13.253 8.23015C13.253 8.41216 13.1598 8.55177 12.9733 8.64899C12.7868 8.74621 12.572 8.79482 12.3289 8.79482C11.7933 8.79482 11.3076 8.69449 10.8716 8.49382L10.666 8.39349L10.4508 9.70599C10.9115 9.91288 11.4873 10.0163 12.1783 10.0163C12.988 10.0225 13.6372 9.84327 14.1257 9.47849C14.6143 9.11371 14.8649 8.6276 14.8777 8.02016C14.8777 7.37616 14.4417 6.84766 13.5698 6.43466C13.2646 6.28299 13.0434 6.15543 12.9063 6.05199C12.7692 5.94854 12.7007 5.83304 12.7007 5.70549C12.7007 5.57171 12.7768 5.45466 12.929 5.35432C13.0813 5.25399 13.3008 5.20382 13.5877 5.20382C14.0237 5.1976 14.4098 5.27032 14.7462 5.42199L14.886 5.49432L15.1024 4.22966ZM19.0714 4.08382H17.8759C17.471 4.08382 17.2001 4.24793 17.063 4.57616L14.7653 9.93582H16.3899L16.7163 9.06082H18.696C18.7271 9.1946 18.7893 9.48627 18.8825 9.93582H20.3207L19.0714 4.08382ZM21.5185 1.16716V12.8338C21.5185 13.1496 21.4002 13.423 21.1635 13.654C20.9268 13.885 20.6466 14.0005 20.323 14.0005H1.19547C0.871899 14.0005 0.591759 13.885 0.355056 13.654C0.118352 13.423 0 13.1496 0 12.8338V1.16716C0 0.851377 0.118352 0.577988 0.355056 0.346988C0.591759 0.115988 0.871899 0.000488281 1.19547 0.000488281H20.323C20.6466 0.000488281 20.9268 0.115988 21.1635 0.346988C21.4002 0.577988 21.5185 0.851377 21.5185 1.16716Z" fill="url(#paint0_linear_1_7989)"/>
  <defs>
    <linearGradient id="paint0_linear_1_7989" x1="0" y1="7.00049" x2="21.5185" y2="7.00049" gradientUnits="userSpaceOnUse">
      <stop stop-color="#ffffff"/>
      <stop offset="1" stop-color="#ffffff"/>
    </linearGradient>
  </defs>
</svg>