<svg xmlns="http://www.w3.org/2000/svg" width="24" height="24" viewBox="0 0 24 24" fill="none">
  <path d="M12 6.93359C9.22451 6.93359 6.93359 9.22451 6.93359 12C6.93359 14.7756 9.22451 17.0665 12 17.0665C14.7756 17.0665 17.0665 14.7756 17.0665 12C17.0665 9.22451 14.7756 6.93359 12 6.93359ZM12 15.7448C9.92941 15.7448 8.25528 14.0707 8.25528 12C8.25528 9.92941 9.92941 8.25528 12 8.25528C14.0707 8.25528 15.7448 9.92941 15.7448 12C15.7448 14.0707 14.0707 15.7448 12 15.7448Z" fill="#ffffff"/>
  <path d="M21.5162 13.6742C20.9435 13.3217 20.591 12.705 20.591 12.0001C20.591 11.2952 20.9435 10.7224 21.5162 10.3259C21.9127 10.0616 22.0889 9.57698 21.9567 9.09236C21.7365 8.34341 21.4281 7.63851 21.0756 6.97767C20.8553 6.58117 20.3707 6.31683 19.8861 6.449C19.2253 6.58117 18.5644 6.40494 18.0798 5.92033C17.5952 5.43571 17.419 4.77487 17.5511 4.11403C17.6392 3.67347 17.419 3.18885 17.0225 2.92451C16.3616 2.52801 15.6127 2.26367 14.9078 2.04339C14.4672 1.91122 13.9385 2.08745 13.6742 2.48395C13.3217 3.05668 12.705 3.40913 12.0001 3.40913C11.2952 3.40913 10.7224 3.05668 10.3259 2.48395C10.0616 2.08745 9.57698 1.91122 9.09237 2.04339C8.34341 2.26367 7.63851 2.57207 6.97767 2.92451C6.58117 3.14479 6.31683 3.62941 6.449 4.11403C6.58117 4.77487 6.40494 5.47977 5.92033 5.92033C5.43571 6.40494 4.77487 6.58117 4.11403 6.449C3.67347 6.36089 3.18885 6.58117 2.92451 6.97767C2.52801 7.63851 2.26367 8.38747 2.04339 9.09236C1.91122 9.53293 2.08745 10.0616 2.48395 10.3259C3.05668 10.6784 3.40913 11.2952 3.40913 12.0001C3.40913 12.705 3.05668 13.2777 2.48395 13.6742C2.08745 13.9385 1.91122 14.4232 2.04339 14.9078C2.26367 15.6567 2.57207 16.3616 2.92451 17.0225C3.14479 17.419 3.62941 17.6392 4.11403 17.5511C4.77487 17.419 5.47977 17.5952 5.92033 18.0798C6.40494 18.5644 6.58117 19.2253 6.449 19.8861C6.36089 20.3267 6.58117 20.8113 6.97767 21.0756C7.63851 21.4721 8.38747 21.7365 9.09237 21.9567C9.53293 22.0889 10.0616 21.9127 10.3259 21.5162C10.6784 20.9434 11.2952 20.591 12.0001 20.591C12.705 20.591 13.2777 20.9434 13.6742 21.5162C13.8945 21.8246 14.2469 22.0008 14.5994 22.0008C14.6875 22.0008 14.8197 22.0008 14.9078 21.9567C15.6567 21.7365 16.3616 21.4281 17.0225 21.0756C17.419 20.8553 17.6833 20.3707 17.5511 19.8861C17.419 19.2253 17.5952 18.5204 18.0798 18.0798C18.5644 17.5952 19.2253 17.419 19.8861 17.5511C20.3267 17.6392 20.8113 17.419 21.0756 17.0225C21.4721 16.3616 21.7365 15.6127 21.9567 14.9078C22.0889 14.4232 21.9127 13.9385 21.5162 13.6742ZM19.9742 16.2294C18.9169 16.0532 17.8595 16.4057 17.1106 17.1546C16.3616 17.9036 16.0092 18.9609 16.1854 20.0183C15.7008 20.2826 15.1721 20.5029 14.6434 20.6791C14.0266 19.842 13.0574 19.3134 11.956 19.3134C10.8987 19.3134 9.92943 19.798 9.26859 20.6791C8.73992 20.5029 8.21124 20.2826 7.72663 20.0183C7.90285 18.9609 7.5504 17.9036 6.80145 17.1546C6.0525 16.4057 4.99515 16.0532 3.9378 16.2294C3.67347 15.7448 3.45319 15.2162 3.27696 14.6875C4.11403 14.0707 4.6427 13.1015 4.6427 12.0001C4.6427 10.9427 4.15808 9.97349 3.27696 9.31265C3.45319 8.78397 3.67347 8.2553 3.9378 7.77068C4.99515 7.94691 6.0525 7.59446 6.80145 6.8455C7.5504 6.09655 7.90285 5.03921 7.72663 3.98186C8.21124 3.71752 8.73992 3.49724 9.26859 3.32102C9.88538 4.15808 10.8546 4.68676 11.956 4.68676C13.0134 4.68676 13.9826 4.20214 14.6434 3.32102C15.1721 3.49724 15.7008 3.71752 16.1854 3.98186C16.0092 5.03921 16.3616 6.09655 17.1106 6.8455C17.8595 7.59446 18.9169 7.94691 19.9742 7.77068C20.2386 8.2553 20.4588 8.78397 20.6351 9.31265C19.798 9.92943 19.2693 10.8987 19.2693 12.0001C19.2693 13.0574 19.7539 14.0266 20.6351 14.6875C20.4588 15.2162 20.2386 15.7448 19.9742 16.2294Z" fill="#ffffff"/>
</svg>