<svg xmlns="http://www.w3.org/2000/svg" width="16" height="16" viewBox="0 0 16 16" fill="none">
  <path d="M7.98911 1.00159C4.12192 1.00159 0.987549 4.13596 0.987549 8.00315C0.987549 11.8703 4.12192 15.0047 7.98911 15.0047C11.8563 15.0047 14.9907 11.8703 14.9907 8.00315C14.9922 4.13596 11.8563 1.00159 7.98911 1.00159ZM7.98911 13.6813C4.85317 13.6813 2.31099 11.1391 2.31099 8.00315C2.31099 4.86721 4.85317 2.32502 7.98911 2.32502C11.125 2.32502 13.6672 4.86721 13.6672 8.00315C13.6672 11.1391 11.125 13.6813 7.98911 13.6813Z" fill="#ffffff"/>
  <path d="M7.19531 10.4125H8.78281V11.9172H7.19531V10.4125ZM8.59375 9.58436H7.35469L7.13281 4.08905H8.84688L8.59375 9.58436Z" fill="#ffffff"/>
</svg>