<svg xmlns="http://www.w3.org/2000/svg" width="12" height="12" viewBox="0 0 12 12" fill="none">
  <g clip-path="url(#clip0_255_81760)">
    <path d="M8.76669 10.1671C8.82108 10.2194 8.86436 10.2822 8.89392 10.3516C8.92348 10.421 8.93872 10.4957 8.93872 10.5712C8.93872 10.6466 8.92348 10.7213 8.89392 10.7908C8.86436 10.8602 8.82108 10.9229 8.76669 10.9752C8.65498 11.0828 8.50594 11.1429 8.35086 11.1429C8.19579 11.1429 8.04675 11.0828 7.93504 10.9752L3.23314 6.40411C3.17875 6.35181 3.13547 6.28906 3.10591 6.21963C3.07635 6.15019 3.06111 6.07551 3.06111 6.00005C3.06111 5.92458 3.07635 5.8499 3.10591 5.78046C3.13547 5.71103 3.17875 5.64828 3.23314 5.59598L7.93503 1.02483C8.04674 0.91727 8.19578 0.857178 8.35085 0.857178C8.50593 0.857178 8.65497 0.91727 8.76668 1.02483C8.82107 1.07714 8.86435 1.13989 8.89391 1.20932C8.92347 1.27875 8.93871 1.35344 8.93871 1.4289C8.93871 1.50437 8.92347 1.57906 8.89391 1.64849C8.86435 1.71792 8.82107 1.78067 8.76668 1.83298L4.47913 6.00005L8.76596 10.1671H8.76669Z" fill="black"/>
  </g>
  <defs>
    <clipPath id="clip0_255_81760">
      <rect width="10.2857" height="10.2857" fill="white" transform="matrix(-1 0 0 1 11.1428 0.857178)"/>
    </clipPath>
  </defs>
</svg>