<svg xmlns="http://www.w3.org/2000/svg" width="30" height="24" viewBox="0 0 30 24" fill="none">
  <path d="M25.4124 2.01035C23.4446 1.05875 21.3631 0.38269 19.2229 0C18.9311 0.550588 18.6666 1.11953 18.4306 1.70118C16.1545 1.33906 13.8382 1.33906 11.5621 1.70118C11.3262 1.12026 11.0613 0.552433 10.7684 0C8.62712 0.385722 6.54452 1.06313 4.57487 2.01459C0.658542 8.13176 -0.402358 14.0979 0.126728 19.9779C2.41347 21.763 4.98198 23.1239 7.71802 24C8.33165 23.1275 8.8771 22.2014 9.34346 21.2329C8.4571 20.8828 7.59939 20.4508 6.78394 19.9426C6.99803 19.7788 7.20803 19.6094 7.41121 19.4442C9.77937 20.6216 12.3727 21.2334 14.9998 21.2344C17.6234 21.2344 20.2143 20.6231 22.5883 19.4442C22.7929 19.6207 23.0029 19.7901 23.2156 19.9426C22.3974 20.4508 21.5397 20.8842 20.652 21.2358C21.117 22.2042 21.6611 23.1275 22.2774 24C25.0156 23.1273 27.5858 21.7672 29.8728 19.9807C30.4946 13.1619 28.8092 7.25082 25.4138 2.00894L25.4124 2.01035ZM10.0171 16.3609C8.5362 16.3609 7.31439 14.9435 7.31439 13.2C7.31439 11.4565 8.49392 10.0278 10.0116 10.0278C11.5293 10.0278 12.7416 11.4565 12.7157 13.2C12.6884 14.9435 11.5239 16.3624 10.0157 16.3624L10.0171 16.3609ZM19.9838 16.3609C18.5016 16.3609 17.2838 14.9435 17.2838 13.2C17.2838 11.4565 18.4634 10.0278 19.9838 10.0278C21.5029 10.0278 22.7056 11.4565 22.6797 13.2C22.6538 14.9435 21.4906 16.3624 19.9825 16.3624L19.9838 16.3609Z" fill="white"/>
</svg>