<svg xmlns="http://www.w3.org/2000/svg" width="44" height="44" viewBox="0 0 44 44" fill="none">
<rect width="44" height="44" rx="8" fill="white" fill-opacity="0.15"/>
<path d="M32.372 10.2891C32.4593 10.1986 32.5638 10.1265 32.6794 10.0769C32.7949 10.0273 32.9191 10.0011 33.0449 10C33.1706 9.99894 33.2953 10.0229 33.4117 10.0705C33.528 10.1181 33.6337 10.1884 33.7227 10.2773C33.8116 10.3663 33.8819 10.472 33.9295 10.5883C33.9771 10.7047 34.0011 10.8294 34 10.9551C33.9989 11.0809 33.9727 11.2051 33.9231 11.3206C33.8735 11.4362 33.8014 11.5407 33.7109 11.628L20.3207 25.0186C20.1431 25.1962 19.9022 25.2959 19.6511 25.2959C19.3999 25.2959 19.159 25.1962 18.9814 25.0186C18.8038 24.841 18.7041 24.6001 18.7041 24.3489C18.7041 24.0978 18.8038 23.8569 18.9814 23.6793L32.372 10.2894V10.2891ZM32.0945 20.112C32.0945 19.8609 32.1943 19.62 32.3719 19.4424C32.5495 19.2649 32.7903 19.1651 33.0415 19.1651C33.2926 19.1651 33.5334 19.2649 33.711 19.4424C33.8886 19.62 33.9884 19.8609 33.9884 20.112V30.528C33.9884 32.4455 32.4339 34 30.5164 34H13.472C11.5545 34 10 32.4455 10 30.528V13.4836C10 11.5661 11.5545 10.0116 13.472 10.0116H23.5724C23.8235 10.0116 24.0644 10.1114 24.2419 10.289C24.4195 10.4666 24.5193 10.7074 24.5193 10.9585C24.5193 11.2097 24.4195 11.4505 24.2419 11.6281C24.0644 11.8057 23.8235 11.9055 23.5724 11.9055H13.472C13.0534 11.9055 12.652 12.0717 12.3561 12.3677C12.0601 12.6637 11.8938 13.0651 11.8938 13.4836V30.528C11.8938 30.9466 12.0601 31.348 12.3561 31.6439C12.652 31.9399 13.0534 32.1062 13.472 32.1062H30.5164C30.9349 32.1062 31.3363 31.9399 31.6323 31.6439C31.9283 31.348 32.0945 30.9466 32.0945 30.528V20.112Z" fill="white"/>
</svg>