<svg width="24" height="24" viewBox="0 0 24 24" fill="none" xmlns="http://www.w3.org/2000/svg">
<path d="M22.372 0.28908C22.4593 0.198641 22.5638 0.126503 22.6794 0.0768766C22.7949 0.02725 22.9191 0.00112831 23.0449 3.57522e-05C23.1706 -0.00105681 23.2953 0.0229016 23.4117 0.0705131C23.528 0.118124 23.6337 0.188435 23.7227 0.277343C23.8116 0.366251 23.8819 0.471975 23.9295 0.588347C23.9771 0.704719 24.0011 0.829407 24 0.955137C23.9989 1.08087 23.9727 1.20512 23.9231 1.32065C23.8735 1.43617 23.8014 1.54066 23.7109 1.62801L10.3207 15.0186C10.1431 15.1962 9.90221 15.2959 9.65106 15.2959C9.3999 15.2959 9.15903 15.1962 8.98143 15.0186C8.80384 14.841 8.70407 14.6001 8.70407 14.3489C8.70407 14.0978 8.80384 13.8569 8.98143 13.6793L22.372 0.289396V0.28908ZM22.0945 10.112C22.0945 9.86086 22.1943 9.62001 22.3719 9.44243C22.5495 9.26485 22.7903 9.16509 23.0415 9.16509C23.2926 9.16509 23.5334 9.26485 23.711 9.44243C23.8886 9.62001 23.9884 9.86086 23.9884 10.112V20.528C23.9884 22.4455 22.4339 24 20.5164 24H3.472C1.55451 24 0 22.4455 0 20.528V3.48364C0 1.56614 1.55451 0.0116358 3.472 0.0116358H13.5724C13.8235 0.0116358 14.0644 0.111399 14.2419 0.288979C14.4195 0.466559 14.5193 0.707409 14.5193 0.958545C14.5193 1.20968 14.4195 1.45053 14.2419 1.62811C14.0644 1.80569 13.8235 1.90545 13.5724 1.90545H3.472C3.05344 1.90545 2.65202 2.07173 2.35606 2.36769C2.06009 2.66366 1.89382 3.06508 1.89382 3.48364V20.528C1.89382 20.9466 2.06009 21.348 2.35606 21.6439C2.65202 21.9399 3.05344 22.1062 3.472 22.1062H20.5164C20.9349 22.1062 21.3363 21.9399 21.6323 21.6439C21.9283 21.348 22.0945 20.9466 22.0945 20.528V10.112Z" fill="white"/>
</svg>
