<svg xmlns="http://www.w3.org/2000/svg" width="16" height="16" viewBox="0 0 16 16" fill="none"><script xmlns=""/><script xmlns="" id="argent-x-extension" data-extension-id="dlcobpjiigpikoobohmabehhmhfoodbb"/><script xmlns=""/>
<g id="编组">
<path id="Union" fill-rule="evenodd" clip-rule="evenodd" d="M8 16C3.58182 16 0 12.4182 0 8C0 3.58182 3.58182 0 8 0C12.4182 0 16 3.58182 16 8C16 12.4182 12.4182 16 8 16ZM8.00006 14.9524C11.8401 14.9524 14.9524 11.8397 14.9524 8.00006C14.9524 4.16006 11.8397 1.0477 8.00006 1.0477C4.16006 1.0477 1.0477 4.16042 1.0477 8.00006C1.0477 11.8401 4.16042 14.9524 8.00006 14.9524ZM7.58871 9.98461C8.04815 9.98461 8.42087 9.65548 8.42087 9.24948V4.10318C8.42087 3.69754 8.0486 3.36841 7.58871 3.36841C7.12928 3.36841 6.75655 3.69754 6.75655 4.10318V9.24948C6.75655 9.65548 7.12882 9.98461 7.58871 9.98461ZM7.58887 11.3079C7.28685 11.3023 7.00471 11.4272 6.85163 11.6342C6.69855 11.8413 6.69855 12.098 6.85163 12.305C7.00471 12.5121 7.28685 12.6369 7.58887 12.6313C8.04101 12.6229 8.40204 12.3292 8.40204 11.9696C8.40204 11.6101 8.04101 11.3163 7.58887 11.3079Z" fill="#F51010"/>
</g>
</svg>