<svg xmlns="http://www.w3.org/2000/svg" width="14" height="14" viewBox="0 0 14 14" fill="none">
<g id="Frame">
<path id="Vector" d="M12.1429 0H10.8571C10.8 0.000126984 10.7435 0.0123767 10.6913 0.03597C10.6391 0.0595633 10.5923 0.0939841 10.5539 0.137044C10.4723 0.226616 10.4273 0.344644 10.4283 0.466943C10.4283 0.586856 10.4699 0.705112 10.5539 0.796842C10.5924 0.839802 10.6392 0.874119 10.6914 0.897616C10.7436 0.921114 10.8 0.933276 10.8571 0.933333H12.1429V2.33361C12.1429 2.45352 12.1841 2.57123 12.2685 2.66351C12.3071 2.7063 12.3539 2.74046 12.406 2.76382C12.4582 2.78719 12.5145 2.79925 12.5715 2.79925C12.6284 2.79925 12.6847 2.78719 12.7369 2.76382C12.789 2.74046 12.8358 2.7063 12.8744 2.66351C12.956 2.57394 13.0009 2.45591 13 2.33361V0.933333C13 0.418315 12.6156 0 12.1429 0ZM12.5712 6.99972C12.5149 6.99944 12.4591 7.01058 12.407 7.0325C12.355 7.05441 12.3077 7.08666 12.268 7.12737C12.2281 7.16793 12.1965 7.21617 12.175 7.26929C12.1536 7.32241 12.1426 7.37936 12.1429 7.43683V8.74924H10.8571C10.8007 8.74903 10.7449 8.76026 10.6928 8.78227C10.6408 8.80428 10.5936 8.83663 10.5539 8.87744C10.5311 8.90065 10.5187 8.93049 10.5019 8.95867C10.0184 8.48344 9.47482 8.09331 8.8733 7.83359C10.0947 7.08869 10.8679 5.65636 10.6307 4.04666C10.4071 2.53641 9.25933 1.27373 7.79426 0.961516C7.53308 0.905384 7.2669 0.877051 7 0.876969C6.51754 0.876824 6.03979 0.973704 5.59403 1.16208C5.14828 1.35045 4.74325 1.62662 4.40211 1.97481C4.06096 2.323 3.79038 2.73638 3.60582 3.19134C3.42126 3.6463 3.32633 4.13391 3.32648 4.62633C3.32648 5.99511 4.0536 7.18097 5.12615 7.83525C4.52626 8.09497 3.98159 8.4851 3.49757 8.96033C3.48132 8.93215 3.46887 8.90231 3.44559 8.8791C3.4059 8.83829 3.35866 8.80593 3.3066 8.78393C3.25455 8.76192 3.19874 8.75069 3.14239 8.7509H1.85707V7.43849C1.85727 7.38098 1.84627 7.32401 1.82471 7.27088C1.80315 7.21776 1.77145 7.16954 1.73146 7.12903C1.69177 7.08822 1.64453 7.05587 1.59248 7.03386C1.54043 7.01185 1.48461 7.00062 1.42827 7.00083C1.37193 7.00062 1.31611 7.01185 1.26406 7.03386C1.21201 7.05587 1.16476 7.08822 1.12507 7.12903C1.08518 7.16959 1.05358 7.21783 1.03211 7.27095C1.01064 7.32407 0.99973 7.38102 1.00001 7.43849V8.7509C1.00001 9.23331 1.38441 9.62566 1.85707 9.62566H2.91283C2.19654 10.5723 1.69952 11.7581 1.54305 13.0827C1.48512 13.5701 1.86627 14 2.34651 14H11.6529C12.1337 14 12.5133 13.569 12.4564 13.0827C12.3005 11.7565 11.8029 10.5706 11.0866 9.624H12.1424C12.6156 9.624 13 9.23166 13 8.74924V7.43628C13.0002 7.37877 12.9892 7.3218 12.9676 7.26867C12.9461 7.21555 12.9144 7.16733 12.8744 7.12682C12.8346 7.08611 12.7874 7.05386 12.7353 7.03194C12.6833 7.01003 12.6275 6.99889 12.5712 6.99917V6.99972ZM1.42935 2.8C1.48631 2.79987 1.54261 2.78767 1.59471 2.76417C1.64681 2.74068 1.69356 2.7064 1.732 2.66351C1.81359 2.57394 1.85853 2.45591 1.85761 2.33361V0.933333H3.14348C3.20053 0.933276 3.25694 0.921114 3.30913 0.897616C3.36133 0.874119 3.40817 0.839802 3.44667 0.796842C3.52807 0.707185 3.57281 0.589166 3.57174 0.466943C3.57266 0.344644 3.52772 0.226616 3.44613 0.137044C3.40767 0.0939841 3.36086 0.0595633 3.30866 0.03597C3.25646 0.0123767 3.20002 0.000126984 3.14294 0H1.85707C1.38387 0 1.00001 0.418314 1.00001 0.933886V2.33361C1.00001 2.45352 1.04115 2.57123 1.12507 2.66351C1.16358 2.70647 1.21042 2.74079 1.26261 2.76428C1.31481 2.78778 1.37122 2.79994 1.42827 2.8H1.42935Z" fill="#7953FF"/>
</g>
</svg>