<svg xmlns="http://www.w3.org/2000/svg" width="20" height="20" viewBox="0 0 20 20" fill="none">
  <path d="M5.23438 8.88672C5.051 8.88673 4.87488 8.8151 4.74356 8.68711L2.39981 6.40195C2.33369 6.3375 2.28091 6.26065 2.24448 6.1758C2.20806 6.09094 2.18871 5.99975 2.18753 5.90741C2.18515 5.72094 2.25694 5.54116 2.38711 5.40762C2.51729 5.27408 2.69518 5.19772 2.88165 5.19534C3.06813 5.19296 3.24791 5.26475 3.38145 5.39492L5.18672 7.15508L9.19063 2.4543C9.24986 2.38198 9.32292 2.32219 9.40553 2.27844C9.48813 2.23469 9.57864 2.20785 9.67174 2.1995C9.76485 2.19114 9.85869 2.20143 9.94777 2.22978C10.0368 2.25812 10.1194 2.30393 10.1905 2.36455C10.2617 2.42517 10.3201 2.49937 10.3622 2.58281C10.4044 2.66625 10.4294 2.75725 10.436 2.8505C10.4425 2.94375 10.4304 3.03737 10.4004 3.12589C10.3703 3.21441 10.3229 3.29604 10.2609 3.36602L5.76875 8.63945C5.70647 8.71283 5.62978 8.77264 5.54343 8.81517C5.45709 8.8577 5.36294 8.88205 5.2668 8.88672H5.23438ZM14.4531 8.90625C12.6008 8.90625 11.0938 7.39922 11.0938 5.54688C11.0938 3.69453 12.6008 2.1875 14.4531 2.1875C16.3055 2.1875 17.8125 3.69453 17.8125 5.54688C17.8125 7.39922 16.3055 8.90625 14.4531 8.90625ZM14.4531 3.59375C14.0668 3.59375 13.6892 3.7083 13.368 3.92291C13.0468 4.13752 12.7965 4.44256 12.6487 4.79945C12.5008 5.15633 12.4622 5.54904 12.5375 5.92791C12.6129 6.30678 12.7989 6.65479 13.0721 6.92794C13.3452 7.20109 13.6932 7.38711 14.0721 7.46247C14.451 7.53783 14.8437 7.49915 15.2006 7.35133C15.5574 7.2035 15.8625 6.95316 16.0771 6.63197C16.2917 6.31078 16.4063 5.93317 16.4063 5.54688C16.4057 5.02905 16.1997 4.53259 15.8336 4.16644C15.4674 3.80028 14.971 3.59432 14.4531 3.59375ZM14.4531 17.8125C12.6008 17.8125 11.0938 16.3055 11.0938 14.4531C11.0938 12.6008 12.6008 11.0938 14.4531 11.0938C16.3055 11.0938 17.8125 12.6008 17.8125 14.4531C17.8125 16.3055 16.3055 17.8125 14.4531 17.8125ZM14.4531 12.5C14.0668 12.5 13.6892 12.6145 13.368 12.8292C13.0468 13.0438 12.7965 13.3488 12.6487 13.7057C12.5008 14.0626 12.4622 14.4553 12.5375 14.8342C12.6129 15.213 12.7989 15.561 13.0721 15.8342C13.3452 16.1073 13.6932 16.2934 14.0721 16.3687C14.451 16.4441 14.8437 16.4054 15.2006 16.2576C15.5574 16.1097 15.8625 15.8594 16.0771 15.5382C16.2917 15.217 16.4063 14.8394 16.4063 14.4531C16.4057 13.9353 16.1997 13.4388 15.8336 13.0727C15.4674 12.7065 14.971 12.5006 14.4531 12.5ZM5.54688 17.8125C3.69454 17.8125 2.1875 16.3055 2.1875 14.4531C2.1875 12.6008 3.69454 11.0938 5.54688 11.0938C7.39922 11.0938 8.90625 12.6008 8.90625 14.4531C8.90625 16.3055 7.39922 17.8125 5.54688 17.8125ZM5.54688 12.5C5.16059 12.5 4.78297 12.6145 4.46178 12.8292C4.14059 13.0438 3.89025 13.3488 3.74243 13.7057C3.5946 14.0626 3.55592 14.4553 3.63128 14.8342C3.70664 15.213 3.89266 15.561 4.16581 15.8342C4.43896 16.1073 4.78697 16.2934 5.16584 16.3687C5.54471 16.4441 5.93742 16.4054 6.29431 16.2576C6.65119 16.1097 6.95623 15.8594 7.17084 15.5382C7.38546 15.217 7.5 14.8394 7.5 14.4531C7.49943 13.9353 7.29348 13.4388 6.92732 13.0727C6.56116 12.7065 6.06471 12.5006 5.54688 12.5Z" fill="white"/>
</svg>