<svg xmlns="http://www.w3.org/2000/svg" width="24" height="24" viewBox="0 0 24 24" fill="none">
  <path d="M5.24913 14.2475C4.00741 14.2475 2.99951 13.2396 2.99951 11.9979C2.99951 10.7562 4.00741 9.74829 5.24913 9.74829C6.49086 9.74829 7.49876 10.7562 7.49876 11.9979C7.49876 13.2396 6.49086 14.2475 5.24913 14.2475Z" fill="white"/>
  <path d="M11.998 14.2475C10.7562 14.2475 9.74835 13.2396 9.74835 11.9979C9.74835 10.7562 10.7562 9.74829 11.998 9.74829C13.2397 9.74829 14.2476 10.7562 14.2476 11.9979C14.2476 13.2396 13.2397 14.2475 11.998 14.2475Z" fill="white"/>
  <path d="M18.7509 14.2475C17.5092 14.2475 16.5013 13.2396 16.5013 11.9979C16.5013 10.7562 17.5092 9.74829 18.7509 9.74829C19.9926 9.74829 21.0005 10.7562 21.0005 11.9979C21.0005 13.2396 19.9886 14.2475 18.7509 14.2475Z" fill="white"/>
</svg>