<svg xmlns="http://www.w3.org/2000/svg" width="29" height="24" viewBox="0 0 29 24" fill="none">
  <path fill-rule="evenodd" clip-rule="evenodd" d="M2.01173 10.2862C9.84955 6.89889 15.0548 4.66141 17.6874 3.57375C25.1363 0.466141 26.1833 0.0310761 27.1705 0C27.3799 0 27.9483 0.0932283 28.3671 0.466141C28.786 0.839054 28.9056 1.08766 28.9655 1.27412C29.0253 1.46058 28.9954 2.14425 28.9655 2.48609C28.5466 6.71243 27.021 16.4703 26.1235 21.225C25.7346 23.2449 24.9867 23.9286 24.2687 23.9907C22.7131 24.115 21.5464 22.9652 20.0208 21.9708C17.6575 20.417 16.8797 19.8576 14.5762 18.3349C11.9436 16.5946 13.0206 16.0042 14.5463 14.4504C14.9352 14.0464 21.4866 7.83117 21.5764 7.2718C21.6661 6.77458 21.696 6.71243 21.4866 6.4949C21.2473 6.24629 21.008 6.27737 20.8285 6.30844C20.5892 6.3706 16.9993 8.73238 9.99913 13.4249C8.92218 14.1707 7.96489 14.5125 7.09734 14.5125C6.14005 14.4815 4.2853 13.9842 2.90919 13.5181C1.23393 12.9587 -0.112256 12.679 0.0074054 11.7468C0.0672361 11.2806 0.755289 10.7834 2.01173 10.2862Z" fill="white"/>
</svg>