<svg xmlns="http://www.w3.org/2000/svg" width="22" height="24" viewBox="0 0 22 24" fill="none">
<path d="M9.28578 13.7143H12.7144C14.9876 13.7143 17.1678 14.6173 18.7753 16.2248C20.3827 17.8323 21.2858 20.0124 21.2858 22.2857C21.2858 22.7404 21.1052 23.1764 20.7837 23.4979C20.4622 23.8194 20.0262 24 19.5715 24H2.42864C1.97398 24 1.53795 23.8194 1.21646 23.4979C0.894967 23.1764 0.714355 22.7404 0.714355 22.2857C0.714355 20.0124 1.61741 17.8323 3.22487 16.2248C4.83232 14.6173 7.0125 13.7143 9.28578 13.7143ZM11.0001 12C9.40877 12 7.88265 11.3679 6.75743 10.2426C5.63221 9.11742 5.00007 7.5913 5.00007 6C5.00007 4.4087 5.63221 2.88258 6.75743 1.75736C7.88265 0.632141 9.40877 0 11.0001 0C12.5914 0 14.1175 0.632141 15.2427 1.75736C16.3679 2.88258 17.0001 4.4087 17.0001 6C17.0001 7.5913 16.3679 9.11742 15.2427 10.2426C14.1175 11.3679 12.5914 12 11.0001 12Z" fill="white"/>
</svg>