<svg xmlns="http://www.w3.org/2000/svg" width="24" height="24" viewBox="0 0 24 24" fill="none">
  <path d="M10.2858 13.7143H13.7144C15.9876 13.7143 18.1678 14.6173 19.7753 16.2248C21.3827 17.8323 22.2858 20.0124 22.2858 22.2857C22.2858 22.7404 22.1052 23.1764 21.7837 23.4979C21.4622 23.8194 21.0262 24 20.5715 24H3.42864C2.97398 24 2.53795 23.8194 2.21646 23.4979C1.89497 23.1764 1.71436 22.7404 1.71436 22.2857C1.71436 20.0124 2.61741 17.8323 4.22487 16.2248C5.83232 14.6173 8.0125 13.7143 10.2858 13.7143ZM12.0001 12C10.4088 12 8.88265 11.3679 7.75743 10.2426C6.63221 9.11742 6.00007 7.5913 6.00007 6C6.00007 4.4087 6.63221 2.88258 7.75743 1.75736C8.88265 0.632141 10.4088 0 12.0001 0C13.5914 0 15.1175 0.632141 16.2427 1.75736C17.3679 2.88258 18.0001 4.4087 18.0001 6C18.0001 7.5913 17.3679 9.11742 16.2427 10.2426C15.1175 11.3679 13.5914 12 12.0001 12Z" fill="white"/>
</svg>