<svg xmlns="http://www.w3.org/2000/svg" width="16" height="16" viewBox="0 0 16 16" fill="none">
  <path d="M8 0C3.58179 0 0 3.58179 0 8C0 12.4182 3.58179 16 8 16C12.4182 16 16 12.4182 16 8C16 3.58179 12.4182 0 8 0ZM8 13.4286C7.87286 13.4286 7.74857 13.3909 7.64285 13.3202C7.53713 13.2496 7.45473 13.1492 7.40608 13.0317C7.35742 12.9143 7.34469 12.785 7.3695 12.6603C7.3943 12.5356 7.45553 12.4211 7.54543 12.3311C7.63534 12.2412 7.74988 12.18 7.87459 12.1552C7.99929 12.1304 8.12854 12.1431 8.24601 12.1918C8.36348 12.2404 8.46388 12.3228 8.53452 12.4286C8.60515 12.5343 8.64286 12.6586 8.64286 12.7857C8.64286 12.9562 8.57513 13.1197 8.45457 13.2403C8.33401 13.3608 8.1705 13.4286 8 13.4286ZM8.92554 3.57232L8.64286 10.2143C8.64286 10.3848 8.57513 10.5483 8.45457 10.6689C8.33401 10.7894 8.1705 10.8571 8 10.8571C7.8295 10.8571 7.66599 10.7894 7.54543 10.6689C7.42487 10.5483 7.35714 10.3848 7.35714 10.2143L7.07446 3.57232C7.07268 3.54857 7.07143 3.52446 7.07143 3.5C7.07143 3.25373 7.16926 3.01754 7.3434 2.8434C7.51754 2.66926 7.75373 2.57143 8 2.57143C8.24627 2.57143 8.48246 2.66926 8.6566 2.8434C8.83074 3.01754 8.92857 3.25373 8.92857 3.5C8.92857 3.52446 8.92732 3.54857 8.92554 3.57232Z" fill="#FF0000"/>
</svg>