<svg width="114" height="38" viewBox="0 0 114 38" fill="none" xmlns="http://www.w3.org/2000/svg">
<path d="M109.993 11.9551C109.993 11.4028 110.44 10.9551 110.993 10.9551H113C113.553 10.9551 114 11.4028 114 11.9551V21.672C114 22.9105 113.705 23.9895 113.116 24.909C112.526 25.823 111.704 26.5315 110.65 27.0345C109.595 27.5321 108.37 27.7809 106.975 27.7809C105.563 27.7809 104.33 27.5321 103.275 27.0345C102.221 26.5315 101.401 25.823 100.817 24.909C100.233 23.9895 99.9409 22.9105 99.9409 21.672V11.9551C99.9409 11.4028 100.389 10.9551 100.941 10.9551H102.957C103.509 10.9551 103.957 11.4028 103.957 11.9551V21.3231C103.957 21.8964 104.081 22.4075 104.33 22.8564C104.584 23.3053 104.938 23.6569 105.393 23.9111C105.847 24.1653 106.374 24.2924 106.975 24.2924C107.575 24.2924 108.1 24.1653 108.549 23.9111C109.003 23.6569 109.357 23.3053 109.611 22.8564C109.865 22.4075 109.993 21.8964 109.993 21.3231V11.9551Z" fill="white"/>
<path d="M84.8994 27.5699C84.3471 27.5699 83.8994 27.1222 83.8994 26.5699V11.9551C83.8994 11.4028 84.3471 10.9551 84.8994 10.9551H86.9152C87.4675 10.9551 87.9152 11.4028 87.9152 11.9551V17.8334C87.9152 17.9148 87.9811 17.9807 88.0625 17.9807V17.9807C88.1078 17.9807 88.1506 17.9598 88.1785 17.9241L93.3263 11.3392C93.5158 11.0968 93.8064 10.9551 94.1141 10.9551H96.2849C97.1218 10.9551 97.5884 11.9217 97.0679 12.5771L92.9146 17.8059C92.647 18.1428 92.6249 18.6133 92.8599 18.9738L97.4543 26.0239C97.8878 26.6891 97.4104 27.5699 96.6165 27.5699H94.2093C93.8667 27.5699 93.5479 27.3945 93.3645 27.1051L90.2755 22.2293C89.9069 21.6475 89.0744 21.6037 88.6468 22.1436L88.1313 22.7945C87.9914 22.9712 87.9152 23.19 87.9152 23.4154V26.5699C87.9152 27.1222 87.4675 27.5699 86.9152 27.5699H84.8994Z" fill="white"/>
<path d="M77.3749 11.9551C77.3749 11.4028 77.8226 10.9551 78.3749 10.9551H80.3826C80.9349 10.9551 81.3826 11.4028 81.3826 11.9551V21.672C81.3826 22.9105 81.0878 23.9895 80.4983 24.909C79.9088 25.823 79.0867 26.5315 78.032 27.0345C76.9774 27.5321 75.7524 27.7809 74.357 27.7809C72.9454 27.7809 71.7122 27.5321 70.6576 27.0345C69.6029 26.5315 68.7835 25.823 68.1994 24.909C67.6153 23.9895 67.3232 22.9105 67.3232 21.672V11.9551C67.3232 11.4028 67.771 10.9551 68.3232 10.9551H70.339C70.8913 10.9551 71.339 11.4028 71.339 11.9551V21.3231C71.339 21.8964 71.4634 22.4075 71.7122 22.8564C71.9664 23.3053 72.3207 23.6569 72.775 23.9111C73.2293 24.1653 73.7566 24.2924 74.357 24.2924C74.9573 24.2924 75.4819 24.1653 75.9308 23.9111C76.3851 23.6569 76.7394 23.3053 76.9936 22.8564C77.2478 22.4075 77.3749 21.8964 77.3749 21.3231V11.9551Z" fill="white"/>
<path d="M50.3095 12.4364C49.9436 11.77 50.4258 10.9551 51.1861 10.9551H53.3673C53.7445 10.9551 54.0897 11.1674 54.2598 11.5041L57.4623 17.8425C57.4825 17.8825 57.5235 17.9077 57.5682 17.9077V17.9077C57.613 17.9077 57.654 17.8825 57.6742 17.8425L60.8767 11.5041C61.0468 11.1674 61.3919 10.9551 61.7692 10.9551H63.9504C64.7107 10.9551 65.1929 11.77 64.827 12.4364L59.6874 21.796C59.6064 21.9435 59.564 22.109 59.564 22.2773V26.5699C59.564 27.1222 59.1163 27.5699 58.564 27.5699H56.5725C56.0202 27.5699 55.5725 27.1222 55.5725 26.5699V22.2773C55.5725 22.109 55.5301 21.9435 55.4491 21.796L50.3095 12.4364Z" fill="white"/>
<path d="M38 19C38 29.4934 29.4934 38 19 38C8.50659 38 0 29.4934 0 19C0 8.50659 8.50659 0 19 0C29.4934 0 38 8.50659 38 19Z" fill="white"/>
<path d="M8.55029 7.60059L17.8609 15.0491V29.984L8.55029 29.9461V7.60059Z" fill="black"/>
<path d="M29.9648 7.60059L20.6542 15.0491V29.984L29.9648 29.9461V7.60059Z" fill="black"/>
</svg>
