<svg width="320" height="292" viewBox="0 0 320 292" fill="none" xmlns="http://www.w3.org/2000/svg">
<g filter="url(#filter0_d_3_28)">
<path d="M295.791 55.683L24.5749 16L150.06 259.72C226.984 220.029 282.846 144.944 295.791 55.683Z" fill="url(#paint0_linear_3_28)"/>
</g>
<path d="M171.127 99.2485C171.36 99.2485 171.558 99.1669 171.721 99.0039C171.907 98.8175 172 98.5962 172 98.34V96.558C172 96.3017 171.907 96.0921 171.721 95.929C171.558 95.7427 171.36 95.6495 171.127 95.6495C170.894 95.6495 170.684 95.7427 170.498 95.929C170.335 96.0921 170.253 96.3017 170.253 96.558V98.34C170.253 98.5962 170.335 98.8175 170.498 99.0039C170.684 99.1669 170.894 99.2485 171.127 99.2485ZM171.127 101.345C170.218 101.345 169.496 101.1 168.96 100.611C168.425 100.122 168.157 99.4814 168.157 98.6894V96.4182C168.157 95.533 168.425 94.8342 168.96 94.3217C169.496 93.8092 170.218 93.553 171.127 93.553C172.035 93.553 172.757 93.8092 173.293 94.3217C173.829 94.8342 174.097 95.533 174.097 96.4182V98.6894C174.097 99.4814 173.829 100.122 173.293 100.611C172.757 101.1 172.035 101.345 171.127 101.345ZM175.984 115.846C175.984 116.102 176.065 116.323 176.228 116.51C176.415 116.673 176.624 116.754 176.857 116.754C177.09 116.754 177.288 116.673 177.451 116.51C177.638 116.323 177.731 116.102 177.731 115.846V114.064C177.731 113.807 177.638 113.598 177.451 113.435C177.288 113.248 177.09 113.155 176.857 113.155C176.624 113.155 176.415 113.248 176.228 113.435C176.065 113.598 175.984 113.807 175.984 114.064V115.846ZM176.857 118.851C175.949 118.851 175.227 118.606 174.691 118.117C174.155 117.628 173.887 116.987 173.887 116.195V113.924C173.887 113.039 174.155 112.34 174.691 111.827C175.227 111.315 175.949 111.059 176.857 111.059C177.766 111.059 178.488 111.315 179.024 111.827C179.559 112.34 179.827 113.039 179.827 113.924V116.195C179.827 116.987 179.559 117.628 179.024 118.117C178.488 118.606 177.766 118.851 176.857 118.851ZM168.576 118.641L177.102 93.7626H179.408L170.882 118.641H168.576Z" fill="white"/>
<path d="M156.832 118.641L163.086 97.1174H159.173V99.9826H156.028V93.763H166.65V97.327L160.605 118.641H156.832Z" fill="white"/>
<path d="M147.255 118.641V97.5367L143.691 100.157V96.3836L147.255 93.763H150.819V118.641H147.255Z" fill="white"/>
<defs>
<filter id="filter0_d_3_28" x="0.57489" y="0" width="319.216" height="291.719" filterUnits="userSpaceOnUse" color-interpolation-filters="sRGB">
<feFlood flood-opacity="0" result="BackgroundImageFix"/>
<feColorMatrix in="SourceAlpha" type="matrix" values="0 0 0 0 0 0 0 0 0 0 0 0 0 0 0 0 0 0 127 0" result="hardAlpha"/>
<feOffset dy="8"/>
<feGaussianBlur stdDeviation="12"/>
<feComposite in2="hardAlpha" operator="out"/>
<feColorMatrix type="matrix" values="0 0 0 0 0 0 0 0 0 0 0 0 0 0 0 0 0 0 0.4 0"/>
<feBlend mode="normal" in2="BackgroundImageFix" result="effect1_dropShadow_3_28"/>
<feBlend mode="normal" in="SourceGraphic" in2="effect1_dropShadow_3_28" result="shape"/>
</filter>
<linearGradient id="paint0_linear_3_28" x1="23.9118" y1="18.5476" x2="248.12" y2="174.329" gradientUnits="userSpaceOnUse">
<stop stop-color="#B9391E"/>
<stop offset="1" stop-color="#E3502B"/>
</linearGradient>
</defs>
</svg>
