<svg width="338" height="341" viewBox="0 0 338 341" fill="none" xmlns="http://www.w3.org/2000/svg">
<path d="M164.759 340.684L289.715 104.213C231.333 74.6664 165.446 65.1616 103.335 77.909L164.759 340.684Z" fill="url(#paint0_linear_3_21)"/>
<path d="M198.777 163.287C199.01 163.287 199.208 163.205 199.371 163.042C199.558 162.856 199.651 162.634 199.651 162.378V160.596C199.651 160.34 199.558 160.13 199.371 159.967C199.208 159.781 199.01 159.688 198.777 159.688C198.544 159.688 198.335 159.781 198.148 159.967C197.985 160.13 197.904 160.34 197.904 160.596V162.378C197.904 162.634 197.985 162.856 198.148 163.042C198.335 163.205 198.544 163.287 198.777 163.287ZM198.777 165.383C197.869 165.383 197.147 165.138 196.611 164.649C196.075 164.16 195.807 163.519 195.807 162.727V160.456C195.807 159.571 196.075 158.872 196.611 158.36C197.147 157.847 197.869 157.591 198.777 157.591C199.686 157.591 200.408 157.847 200.944 158.36C201.479 158.872 201.747 159.571 201.747 160.456V162.727C201.747 163.519 201.479 164.16 200.944 164.649C200.408 165.138 199.686 165.383 198.777 165.383ZM203.634 179.884C203.634 180.14 203.716 180.361 203.879 180.548C204.065 180.711 204.275 180.792 204.508 180.792C204.741 180.792 204.939 180.711 205.102 180.548C205.288 180.361 205.381 180.14 205.381 179.884V178.102C205.381 177.846 205.288 177.636 205.102 177.473C204.939 177.286 204.741 177.193 204.508 177.193C204.275 177.193 204.065 177.286 203.879 177.473C203.716 177.636 203.634 177.846 203.634 178.102V179.884ZM204.508 182.889C203.599 182.889 202.877 182.644 202.341 182.155C201.805 181.666 201.538 181.025 201.538 180.233V177.962C201.538 177.077 201.805 176.378 202.341 175.866C202.877 175.353 203.599 175.097 204.508 175.097C205.416 175.097 206.138 175.353 206.674 175.866C207.21 176.378 207.478 177.077 207.478 177.962V180.233C207.478 181.025 207.21 181.666 206.674 182.155C206.138 182.644 205.416 182.889 204.508 182.889ZM196.226 182.679L204.752 157.801H207.058L198.533 182.679H196.226Z" fill="white"/>
<path d="M183.678 162.937C183.678 162.099 183.818 161.353 184.098 160.701C184.4 160.049 184.796 159.49 185.286 159.024C185.775 158.558 186.334 158.208 186.963 157.975C187.615 157.719 188.291 157.591 188.989 157.591C189.688 157.591 190.352 157.719 190.981 157.975C191.633 158.208 192.204 158.558 192.693 159.024C193.182 159.49 193.567 160.049 193.846 160.701C194.149 161.353 194.301 162.099 194.301 162.937V177.543C194.301 178.381 194.149 179.127 193.846 179.779C193.567 180.431 193.182 180.99 192.693 181.456C192.204 181.922 191.633 182.283 190.981 182.539C190.352 182.772 189.688 182.889 188.989 182.889C188.291 182.889 187.615 182.772 186.963 182.539C186.334 182.283 185.775 181.922 185.286 181.456C184.796 180.99 184.4 180.431 184.098 179.779C183.818 179.127 183.678 178.381 183.678 177.543V162.937ZM187.242 177.543C187.242 178.055 187.405 178.486 187.731 178.836C188.058 179.162 188.477 179.325 188.989 179.325C189.502 179.325 189.921 179.162 190.247 178.836C190.573 178.486 190.736 178.055 190.736 177.543V162.937C190.736 162.425 190.573 162.005 190.247 161.679C189.921 161.33 189.502 161.155 188.989 161.155C188.477 161.155 188.058 161.33 187.731 161.679C187.405 162.005 187.242 162.425 187.242 162.937V177.543Z" fill="white"/>
<path d="M174.906 182.68V161.575L171.342 164.195V160.422L174.906 157.801H178.47V182.68H174.906Z" fill="white"/>
<defs>
<linearGradient id="paint0_linear_3_21" x1="178.513" y1="66.6506" x2="168.894" y2="337.739" gradientUnits="userSpaceOnUse">
<stop stop-color="#4EE280"/>
<stop offset="1" stop-color="#209B4A"/>
</linearGradient>
</defs>
</svg>
