<svg width="332" height="329" viewBox="0 0 332 329" fill="none" xmlns="http://www.w3.org/2000/svg">
<g filter="url(#filter0_d_3_26)">
<path d="M307.744 238.123L143.437 25.9119C92.512 66.997 56.8361 124.288 42.9368 186.152L307.744 238.123Z" fill="url(#paint0_linear_3_26)"/>
</g>
<path d="M160.301 136.877C160.534 136.877 160.732 136.795 160.895 136.632C161.081 136.446 161.174 136.224 161.174 135.968V134.186C161.174 133.93 161.081 133.72 160.895 133.557C160.732 133.371 160.534 133.278 160.301 133.278C160.068 133.278 159.858 133.371 159.672 133.557C159.509 133.72 159.427 133.93 159.427 134.186V135.968C159.427 136.224 159.509 136.446 159.672 136.632C159.858 136.795 160.068 136.877 160.301 136.877ZM160.301 138.973C159.392 138.973 158.67 138.729 158.134 138.239C157.599 137.75 157.331 137.11 157.331 136.318V134.046C157.331 133.161 157.599 132.462 158.134 131.95C158.67 131.437 159.392 131.181 160.301 131.181C161.209 131.181 161.931 131.437 162.467 131.95C163.003 132.462 163.271 133.161 163.271 134.046V136.318C163.271 137.11 163.003 137.75 162.467 138.239C161.931 138.729 161.209 138.973 160.301 138.973ZM165.158 153.474C165.158 153.73 165.239 153.951 165.402 154.138C165.589 154.301 165.798 154.382 166.031 154.382C166.264 154.382 166.462 154.301 166.625 154.138C166.812 153.951 166.905 153.73 166.905 153.474V151.692C166.905 151.436 166.812 151.226 166.625 151.063C166.462 150.877 166.264 150.783 166.031 150.783C165.798 150.783 165.589 150.877 165.402 151.063C165.239 151.226 165.158 151.436 165.158 151.692V153.474ZM166.031 156.479C165.123 156.479 164.401 156.234 163.865 155.745C163.329 155.256 163.061 154.615 163.061 153.823V151.552C163.061 150.667 163.329 149.968 163.865 149.456C164.401 148.943 165.123 148.687 166.031 148.687C166.94 148.687 167.662 148.943 168.198 149.456C168.733 149.968 169.001 150.667 169.001 151.552V153.823C169.001 154.615 168.733 155.256 168.198 155.745C167.662 156.234 166.94 156.479 166.031 156.479ZM157.75 156.269L166.276 131.391H168.582L160.056 156.269H157.75Z" fill="white"/>
<path d="M145.202 136.527C145.202 135.689 145.342 134.943 145.621 134.291C145.924 133.639 146.32 133.08 146.809 132.614C147.298 132.148 147.857 131.798 148.486 131.566C149.139 131.309 149.814 131.181 150.513 131.181C151.212 131.181 151.876 131.309 152.505 131.566C153.157 131.798 153.728 132.148 154.217 132.614C154.706 133.08 155.09 133.639 155.37 134.291C155.673 134.943 155.824 135.689 155.824 136.527V151.133C155.824 151.971 155.673 152.717 155.37 153.369C155.09 154.021 154.706 154.58 154.217 155.046C153.728 155.512 153.157 155.873 152.505 156.129C151.876 156.362 151.212 156.479 150.513 156.479C149.814 156.479 149.139 156.362 148.486 156.129C147.857 155.873 147.298 155.512 146.809 155.046C146.32 154.58 145.924 154.021 145.621 153.369C145.342 152.717 145.202 151.971 145.202 151.133V136.527ZM148.766 151.133C148.766 151.645 148.929 152.076 149.255 152.426C149.581 152.752 150 152.915 150.513 152.915C151.025 152.915 151.445 152.752 151.771 152.426C152.097 152.076 152.26 151.645 152.26 151.133V136.527C152.26 136.015 152.097 135.595 151.771 135.269C151.445 134.92 151.025 134.745 150.513 134.745C150 134.745 149.581 134.92 149.255 135.269C148.929 135.595 148.766 136.015 148.766 136.527V151.133Z" fill="white"/>
<path d="M136.429 156.27V135.165L132.865 137.785V134.012L136.429 131.391H139.993V156.27H136.429Z" fill="white"/>
<defs>
<filter id="filter0_d_3_26" x="18.9368" y="9.91187" width="312.807" height="260.211" filterUnits="userSpaceOnUse" color-interpolation-filters="sRGB">
<feFlood flood-opacity="0" result="BackgroundImageFix"/>
<feColorMatrix in="SourceAlpha" type="matrix" values="0 0 0 0 0 0 0 0 0 0 0 0 0 0 0 0 0 0 127 0" result="hardAlpha"/>
<feOffset dy="8"/>
<feGaussianBlur stdDeviation="12"/>
<feComposite in2="hardAlpha" operator="out"/>
<feColorMatrix type="matrix" values="0 0 0 0 0 0 0 0 0 0 0 0 0 0 0 0 0 0 0.4 0"/>
<feBlend mode="normal" in2="BackgroundImageFix" result="effect1_dropShadow_3_26"/>
<feBlend mode="normal" in="SourceGraphic" in2="effect1_dropShadow_3_26" result="shape"/>
</filter>
<linearGradient id="paint0_linear_3_26" x1="36.9899" y1="298.777" x2="377.277" y2="292.929" gradientUnits="userSpaceOnUse">
<stop stop-color="#4BA6FA"/>
<stop offset="1" stop-color="#3066BA"/>
</linearGradient>
</defs>
</svg>
