<svg width="309" height="163" viewBox="0 0 309 163" fill="none" xmlns="http://www.w3.org/2000/svg">
<g filter="url(#filter0_d_3_33)">
<path d="M280.52 109.847C286.846 74.9537 284.718 52.7856 276.523 16L24.02 72.3467L280.52 109.847Z" fill="url(#paint0_linear_3_33)"/>
</g>
<path d="M218.563 58.4861C218.796 58.4861 218.994 58.4045 219.157 58.2415C219.343 58.0551 219.436 57.8338 219.436 57.5776V55.7956C219.436 55.5393 219.343 55.3297 219.157 55.1666C218.994 54.9803 218.796 54.8871 218.563 54.8871C218.33 54.8871 218.12 54.9803 217.934 55.1666C217.771 55.3297 217.689 55.5393 217.689 55.7956V57.5776C217.689 57.8338 217.771 58.0551 217.934 58.2415C218.12 58.4045 218.33 58.4861 218.563 58.4861ZM218.563 60.5826C217.654 60.5826 216.932 60.338 216.396 59.8488C215.861 59.3596 215.593 58.719 215.593 57.927V55.6558C215.593 54.7706 215.861 54.0718 216.396 53.5593C216.932 53.0468 217.654 52.7906 218.563 52.7906C219.471 52.7906 220.193 53.0468 220.729 53.5593C221.265 54.0718 221.533 54.7706 221.533 55.6558V57.927C221.533 58.719 221.265 59.3596 220.729 59.8488C220.193 60.338 219.471 60.5826 218.563 60.5826ZM223.42 75.0833C223.42 75.3396 223.501 75.5609 223.664 75.7472C223.851 75.9103 224.06 75.9918 224.293 75.9918C224.526 75.9918 224.724 75.9103 224.887 75.7472C225.074 75.5609 225.167 75.3396 225.167 75.0833V73.3013C225.167 73.0451 225.074 72.8354 224.887 72.6724C224.724 72.486 224.526 72.3928 224.293 72.3928C224.06 72.3928 223.851 72.486 223.664 72.6724C223.501 72.8354 223.42 73.0451 223.42 73.3013V75.0833ZM224.293 78.0883C223.385 78.0883 222.663 77.8437 222.127 77.3545C221.591 76.8654 221.323 76.2248 221.323 75.4328V73.1616C221.323 72.2764 221.591 71.5775 222.127 71.0651C222.663 70.5526 223.385 70.2963 224.293 70.2963C225.202 70.2963 225.924 70.5526 226.46 71.0651C226.995 71.5775 227.263 72.2764 227.263 73.1616V75.4328C227.263 76.2248 226.995 76.8654 226.46 77.3545C225.924 77.8437 225.202 78.0883 224.293 78.0883ZM216.012 77.8787L224.538 53.0002H226.844L218.318 77.8787H216.012Z" fill="white"/>
<path d="M214.088 53.0006V56.355H207.03V63.0638C207.356 62.7377 207.776 62.4698 208.288 62.2601C208.801 62.0272 209.371 61.9107 210 61.9107C211.211 61.9107 212.19 62.2834 212.935 63.0289C213.704 63.751 214.088 64.8458 214.088 66.3134V72.7426C214.088 73.5812 213.937 74.3266 213.634 74.9789C213.355 75.6311 212.97 76.1902 212.481 76.6561C211.992 77.122 211.421 77.483 210.769 77.7393C210.14 77.9722 209.476 78.0887 208.777 78.0887C208.078 78.0887 207.403 77.9722 206.751 77.7393C206.122 77.483 205.563 77.122 205.073 76.6561C204.584 76.1902 204.188 75.6311 203.885 74.9789C203.606 74.3266 203.466 73.5812 203.466 72.7426V71.6944H207.03V72.6029C207.03 73.2085 207.193 73.686 207.519 74.0355C207.869 74.3616 208.311 74.5246 208.847 74.5246C209.383 74.5246 209.791 74.3616 210.07 74.0355C210.373 73.7093 210.524 73.2551 210.524 72.6727V66.8375C210.524 66.3483 210.361 65.929 210.035 65.5796C209.732 65.2302 209.336 65.0555 208.847 65.0555C208.544 65.0555 208.288 65.1137 208.078 65.2302C207.869 65.3234 207.694 65.4398 207.554 65.5796C207.414 65.7194 207.31 65.8708 207.24 66.0338C207.123 66.2435 207.053 66.3716 207.03 66.4182H203.885V53.0006H214.088Z" fill="white"/>
<defs>
<filter id="filter0_d_3_33" x="0.0199594" y="0" width="308.186" height="141.847" filterUnits="userSpaceOnUse" color-interpolation-filters="sRGB">
<feFlood flood-opacity="0" result="BackgroundImageFix"/>
<feColorMatrix in="SourceAlpha" type="matrix" values="0 0 0 0 0 0 0 0 0 0 0 0 0 0 0 0 0 0 127 0" result="hardAlpha"/>
<feOffset dy="8"/>
<feGaussianBlur stdDeviation="12"/>
<feComposite in2="hardAlpha" operator="out"/>
<feColorMatrix type="matrix" values="0 0 0 0 0 0 0 0 0 0 0 0 0 0 0 0 0 0 0.4 0"/>
<feBlend mode="normal" in2="BackgroundImageFix" result="effect1_dropShadow_3_33"/>
<feBlend mode="normal" in="SourceGraphic" in2="effect1_dropShadow_3_33" result="shape"/>
</filter>
<linearGradient id="paint0_linear_3_33" x1="286.83" y1="95.7414" x2="23.4945" y2="71.9968" gradientUnits="userSpaceOnUse">
<stop stop-color="#4318AD"/>
<stop offset="0.687366" stop-color="#9B33F3"/>
</linearGradient>
</defs>
</svg>
