<svg width="291" height="320" viewBox="0 0 291 320" fill="none" xmlns="http://www.w3.org/2000/svg">
<g filter="url(#filter0_d_3_29)">
<path d="M103.923 16L80.423 267C133.539 273.243 173.518 268.472 222.423 245.5L103.923 16Z" fill="url(#paint0_linear_3_29)"/>
</g>
<path d="M135.863 153.368C136.096 153.368 136.294 153.287 136.457 153.123C136.643 152.937 136.736 152.716 136.736 152.46V150.678C136.736 150.421 136.643 150.212 136.457 150.049C136.294 149.862 136.096 149.769 135.863 149.769C135.63 149.769 135.42 149.862 135.234 150.049C135.071 150.212 134.989 150.421 134.989 150.678V152.46C134.989 152.716 135.071 152.937 135.234 153.123C135.42 153.287 135.63 153.368 135.863 153.368ZM135.863 155.465C134.954 155.465 134.232 155.22 133.696 154.731C133.161 154.242 132.893 153.601 132.893 152.809V150.538C132.893 149.653 133.161 148.954 133.696 148.441C134.232 147.929 134.954 147.673 135.863 147.673C136.771 147.673 137.493 147.929 138.029 148.441C138.565 148.954 138.833 149.653 138.833 150.538V152.809C138.833 153.601 138.565 154.242 138.029 154.731C137.493 155.22 136.771 155.465 135.863 155.465ZM140.72 169.965C140.72 170.222 140.801 170.443 140.964 170.629C141.151 170.792 141.36 170.874 141.593 170.874C141.826 170.874 142.024 170.792 142.187 170.629C142.374 170.443 142.467 170.222 142.467 169.965V168.183C142.467 167.927 142.374 167.717 142.187 167.554C142.024 167.368 141.826 167.275 141.593 167.275C141.36 167.275 141.151 167.368 140.964 167.554C140.801 167.717 140.72 167.927 140.72 168.183V169.965ZM141.593 172.97C140.685 172.97 139.963 172.726 139.427 172.237C138.891 171.747 138.623 171.107 138.623 170.315V168.044C138.623 167.158 138.891 166.46 139.427 165.947C139.963 165.435 140.685 165.178 141.593 165.178C142.502 165.178 143.224 165.435 143.76 165.947C144.295 166.46 144.563 167.158 144.563 168.044V170.315C144.563 171.107 144.295 171.747 143.76 172.237C143.224 172.726 142.502 172.97 141.593 172.97ZM133.312 172.761L141.838 147.882H144.144L135.618 172.761H133.312Z" fill="white"/>
<path d="M122.059 172.761L126.112 162.313L126.042 162.243C125.926 162.336 125.739 162.418 125.483 162.488C125.25 162.534 124.936 162.558 124.54 162.558C123.911 162.558 123.328 162.406 122.793 162.103C122.257 161.801 121.838 161.416 121.535 160.95C121.372 160.717 121.244 160.473 121.15 160.217C121.057 159.937 120.987 159.588 120.941 159.168C120.871 158.749 120.824 158.225 120.801 157.596C120.778 156.944 120.766 156.128 120.766 155.15C120.766 154.335 120.778 153.671 120.801 153.158C120.824 152.623 120.871 152.168 120.941 151.796C120.987 151.446 121.057 151.143 121.15 150.887C121.267 150.631 121.407 150.363 121.57 150.084C122.036 149.315 122.653 148.721 123.422 148.302C124.214 147.882 125.099 147.673 126.077 147.673C127.056 147.673 127.929 147.894 128.698 148.336C129.467 148.756 130.084 149.338 130.55 150.084C130.713 150.363 130.853 150.631 130.969 150.887C131.086 151.143 131.179 151.446 131.249 151.796C131.295 152.168 131.33 152.623 131.353 153.158C131.377 153.671 131.388 154.335 131.388 155.15C131.388 155.919 131.377 156.559 131.353 157.072C131.33 157.561 131.295 157.98 131.249 158.33C131.179 158.703 131.097 159.04 131.004 159.343C130.934 159.623 130.841 159.925 130.724 160.252L126.042 172.761H122.059ZM124.33 157.631C124.33 158.167 124.505 158.598 124.854 158.924C125.204 159.25 125.611 159.413 126.077 159.413C126.543 159.413 126.951 159.25 127.3 158.924C127.65 158.598 127.824 158.167 127.824 157.631V153.019C127.824 152.483 127.65 152.052 127.3 151.726C126.951 151.4 126.543 151.237 126.077 151.237C125.611 151.237 125.204 151.4 124.854 151.726C124.505 152.052 124.33 152.483 124.33 153.019V157.631Z" fill="white"/>
<defs>
<filter id="filter0_d_3_29" x="56.423" y="0" width="190" height="301.51" filterUnits="userSpaceOnUse" color-interpolation-filters="sRGB">
<feFlood flood-opacity="0" result="BackgroundImageFix"/>
<feColorMatrix in="SourceAlpha" type="matrix" values="0 0 0 0 0 0 0 0 0 0 0 0 0 0 0 0 0 0 127 0" result="hardAlpha"/>
<feOffset dy="8"/>
<feGaussianBlur stdDeviation="12"/>
<feComposite in2="hardAlpha" operator="out"/>
<feColorMatrix type="matrix" values="0 0 0 0 0 0 0 0 0 0 0 0 0 0 0 0 0 0 0.4 0"/>
<feBlend mode="normal" in2="BackgroundImageFix" result="effect1_dropShadow_3_29"/>
<feBlend mode="normal" in="SourceGraphic" in2="effect1_dropShadow_3_29" result="shape"/>
</filter>
<linearGradient id="paint0_linear_3_29" x1="221.261" y1="248.781" x2="103.544" y2="54.5984" gradientUnits="userSpaceOnUse">
<stop offset="0.0368454" stop-color="#828C99"/>
<stop offset="1" stop-color="#C5D2E0"/>
</linearGradient>
</defs>
</svg>
