<svg width="331" height="305" viewBox="0 0 331 305" fill="none" xmlns="http://www.w3.org/2000/svg">
<g filter="url(#filter0_d_3_31)">
<path d="M306.858 140.318L63.5769 214.351C47.8096 169.234 46.0933 140.161 57.5768 91.3514L306.858 140.318Z" fill="url(#paint0_linear_3_31)"/>
</g>
<path d="M139.509 143.232C139.742 143.232 139.94 143.151 140.103 142.988C140.29 142.801 140.383 142.58 140.383 142.324V140.542C140.383 140.285 140.29 140.076 140.103 139.913C139.94 139.726 139.742 139.633 139.509 139.633C139.276 139.633 139.067 139.726 138.88 139.913C138.717 140.076 138.636 140.285 138.636 140.542V142.324C138.636 142.58 138.717 142.801 138.88 142.988C139.067 143.151 139.276 143.232 139.509 143.232ZM139.509 145.329C138.601 145.329 137.879 145.084 137.343 144.595C136.807 144.106 136.539 143.465 136.539 142.673V140.402C136.539 139.517 136.807 138.818 137.343 138.305C137.879 137.793 138.601 137.537 139.509 137.537C140.418 137.537 141.14 137.793 141.676 138.305C142.211 138.818 142.479 139.517 142.479 140.402V142.673C142.479 143.465 142.211 144.106 141.676 144.595C141.14 145.084 140.418 145.329 139.509 145.329ZM144.366 159.829C144.366 160.086 144.448 160.307 144.611 160.493C144.797 160.656 145.007 160.738 145.24 160.738C145.473 160.738 145.671 160.656 145.834 160.493C146.02 160.307 146.113 160.086 146.113 159.829V158.047C146.113 157.791 146.02 157.581 145.834 157.418C145.671 157.232 145.473 157.139 145.24 157.139C145.007 157.139 144.797 157.232 144.611 157.418C144.448 157.581 144.366 157.791 144.366 158.047V159.829ZM145.24 162.834C144.331 162.834 143.609 162.59 143.073 162.101C142.538 161.611 142.27 160.971 142.27 160.179V157.908C142.27 157.022 142.538 156.324 143.073 155.811C143.609 155.299 144.331 155.042 145.24 155.042C146.148 155.042 146.87 155.299 147.406 155.811C147.942 156.324 148.21 157.022 148.21 157.908V160.179C148.21 160.971 147.942 161.611 147.406 162.101C146.87 162.59 146.148 162.834 145.24 162.834ZM136.959 162.625L145.484 137.746H147.791L139.265 162.625H136.959Z" fill="white"/>
<path d="M131.471 142.848C131.471 142.359 131.296 141.951 130.947 141.625C130.597 141.275 130.19 141.101 129.724 141.101C129.258 141.101 128.85 141.275 128.501 141.625C128.151 141.951 127.977 142.359 127.977 142.848V146.482C127.977 146.971 128.151 147.39 128.501 147.74C128.85 148.066 129.258 148.229 129.724 148.229C130.19 148.229 130.597 148.066 130.947 147.74C131.296 147.39 131.471 146.971 131.471 146.482V142.848ZM124.413 144.245C124.413 143.57 124.436 142.999 124.482 142.533C124.529 142.044 124.611 141.625 124.727 141.275C124.844 140.926 124.972 140.611 125.111 140.332C125.275 140.052 125.473 139.761 125.705 139.458C126.171 138.853 126.754 138.387 127.453 138.061C128.151 137.711 128.908 137.537 129.724 137.537C130.539 137.537 131.296 137.711 131.995 138.061C132.694 138.387 133.276 138.853 133.742 139.458C133.975 139.761 134.173 140.052 134.336 140.332C134.499 140.611 134.639 140.926 134.755 141.275C134.872 141.625 134.942 142.044 134.965 142.533C135.012 142.999 135.035 143.57 135.035 144.245C135.035 144.991 135.023 145.62 135 146.132C134.977 146.645 134.907 147.099 134.79 147.495C134.674 147.891 134.487 148.252 134.231 148.578C133.998 148.881 133.672 149.207 133.253 149.557C133.672 149.883 133.998 150.209 134.231 150.535C134.487 150.861 134.674 151.245 134.79 151.688C134.907 152.131 134.977 152.678 135 153.33C135.023 153.959 135.035 154.74 135.035 155.671C135.035 156.44 135.012 157.081 134.965 157.593C134.942 158.082 134.895 158.513 134.825 158.886C134.755 159.259 134.651 159.573 134.511 159.829C134.394 160.086 134.243 160.353 134.056 160.633C133.66 161.239 133.101 161.763 132.379 162.205C131.657 162.625 130.772 162.834 129.724 162.834C128.675 162.834 127.79 162.625 127.068 162.205C126.346 161.763 125.787 161.239 125.391 160.633C125.205 160.353 125.042 160.086 124.902 159.829C124.785 159.573 124.692 159.259 124.622 158.886C124.552 158.513 124.494 158.082 124.448 157.593C124.424 157.081 124.413 156.44 124.413 155.671C124.413 154.74 124.424 153.959 124.448 153.33C124.471 152.678 124.541 152.131 124.657 151.688C124.774 151.245 124.948 150.861 125.181 150.535C125.438 150.209 125.775 149.883 126.195 149.557C125.775 149.207 125.438 148.881 125.181 148.578C124.948 148.252 124.774 147.891 124.657 147.495C124.541 147.099 124.471 146.645 124.448 146.132C124.424 145.62 124.413 144.991 124.413 144.245ZM131.471 152.631C131.471 152.142 131.296 151.735 130.947 151.408C130.597 151.059 130.19 150.884 129.724 150.884C129.258 150.884 128.85 151.059 128.501 151.408C128.151 151.735 127.977 152.142 127.977 152.631V157.523C127.977 158.012 128.151 158.432 128.501 158.781C128.85 159.107 129.258 159.27 129.724 159.27C130.19 159.27 130.597 159.107 130.947 158.781C131.296 158.432 131.471 158.012 131.471 157.523V152.631Z" fill="white"/>
<defs>
<filter id="filter0_d_3_31" x="26.1526" y="75.3514" width="304.705" height="171" filterUnits="userSpaceOnUse" color-interpolation-filters="sRGB">
<feFlood flood-opacity="0" result="BackgroundImageFix"/>
<feColorMatrix in="SourceAlpha" type="matrix" values="0 0 0 0 0 0 0 0 0 0 0 0 0 0 0 0 0 0 127 0" result="hardAlpha"/>
<feOffset dy="8"/>
<feGaussianBlur stdDeviation="12"/>
<feComposite in2="hardAlpha" operator="out"/>
<feColorMatrix type="matrix" values="0 0 0 0 0 0 0 0 0 0 0 0 0 0 0 0 0 0 0.4 0"/>
<feBlend mode="normal" in2="BackgroundImageFix" result="effect1_dropShadow_3_31"/>
<feBlend mode="normal" in="SourceGraphic" in2="effect1_dropShadow_3_31" result="shape"/>
</filter>
<linearGradient id="paint0_linear_3_31" x1="52.5839" y1="130.662" x2="268.324" y2="129.308" gradientUnits="userSpaceOnUse">
<stop stop-color="#FFE601"/>
<stop offset="1" stop-color="#BFA106"/>
</linearGradient>
</defs>
</svg>
