<svg width="316" height="352" viewBox="0 0 316 352" fill="none" xmlns="http://www.w3.org/2000/svg">
<g filter="url(#filter0_d_3_32)">
<path d="M26.9251 124.817C56.5204 221.133 137.773 297.823 243.816 316.52C251.205 317.822 258.578 318.82 265.921 319.52L291.929 43.6239L26.9251 124.817Z" fill="url(#paint0_linear_3_32)"/>
</g>
<path d="M207.144 162.953C207.426 162.953 207.665 162.854 207.862 162.657C208.087 162.432 208.2 162.164 208.2 161.855V159.702C208.2 159.392 208.087 159.139 207.862 158.942C207.665 158.716 207.426 158.604 207.144 158.604C206.863 158.604 206.609 158.716 206.384 158.942C206.187 159.139 206.089 159.392 206.089 159.702V161.855C206.089 162.164 206.187 162.432 206.384 162.657C206.609 162.854 206.863 162.953 207.144 162.953ZM207.144 165.486C206.046 165.486 205.174 165.19 204.526 164.599C203.879 164.008 203.555 163.234 203.555 162.277V159.533C203.555 158.463 203.879 157.619 204.526 156.999C205.174 156.38 206.046 156.071 207.144 156.071C208.242 156.071 209.114 156.38 209.762 156.999C210.409 157.619 210.733 158.463 210.733 159.533V162.277C210.733 163.234 210.409 164.008 209.762 164.599C209.114 165.19 208.242 165.486 207.144 165.486ZM213.013 183.008C213.013 183.317 213.111 183.585 213.308 183.81C213.534 184.007 213.787 184.105 214.068 184.105C214.35 184.105 214.589 184.007 214.786 183.81C215.011 183.585 215.124 183.317 215.124 183.008V180.854C215.124 180.545 215.011 180.291 214.786 180.094C214.589 179.869 214.35 179.757 214.068 179.757C213.787 179.757 213.534 179.869 213.308 180.094C213.111 180.291 213.013 180.545 213.013 180.854V183.008ZM214.068 186.639C212.971 186.639 212.098 186.343 211.451 185.752C210.803 185.161 210.48 184.387 210.48 183.43V180.685C210.48 179.616 210.803 178.771 211.451 178.152C212.098 177.533 212.971 177.223 214.068 177.223C215.166 177.223 216.039 177.533 216.686 178.152C217.333 178.771 217.657 179.616 217.657 180.685V183.43C217.657 184.387 217.333 185.161 216.686 185.752C216.039 186.343 215.166 186.639 214.068 186.639ZM204.062 186.385L214.364 156.324H217.15L206.849 186.385H204.062Z" fill="white"/>
<path d="M188.899 162.53C188.899 161.517 189.068 160.616 189.406 159.828C189.772 159.04 190.25 158.365 190.842 157.802C191.433 157.239 192.108 156.816 192.868 156.535C193.656 156.225 194.473 156.071 195.317 156.071C196.161 156.071 196.964 156.225 197.724 156.535C198.512 156.816 199.201 157.239 199.792 157.802C200.383 158.365 200.848 159.04 201.186 159.828C201.552 160.616 201.735 161.517 201.735 162.53V180.179C201.735 181.192 201.552 182.093 201.186 182.881C200.848 183.669 200.383 184.345 199.792 184.908C199.201 185.471 198.512 185.907 197.724 186.216C196.964 186.498 196.161 186.639 195.317 186.639C194.473 186.639 193.656 186.498 192.868 186.216C192.108 185.907 191.433 185.471 190.842 184.908C190.25 184.345 189.772 183.669 189.406 182.881C189.068 182.093 188.899 181.192 188.899 180.179V162.53ZM193.206 180.179C193.206 180.798 193.403 181.319 193.797 181.741C194.191 182.135 194.698 182.332 195.317 182.332C195.936 182.332 196.443 182.135 196.837 181.741C197.231 181.319 197.428 180.798 197.428 180.179V162.53C197.428 161.911 197.231 161.404 196.837 161.01C196.443 160.588 195.936 160.377 195.317 160.377C194.698 160.377 194.191 160.588 193.797 161.01C193.403 161.404 193.206 161.911 193.206 162.53V180.179Z" fill="white"/>
<path d="M173.191 186.385V182.332L180.96 167.681C181.354 166.95 181.579 166.316 181.635 165.781C181.692 165.218 181.72 164.529 181.72 163.713C181.72 163.347 181.706 162.967 181.677 162.573C181.677 162.15 181.607 161.784 181.466 161.475C181.326 161.165 181.115 160.912 180.833 160.715C180.552 160.49 180.143 160.377 179.609 160.377C178.961 160.377 178.441 160.56 178.046 160.926C177.681 161.292 177.498 161.827 177.498 162.53V164.979H173.191V162.615C173.191 161.714 173.36 160.87 173.698 160.082C174.035 159.293 174.5 158.604 175.091 158.013C175.654 157.422 176.329 156.957 177.118 156.619C177.906 156.254 178.75 156.071 179.651 156.071C180.777 156.071 181.734 156.282 182.522 156.704C183.338 157.098 184.014 157.647 184.549 158.35C185.055 159.054 185.421 159.856 185.646 160.757C185.9 161.658 186.026 162.615 186.026 163.628C186.026 164.36 186.012 164.979 185.984 165.486C185.956 165.964 185.9 166.429 185.815 166.879C185.731 167.33 185.59 167.78 185.393 168.23C185.196 168.681 184.928 169.229 184.591 169.877L178.258 182.079H186.026V186.385H173.191Z" fill="white"/>
<defs>
<filter id="filter0_d_3_32" x="2.92511" y="27.6239" width="313.004" height="323.896" filterUnits="userSpaceOnUse" color-interpolation-filters="sRGB">
<feFlood flood-opacity="0" result="BackgroundImageFix"/>
<feColorMatrix in="SourceAlpha" type="matrix" values="0 0 0 0 0 0 0 0 0 0 0 0 0 0 0 0 0 0 127 0" result="hardAlpha"/>
<feOffset dy="8"/>
<feGaussianBlur stdDeviation="12"/>
<feComposite in2="hardAlpha" operator="out"/>
<feColorMatrix type="matrix" values="0 0 0 0 0 0 0 0 0 0 0 0 0 0 0 0 0 0 0.4 0"/>
<feBlend mode="normal" in2="BackgroundImageFix" result="effect1_dropShadow_3_32"/>
<feBlend mode="normal" in="SourceGraphic" in2="effect1_dropShadow_3_32" result="shape"/>
</filter>
<linearGradient id="paint0_linear_3_32" x1="75.7876" y1="212.939" x2="290.709" y2="75.8856" gradientUnits="userSpaceOnUse">
<stop stop-color="#E43EFF"/>
<stop offset="1" stop-color="#8B129E"/>
</linearGradient>
</defs>
</svg>
