<svg width="333" height="339" viewBox="0 0 333 339" fill="none" xmlns="http://www.w3.org/2000/svg">
<g filter="url(#filter0_d_3_22)">
<path d="M151.632 16.36L24 258.936L289.818 199.12C272.683 122.297 224.568 54.6179 151.632 16.36Z" fill="url(#paint0_linear_3_22)"/>
</g>
<path d="M182.861 138.205C183.094 138.205 183.292 138.123 183.455 137.96C183.641 137.774 183.734 137.552 183.734 137.296V135.514C183.734 135.258 183.641 135.048 183.455 134.885C183.292 134.699 183.094 134.606 182.861 134.606C182.628 134.606 182.418 134.699 182.232 134.885C182.069 135.048 181.987 135.258 181.987 135.514V137.296C181.987 137.552 182.069 137.774 182.232 137.96C182.418 138.123 182.628 138.205 182.861 138.205ZM182.861 140.301C181.952 140.301 181.23 140.057 180.694 139.567C180.159 139.078 179.891 138.438 179.891 137.646V135.374C179.891 134.489 180.159 133.79 180.694 133.278C181.23 132.765 181.952 132.509 182.861 132.509C183.769 132.509 184.491 132.765 185.027 133.278C185.563 133.79 185.831 134.489 185.831 135.374V137.646C185.831 138.438 185.563 139.078 185.027 139.567C184.491 140.057 183.769 140.301 182.861 140.301ZM187.718 154.802C187.718 155.058 187.799 155.28 187.962 155.466C188.149 155.629 188.358 155.71 188.591 155.71C188.824 155.71 189.022 155.629 189.185 155.466C189.372 155.28 189.465 155.058 189.465 154.802V153.02C189.465 152.764 189.372 152.554 189.185 152.391C189.022 152.205 188.824 152.111 188.591 152.111C188.358 152.111 188.149 152.205 187.962 152.391C187.799 152.554 187.718 152.764 187.718 153.02V154.802ZM188.591 157.807C187.683 157.807 186.961 157.562 186.425 157.073C185.889 156.584 185.621 155.943 185.621 155.151V152.88C185.621 151.995 185.889 151.296 186.425 150.784C186.961 150.271 187.683 150.015 188.591 150.015C189.5 150.015 190.222 150.271 190.758 150.784C191.293 151.296 191.561 151.995 191.561 152.88V155.151C191.561 155.943 191.293 156.584 190.758 157.073C190.222 157.562 189.5 157.807 188.591 157.807ZM180.31 157.597L188.836 132.719H191.142L182.616 157.597H180.31Z" fill="white"/>
<path d="M177.091 132.719L173.038 143.167L173.108 143.237C173.224 143.143 173.399 143.074 173.632 143.027C173.888 142.957 174.214 142.922 174.61 142.922C175.239 142.922 175.822 143.074 176.358 143.376C176.893 143.679 177.313 144.064 177.615 144.53C177.779 144.786 177.907 145.042 178 145.298C178.093 145.554 178.175 145.892 178.244 146.312C178.291 146.731 178.326 147.267 178.349 147.919C178.373 148.548 178.384 149.351 178.384 150.33C178.384 151.145 178.373 151.821 178.349 152.356C178.326 152.869 178.291 153.3 178.244 153.649C178.175 154.022 178.081 154.336 177.965 154.593C177.872 154.849 177.744 155.117 177.581 155.396C177.115 156.165 176.486 156.759 175.694 157.178C174.925 157.598 174.051 157.807 173.073 157.807C172.095 157.807 171.221 157.598 170.452 157.178C169.684 156.736 169.066 156.142 168.601 155.396C168.414 155.117 168.263 154.849 168.146 154.593C168.053 154.336 167.983 154.022 167.937 153.649C167.867 153.3 167.82 152.869 167.797 152.356C167.774 151.821 167.762 151.145 167.762 150.33C167.762 149.561 167.774 148.932 167.797 148.443C167.82 147.93 167.855 147.488 167.902 147.115C167.948 146.766 168.018 146.451 168.111 146.172C168.205 145.869 168.309 145.554 168.426 145.228L173.108 132.719H177.091ZM174.82 147.849C174.82 147.313 174.645 146.882 174.296 146.556C173.947 146.23 173.539 146.067 173.073 146.067C172.607 146.067 172.2 146.23 171.85 146.556C171.501 146.882 171.326 147.313 171.326 147.849V152.461C171.326 152.997 171.501 153.428 171.85 153.754C172.2 154.08 172.607 154.243 173.073 154.243C173.539 154.243 173.947 154.08 174.296 153.754C174.645 153.428 174.82 152.997 174.82 152.461V147.849Z" fill="white"/>
<path d="M158.989 157.598V136.493L155.425 139.114V135.34L158.989 132.719H162.553V157.598H158.989Z" fill="white"/>
<defs>
<filter id="filter0_d_3_22" x="0" y="0.359955" width="313.818" height="290.576" filterUnits="userSpaceOnUse" color-interpolation-filters="sRGB">
<feFlood flood-opacity="0" result="BackgroundImageFix"/>
<feColorMatrix in="SourceAlpha" type="matrix" values="0 0 0 0 0 0 0 0 0 0 0 0 0 0 0 0 0 0 127 0" result="hardAlpha"/>
<feOffset dy="8"/>
<feGaussianBlur stdDeviation="12"/>
<feComposite in2="hardAlpha" operator="out"/>
<feColorMatrix type="matrix" values="0 0 0 0 0 0 0 0 0 0 0 0 0 0 0 0 0 0 0.4 0"/>
<feBlend mode="normal" in2="BackgroundImageFix" result="effect1_dropShadow_3_22"/>
<feBlend mode="normal" in="SourceGraphic" in2="effect1_dropShadow_3_22" result="shape"/>
</filter>
<linearGradient id="paint0_linear_3_22" x1="55.3165" y1="256.047" x2="200.317" y2="49.0469" gradientUnits="userSpaceOnUse">
<stop stop-color="#DE810E"/>
<stop offset="1" stop-color="#FFC530"/>
</linearGradient>
</defs>
</svg>
