<svg width="267" height="303" viewBox="0 0 267 303" fill="none" xmlns="http://www.w3.org/2000/svg">
<g filter="url(#filter0_d_3_23)">
<path d="M121.419 16.9781C87.095 25.8895 53.9438 41.6516 24 64.5364L182.736 270.589L121.419 16.9781Z" fill="url(#paint0_linear_3_23)"/>
</g>
<path d="M106.563 92.5448C106.793 92.5094 106.976 92.3987 107.113 92.2127C107.269 92.0002 107.327 91.7673 107.288 91.514L107.017 89.7527C106.978 89.4995 106.854 89.3064 106.645 89.1736C106.456 89.0142 106.246 88.9523 106.016 88.9877C105.785 89.0231 105.592 89.1471 105.436 89.3596C105.3 89.5456 105.251 89.7652 105.29 90.0184L105.561 91.7797C105.6 92.033 105.715 92.2393 105.904 92.3987C106.113 92.5315 106.333 92.5802 106.563 92.5448ZM106.882 94.6169C105.984 94.7551 105.233 94.6231 104.629 94.2211C104.025 93.8191 103.663 93.2267 103.542 92.4439L103.197 90.1991C103.062 89.3242 103.221 88.5928 103.672 88.0048C104.124 87.4168 104.799 87.0537 105.697 86.9156C106.595 86.7774 107.347 86.9208 107.955 87.3459C108.562 87.7709 108.933 88.4209 109.068 89.2958L109.413 91.5406C109.534 92.3234 109.366 92.9972 108.911 93.5622C108.456 94.1272 107.78 94.4788 106.882 94.6169ZM113.887 108.21C113.926 108.464 114.041 108.67 114.23 108.829C114.439 108.962 114.659 109.011 114.889 108.975C115.119 108.94 115.302 108.829 115.439 108.643C115.595 108.431 115.653 108.198 115.614 107.945L115.343 106.183C115.304 105.93 115.18 105.737 114.971 105.604C114.782 105.445 114.572 105.383 114.342 105.418C114.111 105.454 113.918 105.578 113.762 105.79C113.626 105.976 113.577 106.196 113.616 106.449L113.887 108.21ZM115.208 111.048C114.31 111.186 113.559 111.054 112.955 110.652C112.351 110.25 111.989 109.657 111.868 108.875L111.523 106.63C111.388 105.755 111.547 105.023 111.998 104.435C112.45 103.847 113.125 103.484 114.023 103.346C114.921 103.208 115.673 103.351 116.281 103.777C116.888 104.202 117.259 104.852 117.394 105.726L117.739 107.971C117.86 108.754 117.692 109.428 117.237 109.993C116.782 110.558 116.106 110.909 115.208 111.048ZM106.991 112.1L111.634 86.2141L113.913 85.8634L109.27 111.749L106.991 112.1Z" fill="white"/>
<path d="M101.306 87.8035L101.816 91.1189L94.8397 92.1923L95.86 98.8231C96.1327 98.4511 96.5064 98.1226 96.981 97.8374C97.4521 97.5293 97.9985 97.3274 98.6201 97.2317C99.8174 97.0475 100.841 97.2671 101.691 97.8905C102.561 98.4873 103.107 99.5109 103.33 100.961L104.308 107.316C104.436 108.145 104.399 108.905 104.199 109.595C104.022 110.282 103.727 110.893 103.315 111.428C102.902 111.963 102.393 112.407 101.787 112.759C101.201 113.085 100.562 113.301 99.8717 113.407C99.181 113.514 98.4956 113.501 97.8156 113.37C97.155 113.213 96.5475 112.941 95.9931 112.555C95.4388 112.169 94.9624 111.676 94.5639 111.078C94.1884 110.476 93.9369 109.76 93.8094 108.931L93.6499 107.895L97.1725 107.353L97.3107 108.251C97.4028 108.85 97.6366 109.297 98.0121 109.593C98.407 109.862 98.8693 109.956 99.3988 109.874C99.9283 109.793 100.306 109.57 100.533 109.205C100.783 108.836 100.863 108.364 100.775 107.789L99.8874 102.021C99.813 101.538 99.5881 101.148 99.2126 100.853C98.8602 100.553 98.4422 100.441 97.9587 100.515C97.6594 100.561 97.415 100.658 97.2255 100.805C97.0325 100.929 96.8775 101.07 96.7606 101.23C96.6437 101.389 96.5632 101.555 96.5189 101.727C96.4357 101.952 96.3861 102.089 96.3701 102.138L93.262 102.617L91.2214 89.3552L101.306 87.8035Z" fill="white"/>
<defs>
<filter id="filter0_d_3_23" x="0" y="0.978149" width="206.736" height="301.611" filterUnits="userSpaceOnUse" color-interpolation-filters="sRGB">
<feFlood flood-opacity="0" result="BackgroundImageFix"/>
<feColorMatrix in="SourceAlpha" type="matrix" values="0 0 0 0 0 0 0 0 0 0 0 0 0 0 0 0 0 0 127 0" result="hardAlpha"/>
<feOffset dy="8"/>
<feGaussianBlur stdDeviation="12"/>
<feComposite in2="hardAlpha" operator="out"/>
<feColorMatrix type="matrix" values="0 0 0 0 0 0 0 0 0 0 0 0 0 0 0 0 0 0 0.4 0"/>
<feBlend mode="normal" in2="BackgroundImageFix" result="effect1_dropShadow_3_23"/>
<feBlend mode="normal" in="SourceGraphic" in2="effect1_dropShadow_3_23" result="shape"/>
</filter>
<linearGradient id="paint0_linear_3_23" x1="92.0419" y1="21.6968" x2="181.074" y2="270.66" gradientUnits="userSpaceOnUse">
<stop stop-color="#2EEBEB"/>
<stop offset="0.872269" stop-color="#1A8E8E"/>
</linearGradient>
</defs>
</svg>
