<svg width="38" height="38" viewBox="0 0 38 38" fill="none" xmlns="http://www.w3.org/2000/svg">
<path d="M31.9741 28.6662H23.7838C23.1197 28.6662 22.6032 28.1244 22.6032 27.4841V26.1542H29.6621C30.3262 26.1542 30.8427 25.6124 30.8427 24.9721V6.10758C30.8427 5.44264 30.3016 4.92547 29.6621 4.92547H23.8084V2.38885C23.8084 1.0836 22.7508 0 21.4227 0H16.6265C15.323 0 14.2408 1.05898 14.2408 2.38885V4.92547H8.19029C7.52621 4.92547 7.00971 5.46727 7.00971 6.10758V24.9475C7.00971 25.6124 7.55081 26.1296 8.19029 26.1296H15.446V27.4595C15.446 28.1244 14.9049 28.6416 14.2654 28.6416H5.90291C5.23884 28.6416 4.72233 29.1834 4.72233 29.8237V36.8179C4.72233 37.4828 5.26343 38 5.90291 38H31.9987C32.6628 38 33.1793 37.4582 33.1793 36.8179V29.8237C33.1793 29.208 32.6382 28.6662 31.9741 28.6662ZM26.1696 15.4413C26.1696 16.7466 25.112 17.8302 23.7838 17.8302C22.4803 17.8302 21.3981 16.7712 21.3981 15.4413C21.3981 14.1361 22.4557 13.0525 23.7838 13.0525C25.0874 13.0525 26.1696 14.1115 26.1696 15.4413ZM16.6265 2.38885H21.4227V4.92547H16.6265V2.38885ZM11.978 15.4413C11.978 14.1361 13.0356 13.0525 14.3638 13.0525C15.6673 13.0525 16.7495 14.1115 16.7495 15.4413C16.7495 16.7466 15.6919 17.8302 14.3638 17.8302C13.0356 17.8302 11.978 16.7466 11.978 15.4413ZM34.4583 10.5159V20.3422C34.4583 21.0071 33.9172 21.5243 33.2777 21.5243C32.6136 21.5243 32.0971 20.9825 32.0971 20.3422V10.5159C32.0971 9.85094 32.6382 9.33377 33.2777 9.33377C33.9172 9.33377 34.4583 9.87557 34.4583 10.5159ZM38 12.9786V17.7563C38 18.4213 37.4589 18.9384 36.8194 18.9384C36.1553 18.9384 35.6388 18.3966 35.6388 17.7563V12.9786C35.6388 12.3137 36.1799 11.7965 36.8194 11.7965C37.4589 11.7965 38 12.3383 38 12.9786ZM4.72233 21.5489C4.05825 21.5489 3.54175 21.0071 3.54175 20.3668V10.5159C3.54175 9.85094 4.08285 9.33377 4.72233 9.33377C5.38641 9.33377 5.90291 9.87557 5.90291 10.5159V20.3422C5.92751 21.0071 5.38641 21.5489 4.72233 21.5489ZM2.36117 12.9786V17.7563C2.36117 18.4213 1.82007 18.9384 1.18058 18.9384C0.516505 18.9384 0 18.3966 0 17.7563V12.9786C0 12.3137 0.541101 11.7965 1.18058 11.7965C1.84466 11.7965 2.36117 12.3383 2.36117 12.9786Z" fill="white"/>
</svg>
