<svg width="38" height="38" viewBox="0 0 38 38" fill="none" xmlns="http://www.w3.org/2000/svg">
<path d="M19 38C12.16 38 5.89001 34.3914 2.47001 28.5037H15.2C16.34 28.5037 17.1 27.744 17.1 26.6044C17.1 25.4649 17.86 24.7052 19 24.7052C20.14 24.7052 20.9 25.4649 20.9 26.6044C20.9 27.5541 21.66 28.3138 22.61 28.5037H35.53C32.11 34.3914 25.84 38 19 38ZM36.1 26.6044H24.51C23.56 26.6044 22.8 25.6548 22.8 24.7052C22.8 23.7555 22.04 22.8059 21.09 22.8059H17.1C16.15 22.8059 15.2 23.5656 15.2 24.5152V24.7052C15.2 25.8447 14.44 26.6044 13.3 26.6044H1.90001C0.950029 26.6044 0 25.8447 0 24.8951V13.3096C0 12.36 0.760014 11.4103 1.71 11.4103H36.1C37.05 11.4103 38 12.17 38 13.1197V24.7052C38 25.6548 37.24 26.6044 36.29 26.6044H36.1ZM29.45 13.3096C28.88 13.3096 28.5 13.6894 28.5 14.2592C28.5 14.829 28.88 15.2089 29.45 15.2089H35.15C35.72 15.2089 36.1 14.829 36.1 14.2592C36.1 13.6894 35.72 13.3096 35.15 13.3096H29.45ZM25.65 13.3096C25.08 13.3096 24.7 13.6894 24.7 14.2592C24.7 14.829 25.08 15.2089 25.65 15.2089C26.22 15.2089 26.6 14.829 26.6 14.2592C26.6 13.6894 26.22 13.3096 25.65 13.3096ZM35.53 9.5111H2.47001C7.79002 0.394646 19.38 -2.64418 28.5 2.48382C31.35 4.19315 33.82 6.6622 35.53 9.5111Z" fill="url(#paint0_linear_1016_1971)"/>
<defs>
<linearGradient id="paint0_linear_1016_1971" x1="0" y1="0" x2="38" y2="38" gradientUnits="userSpaceOnUse">
<stop offset="0.151541" stop-color="#DFECFF"/>
<stop offset="0.852957" stop-color="white"/>
</linearGradient>
</defs>
</svg>
