<svg width="41" height="38" viewBox="0 0 41 38" fill="none" xmlns="http://www.w3.org/2000/svg">
<path d="M22.4837 1.32751C12.2221 -0.63303 2.29425 6.10373 0.333709 16.3861C0.104284 17.5541 0 18.743 0 19.9318C0 24.2909 1.50169 28.5248 4.25479 31.9036C4.54679 28.1703 7.73788 24.1449 12.8687 20.6201C11.8258 12.8196 15.6426 5.18603 22.4837 1.32751ZM13.3275 22.5598C10.1364 25.5006 8.5513 28.6708 9.28129 31.4865C10.4076 35.7621 16.5603 38.119 24.6736 37.9938C25.6539 37.681 26.6133 37.3055 27.531 36.8258C20.5023 35.1364 14.9961 29.6094 13.3275 22.5598Z" fill="white"/>
<path d="M34.1529 21.5034L26.9573 17.332V14.4121C22.5982 16.0598 18.8649 18.1454 16.0909 20.4188C17.5717 27.7813 23.4742 33.4752 30.8784 34.6849C36.3429 31.2227 39.6591 25.1951 39.6591 18.7086C39.6591 18.5834 39.6591 18.4792 39.6383 18.354L34.1529 21.5034ZM15.7363 16.3309C15.7363 16.9149 15.7572 17.4989 15.8198 18.0829C19.3028 15.8929 23.0362 14.1201 26.9364 12.7852V9.03101L34.1321 4.85964L34.2572 4.94307C32.0255 2.62796 29.2098 0.917701 26.123 0C19.7826 2.96167 15.7363 9.323 15.7363 16.3309Z" fill="white"/>
<path d="M34.1674 6.33203L28.3066 9.7317V16.5102L34.1674 19.9098L40.049 16.5102V9.7317L34.1674 6.33203Z" fill="white"/>
</svg>
