<svg width="33" height="38" viewBox="0 0 33 38" fill="none" xmlns="http://www.w3.org/2000/svg">
<path fill-rule="evenodd" clip-rule="evenodd" d="M9.63329 9.31457e-06H23.1851C25.7362 -0.00360236 28.1841 1.04323 29.9907 2.91027C31.7972 4.77731 32.8143 7.31166 32.8184 9.95597V22.8624C32.8143 25.5067 31.7972 28.0411 29.9907 29.9081C28.1841 31.7752 25.7362 32.822 23.1851 32.8184H9.63329C7.08224 32.822 4.63426 31.7752 2.82773 29.9081C1.0212 28.0411 0.00405888 25.5067 0 22.8624V9.95823C0.00172273 8.64872 0.252262 7.35237 0.737312 6.14321C1.22236 4.93406 1.93243 3.83577 2.82696 2.91107C3.72149 1.98636 4.78298 1.25334 5.95081 0.75386C7.11865 0.25438 8.36995 -0.00177883 9.63329 9.31457e-06ZM22.7754 24.3976C22.9894 24.0935 23.1038 23.7264 23.102 23.35V9.03294C23.102 8.5653 22.9227 8.1168 22.6037 7.78612C22.2847 7.45545 21.852 7.26967 21.4009 7.26967C20.9497 7.26967 20.517 7.45545 20.198 7.78612C19.879 8.1168 19.6998 8.5653 19.6998 9.03294V18.1543L12.8145 8.02374C12.6079 7.7142 12.3112 7.48136 11.9677 7.3593C11.6242 7.23725 11.252 7.23241 10.9057 7.34548C10.5594 7.45855 10.257 7.6836 10.043 7.98767C9.82904 8.29173 9.71458 8.65883 9.71643 9.03521V23.3523C9.71643 23.8199 9.89565 24.2684 10.2147 24.5991C10.5337 24.9298 10.9664 25.1156 11.4175 25.1156C11.8687 25.1156 12.3014 24.9298 12.6204 24.5991C12.9394 24.2684 13.1186 23.8199 13.1186 23.3523V14.206L20.0039 24.3615C20.2105 24.671 20.5072 24.9039 20.8507 25.0259C21.1942 25.148 21.5664 25.1528 21.9127 25.0397C22.259 24.9267 22.5613 24.7016 22.7754 24.3976ZM23.7762 34.3892C24.0899 34.3895 24.4025 34.3502 24.7074 34.2721H24.7053C27.0929 33.9416 29.3248 32.8303 31.0918 31.0919C30.8815 32.9965 30.0201 34.7525 28.6714 36.0263C27.3226 37.3001 25.5806 38.0029 23.7762 38.0011H9.0457C7.24099 38.0034 5.49838 37.3009 4.14919 36.0271C2.8 34.7532 1.93832 32.9969 1.72796 31.0919C3.49526 32.8315 5.72799 33.9437 8.11667 34.2744C8.41482 34.3479 8.72594 34.3892 9.0457 34.3892H23.7762Z" fill="url(#paint0_linear_1016_1968)"/>
<defs>
<linearGradient id="paint0_linear_1016_1968" x1="-0.355816" y1="-0.558869" x2="27.3797" y2="41.7972" gradientUnits="userSpaceOnUse">
<stop stop-color="#DFECFF"/>
<stop offset="0.867228" stop-color="white"/>
</linearGradient>
</defs>
</svg>
