<svg width="89" height="68" viewBox="0 0 89 68" fill="none" xmlns="http://www.w3.org/2000/svg">
<path d="M2.65021 49.8939C2.99036 49.8939 3.27608 49.6231 3.27608 49.2712V40.8922C3.27608 40.5538 3.00396 40.2695 2.65021 40.2695H1.98353C1.64338 40.2695 1.35766 40.5403 1.35766 40.8922V49.2712C1.35766 49.6096 1.62978 49.8939 1.98353 49.8939H2.65021ZM16.2696 49.8939C16.6097 49.8939 16.8955 49.6231 16.8955 49.2712V40.8922C16.8955 40.5538 16.6233 40.2695 16.2696 40.2695H15.6301C15.29 40.2695 15.0043 40.5403 15.0043 40.8922V46.6452L11.1674 40.5809C11.0586 40.4049 10.8545 40.2966 10.6368 40.2966H9.27623C8.93608 40.2966 8.65036 40.5673 8.65036 40.9193V49.2983C8.65036 49.6367 8.92248 49.9209 9.27623 49.9209H9.9157C10.2558 49.9209 10.5416 49.6502 10.5416 49.2983V43.0986L14.7458 49.6367C14.8546 49.8127 15.0587 49.9209 15.2628 49.9209H16.2696V49.8939ZM28.7461 42.0563C29.0862 42.0563 29.372 41.7856 29.372 41.4337V40.8922C29.372 40.5538 29.0998 40.2695 28.7461 40.2695H21.984C21.6439 40.2695 21.3582 40.5403 21.3582 40.8922V41.4337C21.3582 41.7721 21.6303 42.0563 21.984 42.0563H24.4195V49.2712C24.4195 49.6096 24.6916 49.8939 25.0453 49.8939H25.6984C26.0385 49.8939 26.3243 49.6231 26.3243 49.2712V42.0563H28.7461ZM39.277 49.8939C39.6171 49.8939 39.9028 49.6231 39.9028 49.2712V48.7433C39.9028 48.4049 39.6307 48.1206 39.277 48.1206H35.7259V45.9007H38.8824C39.2225 45.9007 39.5083 45.6299 39.5083 45.278V44.8448C39.5083 44.5064 39.2362 44.2221 38.8824 44.2221H35.7259V42.0428H39.277C39.6171 42.0428 39.9028 41.7721 39.9028 41.4201V40.8922C39.9028 40.5538 39.6307 40.2695 39.277 40.2695H34.4605C34.1204 40.2695 33.8347 40.5403 33.8347 40.8922V49.2712C33.8347 49.6096 34.1068 49.8939 34.4605 49.8939H39.277ZM49.4677 49.5555C49.5765 49.7585 49.7806 49.8939 50.0255 49.8939H50.7194C51.182 49.8939 51.4814 49.4066 51.2637 48.9869L49.6582 45.9683C50.9235 45.6029 51.7127 44.5876 51.7127 43.2475C51.7127 41.5826 50.5153 40.2966 48.6377 40.2966H45.4812C45.1411 40.2966 44.8553 40.5673 44.8553 40.9193V49.2983C44.8553 49.6367 45.1275 49.9209 45.4812 49.9209H46.1343C46.4744 49.9209 46.7602 49.6502 46.7602 49.2983V46.212H47.7398L49.4677 49.5555ZM46.7602 44.5741V41.9074H48.284C49.2364 41.9074 49.7942 42.4353 49.7942 43.2475C49.7942 44.0326 49.2364 44.5741 48.284 44.5741H46.7602ZM64.1892 49.8939C64.5293 49.8939 64.815 49.6231 64.815 49.2712V40.8922C64.815 40.5538 64.5429 40.2695 64.1892 40.2695H63.5497C63.2095 40.2695 62.9238 40.5403 62.9238 40.8922V46.6452L59.087 40.5809C58.9781 40.4049 58.7741 40.2966 58.5564 40.2966H57.1686C56.8284 40.2966 56.5427 40.5673 56.5427 40.9193V49.2983C56.5427 49.6367 56.8148 49.9209 57.1686 49.9209H57.808C58.1482 49.9209 58.4339 49.6502 58.4339 49.2983V43.0986L62.6381 49.6367C62.7469 49.8127 62.951 49.9209 63.1551 49.9209H64.1892V49.8939ZM75.6452 49.8939C75.9854 49.8939 76.2711 49.6231 76.2711 49.2712V48.7433C76.2711 48.4049 75.999 48.1206 75.6452 48.1206H72.0941V45.9007H75.2506C75.5908 45.9007 75.8765 45.6299 75.8765 45.278V44.8448C75.8765 44.5064 75.6044 44.2221 75.2506 44.2221H72.0941V42.0428H75.6452C75.9854 42.0428 76.2711 41.7721 76.2711 41.4201V40.8922C76.2711 40.5538 75.999 40.2695 75.6452 40.2695H70.8288C70.4886 40.2695 70.2029 40.5403 70.2029 40.8922V49.2712C70.2029 49.6096 70.475 49.8939 70.8288 49.8939H75.6452ZM87.6863 42.0563C88.0265 42.0563 88.3122 41.7856 88.3122 41.4337V40.8922C88.3122 40.5538 88.0401 40.2695 87.6863 40.2695H80.9243C80.5841 40.2695 80.2984 40.5403 80.2984 40.8922V41.4337C80.2984 41.7721 80.5705 42.0563 80.9243 42.0563H83.3597V49.2712C83.3597 49.6096 83.6318 49.8939 83.9856 49.8939H84.6386C84.9788 49.8939 85.2645 49.6231 85.2645 49.2712V42.0563H87.6863ZM5.16728 67.6942C7.54829 67.6942 8.90887 66.3135 9.4531 64.9869C9.57555 64.6891 9.38507 64.3507 9.07214 64.2559L8.47349 64.08C8.14695 63.9852 7.7932 64.1747 7.62993 64.4725C7.23536 65.1899 6.45983 65.8668 5.16728 65.8668C3.61622 65.8668 2.17401 64.7432 2.17401 62.6993C2.17401 60.5199 3.69786 59.4911 5.14007 59.4911C6.44622 59.4911 7.19454 60.1138 7.5619 60.8177C7.72517 61.129 8.07892 61.3321 8.41906 61.2373L9.00411 61.0478C9.31704 60.9531 9.50753 60.6282 9.38507 60.3304C8.84084 58.9632 7.49387 57.6908 5.12646 57.6908C2.54137 57.6908 0.201172 59.64 0.201172 62.7128C0.214778 65.7585 2.45973 67.6942 5.16728 67.6942ZM14.2151 62.6722C14.2151 60.5064 15.739 59.4776 17.222 59.4776C18.7186 59.4776 20.2425 60.5064 20.2425 62.6722C20.2425 64.838 18.7186 65.8668 17.222 65.8668C15.739 65.8803 14.2151 64.8515 14.2151 62.6722ZM12.2559 62.6993C12.2559 65.7855 14.5961 67.7077 17.222 67.7077C19.8479 67.7077 22.2017 65.7991 22.2017 62.6993C22.2017 59.5994 19.8615 57.6773 17.222 57.6773C14.6097 57.6773 12.2559 59.5859 12.2559 62.6993ZM35.7939 67.4911C36.134 67.4911 36.4198 67.2204 36.4198 66.8685V58.4895C36.4198 58.151 36.1476 57.8668 35.7939 57.8668H34.27C34.0115 57.8668 33.7938 58.0157 33.6986 58.2458L31.0183 64.7974L28.2699 58.2323C28.1747 58.0021 27.9434 57.8532 27.6985 57.8532H26.2562C25.9161 57.8532 25.6304 58.124 25.6304 58.4759V66.8549C25.6304 67.1933 25.9025 67.4776 26.2562 67.4776H26.8141C27.1542 67.4776 27.4399 67.2069 27.4399 66.8549V60.7906L30.0659 67.0986C30.1611 67.3287 30.3924 67.4776 30.6373 67.4776H31.372C31.6169 67.4776 31.8482 67.3287 31.9435 67.0986L34.5694 60.75V66.8685C34.5694 67.2069 34.8415 67.4911 35.1952 67.4911H35.7939ZM42.3383 62.2526V59.5047H43.8213C44.7601 59.5047 45.3315 60.0326 45.3315 60.8854C45.3315 61.7111 44.7601 62.2526 43.8213 62.2526H42.3383ZM44.0526 63.8769C45.9574 63.8769 47.2227 62.6316 47.2227 60.8854C47.2227 59.1527 45.9574 57.8939 44.0526 57.8939H41.0593C40.7192 57.8939 40.4335 58.1646 40.4335 58.5165V66.8955C40.4335 67.2339 40.7056 67.5182 41.0593 67.5182H41.6988C42.0389 67.5182 42.3247 67.2475 42.3247 66.8955V63.8905H44.0526V63.8769ZM54.0801 67.7077C56.1481 67.7077 57.7944 66.4488 57.7944 64.0935V58.503C57.7944 58.1646 57.5223 57.8803 57.1686 57.8803H56.5427C56.2026 57.8803 55.9168 58.151 55.9168 58.503V63.9581C55.9168 65.217 55.2229 65.8803 54.0801 65.8803C52.9644 65.8803 52.2569 65.217 52.2569 63.9581V58.503C52.2569 58.1646 51.9848 57.8803 51.631 57.8803H50.9916C50.6514 57.8803 50.3657 58.151 50.3657 58.503V64.0935C50.3793 66.4488 52.0256 67.7077 54.0801 67.7077ZM68.2573 59.6536C68.5974 59.6536 68.8831 59.3829 68.8831 59.0309V58.4895C68.8831 58.151 68.611 57.8668 68.2573 57.8668H61.4952C61.1551 57.8668 60.8693 58.1375 60.8693 58.4895V59.0309C60.8693 59.3693 61.1415 59.6536 61.4952 59.6536H63.9306V66.8685C63.9306 67.2069 64.2028 67.4911 64.5565 67.4911H65.2096C65.5497 67.4911 65.8354 67.2204 65.8354 66.8685V59.6536H68.2573ZM77.3731 67.4911C77.7133 67.4911 77.999 67.2204 77.999 66.8685V66.3405C77.999 66.0021 77.7269 65.7179 77.3731 65.7179H73.822V63.4979H76.9786C77.3187 63.4979 77.6044 63.2272 77.6044 62.8752V62.4421C77.6044 62.1037 77.3323 61.8194 76.9786 61.8194H73.822V59.64H77.3731C77.7133 59.64 77.999 59.3693 77.999 59.0174V58.4895C77.999 58.151 77.7269 57.8668 77.3731 57.8668H72.5567C72.2166 57.8668 71.9308 58.1375 71.9308 58.4895V66.8685C71.9308 67.2069 72.203 67.4911 72.5567 67.4911H77.3731ZM86.2033 67.1527C86.3121 67.3558 86.5162 67.4911 86.7611 67.4911H87.455C87.9176 67.4911 88.217 67.0038 87.9993 66.5842L86.3938 63.5656C87.6591 63.2001 88.4483 62.1849 88.4483 60.8448C88.4483 59.1798 87.2509 57.8939 85.3734 57.8939H82.2168C81.8767 57.8939 81.5909 58.1646 81.5909 58.5165V66.8955C81.5909 67.2339 81.8631 67.5182 82.2168 67.5182H82.8699C83.21 67.5182 83.4958 67.2475 83.4958 66.8955V63.8092H84.4754L86.2033 67.1527ZM83.4958 62.1713V59.5047H85.0196C85.972 59.5047 86.5298 60.0326 86.5298 60.8448C86.5298 61.6299 85.972 62.1713 85.0196 62.1713H83.4958Z" fill="white"/>
<path d="M44.3348 19.6913C44.3238 19.669 42.3728 17.5414 40.2013 15.2244C39.0219 16.6391 37.3245 18.5662 35.3735 20.2928C31.736 23.5121 29.3772 24.1916 28.0214 24.1916C22.918 24.1916 18.7625 20.1034 18.7625 15.0796C18.7625 10.0891 22.918 6.00096 28.0214 5.96754C28.2088 5.96754 28.4293 5.98982 28.7048 6.03438C27.1727 5.43285 25.5413 5.04297 23.9431 5.04297C15.4116 5.04297 13.141 11.1139 13.0087 11.5484C12.7331 12.6846 12.5898 13.8542 12.5898 15.0684C12.5898 23.423 19.4128 30.218 27.9112 30.218C31.4605 30.218 35.4286 28.38 39.5179 24.7597C41.4469 23.0442 43.1223 21.2174 44.3899 19.747L44.3348 19.6913Z" fill="url(#paint0_linear_1166_6496)"/>
<path d="M44.613 10.7948C44.6238 10.8171 46.5487 12.9508 48.691 15.2743C49.8545 13.8556 51.5292 11.923 53.454 10.1915C57.0427 6.96316 59.3698 6.28173 60.7074 6.28173C65.7424 6.28173 69.8421 10.3814 69.8421 15.4195C69.8421 20.4241 65.7424 24.5238 60.7074 24.5573C60.5225 24.5573 60.305 24.535 60.0332 24.4903C61.5448 25.0823 63.1542 25.4733 64.731 25.4733C73.148 25.4733 75.3882 19.3852 75.5187 18.9495C75.7905 17.8213 75.9319 16.6371 75.9319 15.4195C75.9319 7.05252 69.0917 0.238281 60.7074 0.238281C57.2058 0.238281 53.3997 2.08148 49.3652 5.71202C47.4621 7.43233 45.8092 9.26436 44.5586 10.7389L44.613 10.7948Z" fill="url(#paint1_linear_1166_6496)"/>
<path d="M64.8044 25.1378C60.468 25.1378 55.889 22.3001 53.638 20.2353C51.1775 17.9828 44.4247 10.6511 44.3916 10.618C39.956 5.67131 34.0087 0.183594 28.0614 0.183594C20.9004 0.183594 14.6662 5.14131 13.0332 11.7111C13.1656 11.2805 15.4386 5.26277 23.9789 5.26277C28.3152 5.26277 32.8943 8.10048 35.1452 10.1653C37.6057 12.4178 44.3585 19.7495 44.3916 19.7826C48.8272 24.7293 54.7745 30.217 60.7218 30.217C67.8828 30.217 73.9616 25.2214 75.5946 18.6516C75.4622 19.0823 73.3446 25.1378 64.8044 25.1378Z" fill="white"/>
<defs>
<linearGradient id="paint0_linear_1166_6496" x1="36.0214" y1="28.2361" x2="21.8111" y2="5.16076" gradientUnits="userSpaceOnUse">
<stop stop-color="white"/>
<stop offset="1" stop-color="#BDBDBD"/>
</linearGradient>
<linearGradient id="paint1_linear_1166_6496" x1="52.8017" y1="2.23899" x2="73.9764" y2="23.5845" gradientUnits="userSpaceOnUse">
<stop offset="0.21" stop-color="#D7D7D7"/>
<stop offset="0.684" stop-color="white"/>
</linearGradient>
</defs>
</svg>
