<svg xmlns="http://www.w3.org/2000/svg" width="225" height="78" viewBox="0 0 225 78" fill="none">
  <path d="M99.7839 20.589H101.924C101.924 22.2599 102.717 23.4142 105.214 23.4142C107.871 23.4142 108.543 22.4181 108.543 21.3452C108.543 20.6284 108.246 20.2119 107.632 19.9931C106.978 19.7348 105.571 19.5556 104.442 19.3951C103.134 19.2158 101.745 18.918 101.031 18.4596C100.238 17.9615 99.7422 17.0679 99.7422 15.8321C99.7422 13.4444 101.785 11.7734 105.193 11.7734C109.058 11.7734 110.465 13.484 110.465 16.4697H108.325C108.325 14.5405 107.275 13.6236 105.232 13.6236C103.19 13.6236 102.1 14.4381 102.1 15.632C102.1 16.3673 102.357 16.8049 102.872 17.0446C103.447 17.3238 104.915 17.5612 106.044 17.7218C107.412 17.9406 108.68 18.1593 109.494 18.5968C110.386 19.0553 110.901 19.9698 110.901 21.1823C110.901 23.2908 109.672 25.262 105.232 25.262C100.793 25.262 99.7816 22.9744 99.7816 20.5866L99.7839 20.589Z" fill="white"/>
  <path d="M111.854 15.2344H114.212L116.215 22.8351H116.255L118.594 15.2344H120.794L123.073 22.8351H123.113L125.174 15.2344H127.274L124.438 25.0621H121.703L119.582 17.8385H119.522L117.322 25.0621H114.685L111.85 15.2344H111.854Z" fill="white"/>
  <path d="M128.863 11.8945H131.142V14.0821H128.863V11.8945ZM128.884 15.2364H131.105V25.0642H128.884V15.2364Z" fill="white"/>
  <path d="M133.123 21.7804H135.124C135.124 22.9139 135.778 23.612 137.681 23.612C139.485 23.612 140.278 23.0558 140.278 22.1598C140.278 21.7827 140.139 21.443 139.624 21.2639C139.148 21.0846 138.217 20.9846 137.127 20.8868C135.602 20.7472 134.569 20.5494 133.975 20.1118C133.441 19.7139 133.123 18.9971 133.123 18.2407C133.123 16.272 135.026 15.0781 137.681 15.0781C140.735 15.0781 142.081 16.351 142.081 18.5806H140.081C140.06 17.3075 139.366 16.6909 137.741 16.6909C136.116 16.6909 135.323 17.2471 135.323 18.0825C135.323 18.5014 135.423 18.8971 135.998 19.0972C136.473 19.2554 137.405 19.3556 138.595 19.4742C139.981 19.6138 140.774 19.7535 141.469 20.1514C142.123 20.5098 142.501 21.2661 142.501 22.062C142.501 24.0519 140.837 25.2248 137.704 25.2248C134.335 25.2248 133.125 23.712 133.125 21.7827L133.123 21.7804Z" fill="white"/>
  <path d="M144.125 21.7804H146.126C146.126 22.9139 146.78 23.612 148.683 23.612C150.486 23.612 151.28 23.0558 151.28 22.1598C151.28 21.7827 151.141 21.443 150.626 21.2639C150.15 21.0846 149.219 20.9846 148.129 20.8868C146.603 20.7472 145.571 20.5494 144.979 20.1118C144.443 19.7139 144.125 18.9971 144.125 18.2407C144.125 16.272 146.028 15.0781 148.683 15.0781C151.737 15.0781 153.083 16.351 153.083 18.5806H151.083C151.062 17.3075 150.368 16.6909 148.743 16.6909C147.118 16.6909 146.325 17.2471 146.325 18.0825C146.325 18.5014 146.425 18.8971 147 19.0972C147.476 19.2554 148.407 19.3556 149.597 19.4742C150.983 19.6138 151.776 19.7535 152.471 20.1514C153.125 20.5098 153.503 21.2661 153.503 22.062C153.503 24.0519 151.839 25.2248 148.706 25.2248C145.338 25.2248 144.127 23.712 144.127 21.7827L144.125 21.7804Z" fill="white"/>
  <path d="M100.178 31.1055H105.689C108.742 31.1055 110.328 32.418 110.328 34.5287C110.328 36.0205 109.614 37.0747 108.227 37.333V37.354C109.853 37.5937 110.824 38.706 110.824 40.3979C110.824 42.7461 109.377 44.1983 106.145 44.1983H100.18V31.1055H100.178ZM105.907 36.7163C107.453 36.7163 108.207 36.0391 108.207 34.8847C108.207 33.7305 107.453 32.9742 105.67 32.9742H102.559V36.714H105.909L105.907 36.7163ZM106.104 42.3272C107.887 42.3272 108.561 41.4918 108.561 40.1582C108.561 39.0249 107.65 38.2685 106.025 38.2685H102.556V42.3272H106.104Z" fill="white"/>
  <path d="M112.807 30.4102H115.028V44.1989H112.807V30.4102Z" fill="white"/>
  <path d="M117.029 39.3052C117.029 36.1611 119.03 34.2109 122.143 34.2109C125.257 34.2109 127.276 36.1611 127.276 39.3052C127.276 42.4493 125.275 44.3599 122.143 44.3599C119.011 44.3599 117.029 42.4306 117.029 39.3052ZM125.057 39.3052C125.057 37.2967 123.947 36.0424 122.143 36.0424C120.339 36.0424 119.25 37.2967 119.25 39.3052C119.25 41.3135 120.339 42.5283 122.143 42.5283C123.947 42.5283 125.057 41.295 125.057 39.3052Z" fill="white"/>
  <path d="M128.883 39.2842C128.883 36.1401 130.844 34.2109 133.797 34.2109C136.533 34.2109 138.317 35.8027 138.317 38.4092H136.315C136.294 36.936 135.344 36.0424 133.857 36.0424C132.153 36.0424 131.104 37.2549 131.104 39.2865C131.104 41.3181 132.135 42.5306 133.778 42.5306C135.423 42.5306 136.315 41.6556 136.336 40.2034H138.34C138.34 42.8309 136.475 44.3622 133.682 44.3622C130.888 44.3622 128.885 42.433 128.885 39.2889L128.883 39.2842Z" fill="white"/>
  <path d="M140.381 30.4102H142.602V39.5236H142.623L147.895 34.3712H150.769L146.19 38.6486L151.027 44.1989H148.013L144.563 40.0612L142.602 41.8717V44.1989H140.381V30.4102Z" fill="white"/>
  <path d="M151.459 39.2842C151.459 36.1401 153.42 34.2109 156.374 34.2109C159.11 34.2109 160.893 35.8027 160.893 38.4092H158.892C158.871 36.936 157.92 36.0424 156.435 36.0424C154.731 36.0424 153.68 37.2549 153.68 39.2865C153.68 41.3181 154.712 42.5306 156.356 42.5306C157.999 42.5306 158.892 41.6556 158.913 40.2034H160.916C160.916 42.8309 159.052 44.3622 156.258 44.3622C153.464 44.3622 151.461 42.433 151.461 39.2889L151.459 39.2842Z" fill="white"/>
  <path d="M162.957 30.4102H165.178V34.8669C165.178 35.3439 165.139 36.4773 165.118 37.0149H165.139C165.654 35.2229 166.921 34.2082 169.221 34.2082C171.7 34.2082 173.226 35.6208 173.226 38.0481V44.1966H171.005V38.5461C171.005 36.9939 170.133 36.1188 168.369 36.1188C166.407 36.1188 165.178 37.3313 165.178 39.5422V44.1989H162.957V30.4102Z" fill="white"/>
  <path d="M175.068 41.3726C175.068 39.8808 176.119 38.7055 178.737 38.7055H182.365V38.0097C182.365 36.5366 181.511 35.8803 179.789 35.8803C178.282 35.8803 177.431 36.4574 177.431 37.5513C177.431 37.6118 177.431 37.77 177.452 37.9282H175.409C175.388 37.7886 175.37 37.5303 175.37 37.3511C175.37 35.3823 177.074 34.207 179.87 34.207C182.842 34.207 184.588 35.6196 184.588 38.2052V44.1931H182.367C182.406 43.716 182.467 42.8201 182.467 42.0241H182.446C182.128 43.4763 180.96 44.3513 178.799 44.3513C176.638 44.3513 175.073 43.2762 175.073 41.3679L175.068 41.3726ZM182.362 40.2391V40.0599H178.933C177.665 40.0599 177.108 40.4974 177.108 41.2748C177.108 42.1707 177.902 42.6874 179.248 42.6874C181.171 42.6874 182.36 41.7518 182.36 40.2391H182.362Z" fill="white"/>
  <path d="M186.764 31.0273H189.043V33.215H186.764V31.0273ZM186.785 34.3692H189.006V44.1971H186.785V34.3692Z" fill="white"/>
  <path d="M191.322 34.3692H193.543L193.464 36.9966H193.485C194.021 35.2255 195.289 34.2109 197.568 34.2109C200.046 34.2109 201.573 35.6236 201.573 38.0508V44.1992H199.352V38.5488C199.352 36.9966 198.479 36.1215 196.715 36.1215C194.773 36.1215 193.543 37.2944 193.543 39.4447V44.1992H191.322V34.3715V34.3692Z" fill="white"/>
  <path d="M100.178 50.2383H102.556V61.3414H109.018V63.3311H100.178V50.2383Z" fill="white"/>
  <path d="M110.289 60.5054C110.289 59.0136 111.339 57.8383 113.957 57.8383H117.585V57.1425C117.585 55.6695 116.732 55.0131 115.009 55.0131C113.502 55.0131 112.652 55.5903 112.652 56.6841C112.652 56.7446 112.652 56.9028 112.672 57.0611H110.63C110.609 56.9214 110.59 56.6631 110.59 56.4839C110.59 54.5151 112.294 53.3398 115.09 53.3398C118.062 53.3398 119.809 54.7525 119.809 57.338V63.3259H117.587C117.626 62.8489 117.687 61.9529 117.687 61.157H117.666C117.349 62.6092 116.18 63.4842 114.019 63.4842C111.859 63.4842 110.294 62.409 110.294 60.5007L110.289 60.5054ZM117.582 59.372V59.1929H114.154C112.886 59.1929 112.329 59.6304 112.329 60.4076C112.329 61.3036 113.122 61.8202 114.469 61.8202C116.391 61.8202 117.58 60.8847 117.58 59.372H117.582Z" fill="white"/>
  <path d="M124.143 61.2418H124.123C124.123 61.9376 124.162 62.8337 124.201 63.3316H121.98V49.543H124.201V53.9996C124.201 54.4161 124.181 55.2121 124.162 55.6915H124.183C124.6 54.2579 125.947 53.3433 127.89 53.3433C130.704 53.3433 132.39 55.2144 132.39 58.2374C132.39 61.4815 130.665 63.49 127.91 63.49C125.889 63.49 124.542 62.615 124.146 61.2418H124.143ZM130.169 58.2979C130.169 56.3687 129.119 55.1748 127.375 55.1748C125.432 55.1748 124.204 56.4083 124.204 58.398V58.896C124.204 60.6065 125.413 61.6608 127.335 61.6608C129.08 61.6608 130.171 60.3878 130.171 58.2979H130.169Z" fill="white"/>
  <path d="M133.896 60.0462H135.898C135.898 61.1795 136.551 61.8776 138.456 61.8776C140.259 61.8776 141.051 61.3214 141.051 60.4255C141.051 60.0485 140.912 59.7087 140.398 59.5295C139.923 59.3502 138.99 59.2502 137.901 59.1524C136.375 59.0128 135.344 58.815 134.75 58.3775C134.214 57.9795 133.896 57.2627 133.896 56.5065C133.896 54.5376 135.801 53.3438 138.456 53.3438C141.508 53.3438 142.856 54.6168 142.856 56.8462H140.855C140.834 55.5732 140.141 54.9565 138.515 54.9565C136.89 54.9565 136.098 55.5127 136.098 56.3481C136.098 56.767 136.196 57.1627 136.772 57.3628C137.247 57.5211 138.18 57.6212 139.368 57.7398C140.756 57.8795 141.548 58.0191 142.244 58.417C142.898 58.7755 143.275 59.5318 143.275 60.3277C143.275 62.3175 141.61 63.4904 138.479 63.4904C135.11 63.4904 133.899 61.9777 133.899 60.0485L133.896 60.0462Z" fill="white"/>
  <path d="M19.2695 19.3396H38.5363V0H19.2695V19.3396Z" fill="#9D9D9D"/>
  <path d="M38.5344 19.3438H19.2676V38.6833H38.5344V19.3438Z" fill="#B0B0B0"/>
  <path d="M19.2667 19.3438H0V38.6833H19.2667V19.3438Z" fill="#C1C1C1"/>
  <path d="M57.7715 38.6873H77.0383V19.3477H57.7715V38.6873Z" fill="#D1D1D1"/>
  <path d="M57.8038 38.6836H38.5371V58.0232H57.8038V38.6836Z" fill="white"/>
  <path d="M77.0343 38.6836H57.7676V58.0232H77.0343V38.6836Z" fill="#E8E8E8"/>
  <path d="M19.2667 38.6836H0V58.0232H19.2667V38.6836Z" fill="#D1D1D1"/>
  <path d="M57.8008 19.3396H77.0675V0H57.8008V19.3396Z" fill="#C2C2C2"/>
  <path d="M38.5371 19.3396H57.804V0H38.5371V19.3396Z" fill="#ADADAD"/>
  <path d="M38.5051 58.0234H19.2383V77.363H38.5051V58.0234Z" fill="#F1F1F1"/>
  <path d="M57.7687 58.0234H38.502V77.363H57.7687V58.0234Z" fill="white"/>
  <path d="M19.2667 58.0234H0V77.363H19.2667V58.0234Z" fill="#DDDDDD"/>
</svg>