<svg xmlns="http://www.w3.org/2000/svg" width="190" height="78" viewBox="0 0 190 78" fill="none">
  <g clip-path="url(#clip0_1016_1906)">
    <path d="M33.49 19.7323L48.3902 29.3775L36.4037 37.2665L25.7695 30.1801V47.8033L35.0954 41.484L32.661 39.883L28.3859 42.7478V35.1646L36.5455 40.6016L48.4922 48.2688L33.7961 57.9982L36.2705 59.5991L53.2416 48.2068L38.8161 38.8808L53.1396 29.3864L36.1685 17.9141L33.49 19.7323Z" fill="white"/>
    <path d="M2.41241 55.0819V22.4345L33.1573 2.80265L63.9021 22.4301V55.0819L33.1573 74.7095L2.41241 55.0819ZM32.4656 0.203991L0.439023 20.6474C0.252773 20.7671 0.101995 20.9312 0 21.1219V56.3902C0.101995 56.5809 0.252773 56.7448 0.439023 56.8646L32.4656 77.3123C32.5011 77.3346 32.541 77.3567 32.5809 77.379H33.7339C33.7739 77.3567 33.8093 77.3391 33.8493 77.3123L65.8756 56.8646C66.0132 56.7758 66.1327 56.6649 66.226 56.5365V20.98C66.1327 20.8514 66.0132 20.7405 65.8756 20.6518L33.8493 0.203991C33.6362 0.0709534 33.3969 0 33.1573 0C32.918 0 32.6784 0.0665187 32.4656 0.203991Z" fill="white"/>
    <path d="M162.202 56.6676H171V54.8581H164.26V50.2329H170.322V48.4237H164.26V44.0865H170.898V42.2772H162.207V56.6631L162.202 56.6676ZM157.728 54.468C157.386 54.6587 156.969 54.8181 156.473 54.9424C155.98 55.0667 155.395 55.1286 154.725 55.1286C153.985 55.1286 153.302 55.0088 152.681 54.7695C152.056 54.5299 151.515 54.1753 151.058 53.7006C150.597 53.2261 150.238 52.6409 149.981 51.9313C149.719 51.2262 149.59 50.4058 149.59 49.4745C149.59 48.4323 149.728 47.5544 150.003 46.8314C150.278 46.1132 150.641 45.5279 151.103 45.0842C151.559 44.6408 152.082 44.3171 152.664 44.1175C153.244 43.9181 153.843 43.8203 154.464 43.8203C155.834 43.8203 156.854 43.9801 157.528 44.2951L157.98 42.5255C157.581 42.3747 157.098 42.2507 156.522 42.1574C155.945 42.06 155.204 42.0156 154.3 42.0156C153.493 42.0156 152.677 42.153 151.856 42.428C151.036 42.7031 150.295 43.1376 149.635 43.7318C148.974 44.3261 148.442 45.0976 148.034 46.0423C147.621 46.9867 147.417 48.1308 147.417 49.4745C147.417 50.8182 147.604 51.8738 147.972 52.8137C148.34 53.7539 148.841 54.5255 149.471 55.1376C150.1 55.7449 150.832 56.1973 151.661 56.4944C152.49 56.7871 153.364 56.9379 154.282 56.9379C155.062 56.9379 155.803 56.8714 156.504 56.743C157.204 56.6142 157.776 56.3836 158.229 56.0555L157.737 54.4724L157.728 54.468ZM141.843 56.8714H142.996V42.2817H141.063V51.408L141.311 53.3194H141.209L140.038 51.408L132.703 42.0776H131.55V56.6676H133.484V47.5234L133.236 45.5101H133.32L134.553 47.5234L141.848 56.8759L141.843 56.8714ZM120.783 47.1286L121.333 44.8893H121.373L121.923 47.0886L123.573 51.1773H119.133L120.783 47.1286ZM125.71 56.6631H127.888L121.95 42.0734H120.881L114.961 56.6631H117.014L118.522 52.8626H124.162L125.71 56.6631ZM110.153 56.8669H111.306V42.2772H109.373V51.4035L109.621 53.315H109.519L108.349 51.4035L101.014 42.0734H99.8611V56.6631H101.794V47.5189L101.546 45.5056H101.63L102.863 47.5189L110.158 56.8714L110.153 56.8669ZM91.7904 55.306H90.1451V56.6631H95.4887V55.306H93.8434V43.6341H95.4887V42.2772H90.1451V43.6341H91.7904V55.306ZM77.5508 56.6631H79.6041V50.4368H85.7682V48.6275H79.6041V44.0865H86.2426V42.2772H77.5508V56.6631Z" fill="white"/>
    <path d="M184.987 22.9602C185.506 23.3859 185.767 23.9669 185.767 24.7074C185.767 25.1997 185.679 25.6165 185.501 25.9624C185.324 26.3039 185.08 26.5833 184.77 26.7961C184.459 27.009 184.1 27.1642 183.679 27.2706C183.262 27.3726 182.805 27.4258 182.313 27.4258H180.628V22.4503C180.721 22.4236 180.854 22.4015 181.018 22.3881C181.182 22.3749 181.359 22.3615 181.55 22.3482C181.741 22.335 181.936 22.3261 182.135 22.3261H182.721C183.705 22.3261 184.459 22.5389 184.982 22.9646M178.57 35.0889H180.623V28.7385L182.699 29.0267L186.974 35.0889H189.337L185.475 29.4657L184.406 28.7473C184.911 28.6232 185.382 28.4414 185.812 28.2019C186.242 27.9624 186.615 27.6653 186.934 27.3061C187.248 26.9513 187.497 26.5389 187.674 26.0733C187.852 25.6076 187.94 25.0844 187.94 24.5123C187.94 23.7717 187.794 23.1465 187.497 22.6409C187.2 22.1354 186.809 21.723 186.326 21.4081C185.838 21.0933 185.28 20.8671 184.641 20.7296C184.003 20.5922 183.342 20.5256 182.659 20.5256C182.344 20.5256 182.007 20.5345 181.652 20.5478C181.297 20.5611 180.938 20.5833 180.583 20.6099C180.229 20.6365 179.874 20.672 179.523 20.7119C179.173 20.7518 178.854 20.8006 178.57 20.8538V35.0975V35.0889ZM165.484 35.0889H174.282V33.2794H167.541V28.6542H173.603V26.8449H167.541V22.5079H174.18V20.6986H165.488V35.0844L165.484 35.0889ZM161.763 33.2794H154.406V20.703H152.353V35.0889H161.767V33.2794H161.763ZM145.981 32.304C145.807 32.5877 145.568 32.8228 145.262 33.0046C144.952 33.1864 144.592 33.3238 144.184 33.4126C143.772 33.5011 143.329 33.5455 142.85 33.5455C142.016 33.5455 141.249 33.457 140.557 33.2838C139.865 33.1065 139.346 32.9337 139.005 32.765L138.326 34.5522C138.725 34.7429 139.311 34.9247 140.082 35.0975C140.858 35.2707 141.808 35.355 142.93 35.355C143.763 35.355 144.513 35.2573 145.169 35.0579C145.825 34.8582 146.389 34.5745 146.854 34.2062C147.32 33.8381 147.674 33.3902 147.923 32.8714C148.171 32.3525 148.291 31.7673 148.291 31.1241C148.291 30.3437 148.104 29.7008 147.736 29.2041C147.368 28.7074 146.903 28.2817 146.34 27.9402C145.776 27.5988 145.173 27.3105 144.53 27.0755C143.887 26.8405 143.284 26.601 142.721 26.3482C142.158 26.0955 141.692 25.8072 141.324 25.4835C140.956 25.1553 140.77 24.7296 140.77 24.2019C140.77 23.6742 141.005 23.2307 141.47 22.8361C141.936 22.4414 142.637 22.2463 143.568 22.2463C144.388 22.2463 145.142 22.3128 145.83 22.4503C146.513 22.5877 147.027 22.7385 147.373 22.9026L148.011 21.1775C147.573 20.9602 146.969 20.7784 146.202 20.6454C145.435 20.5079 144.592 20.4414 143.675 20.4414C142.087 20.4414 140.863 20.7961 140.007 21.5101C139.151 22.2241 138.721 23.1598 138.721 24.3261C138.721 25.1598 138.907 25.8382 139.275 26.3616C139.643 26.8804 140.109 27.3061 140.672 27.6343C141.235 27.9624 141.838 28.2329 142.482 28.4458C143.124 28.6586 143.728 28.8848 144.291 29.1198C144.854 29.3593 145.32 29.6387 145.688 29.967C146.056 30.2951 146.242 30.7341 146.242 31.2928C146.242 31.6874 146.158 32.0289 145.985 32.3126M132.22 35.0975H134.273V20.703H132.22V26.8493H124.925V20.703H122.872V35.0889H124.925V28.6542H132.22V35.0889V35.0975ZM118.451 32.8982C118.109 33.0889 117.692 33.2484 117.196 33.3726C116.703 33.4969 116.118 33.5589 115.448 33.5589C114.708 33.5589 114.025 33.4391 113.404 33.1998C112.779 32.9602 112.238 32.6056 111.781 32.1308C111.32 31.6564 110.96 31.0711 110.703 30.3615C110.442 29.6564 110.313 28.836 110.313 27.9048C110.313 26.8627 110.451 25.9846 110.726 25.2618C111 24.5434 111.364 23.958 111.825 23.5145C112.282 23.0711 112.805 22.7474 113.386 22.5478C113.967 22.3482 114.566 22.2507 115.187 22.2507C116.557 22.2507 117.577 22.4103 118.251 22.7252L118.703 20.9558C118.304 20.805 117.821 20.6808 117.244 20.5877C116.668 20.4946 115.927 20.4458 115.023 20.4458C114.216 20.4458 113.4 20.5833 112.579 20.8582C111.759 21.1332 111.018 21.5678 110.358 22.162C109.701 22.7562 109.165 23.5278 108.757 24.4724C108.349 25.417 108.14 26.5611 108.14 27.9048C108.14 29.2484 108.326 30.304 108.694 31.2439C109.062 32.1842 109.564 32.9557 110.193 33.5678C110.823 34.1752 111.555 34.6276 112.384 34.9247C113.213 35.2173 114.087 35.3681 115.005 35.3681C115.785 35.3681 116.526 35.3017 117.227 35.1729C117.927 35.0445 118.499 34.8138 118.952 34.4857L118.459 32.9027L118.451 32.8982ZM94.7166 23.6387C95.4926 22.7119 96.5347 22.2507 97.8516 22.2507C98.6056 22.2507 99.2532 22.4059 99.7941 22.7119C100.335 23.0179 100.779 23.4303 101.129 23.9447C101.48 24.4636 101.737 25.0578 101.91 25.7407C102.082 26.4192 102.167 27.142 102.167 27.9048C102.167 29.8516 101.781 31.2794 101.005 32.1886C100.229 33.102 99.1778 33.5544 97.8516 33.5544C97.1111 33.5544 96.4724 33.4036 95.9316 33.1065C95.3907 32.8049 94.9472 32.4014 94.5968 31.8826C94.2463 31.3637 93.9891 30.7695 93.8163 30.0865C93.6434 29.4081 93.5591 28.6808 93.5591 27.9048C93.5591 25.989 93.945 24.5655 94.721 23.6431M91.7809 30.9468C92.047 31.8647 92.4505 32.6497 92.9824 33.3017C93.5147 33.9535 94.1888 34.4592 94.9958 34.8228C95.8028 35.1863 96.7564 35.3681 97.8516 35.3681C98.8673 35.3681 99.772 35.1997 100.575 34.8627C101.377 34.5256 102.056 34.0423 102.619 33.4036C103.182 32.765 103.608 31.9845 103.905 31.0622C104.198 30.1353 104.348 29.0844 104.348 27.9092C104.348 26.8005 104.216 25.785 103.949 24.8671C103.683 23.9491 103.28 23.1642 102.739 22.5123C102.198 21.8604 101.519 21.3549 100.704 20.9913C99.887 20.6276 98.9382 20.4458 97.8561 20.4458C96.8408 20.4458 95.936 20.6143 95.1332 20.9513C94.3306 21.2884 93.6521 21.7717 93.0978 22.4103C92.5435 23.0489 92.1179 23.8294 91.8253 24.7518C91.5323 25.6786 91.3818 26.7296 91.3818 27.9048C91.3818 29.0134 91.5147 30.029 91.7809 30.9468ZM79.6122 27.0001V22.3172C79.8163 22.2906 80.1224 22.264 80.5214 22.2463C80.9249 22.2241 81.3639 22.2152 81.8428 22.2152C82.2377 22.2152 82.6278 22.2418 83.0092 22.2995C83.3907 22.3527 83.7319 22.4591 84.0335 22.6099C84.3351 22.7607 84.5747 22.9779 84.7609 23.2618C84.9472 23.5456 85.0357 23.9225 85.0357 24.3926C85.0357 24.7385 84.9692 25.0445 84.8319 25.315C84.6945 25.5855 84.5124 25.8205 84.2776 26.0201C84.0469 26.2196 83.7763 26.3926 83.4702 26.5389C83.1645 26.6852 82.8405 26.805 82.4993 26.9026C82.2687 26.9292 81.9805 26.9558 81.639 26.9735C81.2975 26.9957 80.9959 27.0045 80.7387 27.0045H79.6122V27.0001ZM79.6122 28.601H81.5326C81.9936 28.601 82.4639 28.6276 82.9428 28.6719C83.4172 28.7207 83.8472 28.8316 84.2287 29.0045C84.6101 29.1775 84.9204 29.4258 85.1555 29.7495C85.3951 30.0734 85.5104 30.5123 85.5104 31.0666C85.5104 31.5101 85.4127 31.8871 85.2133 32.2062C85.0181 32.5257 84.752 32.7873 84.4283 32.9957C84.1002 33.204 83.7233 33.3548 83.2974 33.4525C82.8674 33.55 82.4239 33.5988 81.9626 33.5988C81.7719 33.5988 81.5636 33.5988 81.3419 33.5899C81.1157 33.5809 80.8939 33.5723 80.6678 33.5589C80.4416 33.5455 80.2377 33.5324 80.047 33.519C79.8563 33.5055 79.7144 33.4835 79.6167 33.457V28.6099L79.6122 28.601ZM86.7209 22.2906C86.3928 21.8383 85.9759 21.4835 85.466 21.2219C84.9558 20.9602 84.3929 20.7784 83.7718 20.6764C83.1466 20.5744 82.5434 20.5212 81.9537 20.5212C81.0891 20.5212 80.2818 20.5478 79.5282 20.6054C78.7742 20.6587 78.118 20.7341 77.5547 20.8316V34.9911C77.8563 35.0579 78.202 35.1109 78.5924 35.1464C78.9825 35.1819 79.3729 35.2084 79.763 35.2307C80.1534 35.2528 80.5259 35.2662 80.885 35.2707C81.2399 35.2796 81.5412 35.2796 81.7898 35.2796C82.5038 35.2796 83.2131 35.1953 83.9182 35.0311C84.6233 34.8672 85.2574 34.61 85.8207 34.2595C86.3839 33.9091 86.8363 33.4656 87.1778 32.9247C87.519 32.3838 87.6922 31.7452 87.6922 31.0046C87.6922 30.4414 87.5944 29.958 87.404 29.5456C87.2133 29.1331 86.9605 28.7872 86.6455 28.499C86.3305 28.2108 85.967 27.9846 85.5545 27.8205C85.1424 27.6564 84.721 27.5456 84.282 27.4924V27.4081C84.7875 27.2972 85.2264 27.1287 85.5989 26.8937C85.967 26.6587 86.273 26.3881 86.5126 26.0822C86.7519 25.7762 86.9293 25.4436 87.0446 25.0977C87.1599 24.7473 87.2177 24.397 87.2177 24.0378C87.2177 23.3238 87.0535 22.7429 86.7254 22.2906" fill="white"/>
  </g>
  <defs>
    <clipPath id="clip0_1016_1906">
      <rect width="190" height="78" fill="white"/>
    </clipPath>
  </defs>
</svg>