<svg xmlns="http://www.w3.org/2000/svg" width="148" height="78" viewBox="0 0 148 78" fill="none">
  <g clip-path="url(#clip0_1016_2035)">
    <path d="M60.0075 45.9103H12.2173V12.1276H55.2215L84.9207 29.0233H109.495L86.9047 16.1701L58.4673 0H0V58.0379H81.3356L60.0075 45.9103Z" fill="white"/>
    <path d="M66.6638 0L87.9919 12.1276H135.782V45.9103H92.7778L63.0786 29.0233H38.4961L89.5321 58.0379H147.999V0H66.6638Z" fill="white"/>
    <path d="M2.26246 66.8828H0V77.8702H2.26246V66.8828Z" fill="white"/>
    <path d="M9.99045 75.8928C9.38427 75.8986 8.78679 75.7494 8.25546 75.4597C7.72414 75.17 7.27686 74.7494 6.95663 74.2385C6.63641 73.7276 6.45401 73.1434 6.42699 72.5423C6.39998 71.9411 6.52925 71.3432 6.80237 70.8059C7.07549 70.2687 7.48326 69.8103 7.98649 69.4748C8.48971 69.1392 9.07145 68.9379 9.67574 68.8901C10.28 68.8423 10.8865 68.9496 11.437 69.2018C11.9874 69.454 12.4631 69.8425 12.8185 70.33L14.5589 68.8702C13.9998 68.2077 13.3007 67.6755 12.5111 67.3113C11.7216 66.9471 10.8611 66.7597 9.99045 66.7625C9.22128 66.7202 8.45149 66.834 7.72814 67.097C7.00479 67.36 6.34308 67.7667 5.78347 68.2923C5.22386 68.8178 4.77811 69.4511 4.47348 70.1535C4.16884 70.8558 4.01172 71.6125 4.01172 72.3772C4.01172 73.1419 4.16884 73.8985 4.47348 74.6009C4.77811 75.3032 5.22386 75.9366 5.78347 76.4621C6.34308 76.9876 7.00479 77.3943 7.72814 77.6573C8.45149 77.9203 9.22128 78.0341 9.99045 77.9918C10.8598 77.9973 11.7197 77.8129 12.5092 77.4517C13.2987 77.0904 13.9985 76.5612 14.5589 75.9014L12.8185 74.4416C12.5 74.8914 12.0763 75.2577 11.5836 75.509C11.091 75.7603 10.5443 75.889 9.99045 75.8841" fill="white"/>
    <path d="M18.4833 73.1979V68.8185H20.4325C20.7391 68.7775 21.0511 68.8052 21.3455 68.8996C21.6399 68.994 21.9093 69.1527 22.1338 69.364C22.3583 69.5752 22.5323 69.8338 22.643 70.1205C22.7537 70.4073 22.7982 70.7151 22.7733 71.0212C22.7733 72.3082 21.9031 73.1979 20.1628 73.1979H18.4833ZM16.2383 66.875V77.871H18.4833V75.0464H20.3542C23.1649 75.0464 25.1315 73.8458 25.1315 70.8398C25.1315 68.784 24.0264 66.875 20.7806 66.875H16.2383Z" fill="white"/>
    <path d="M36.9658 72.3777V74.2434H39.7765V75.2713C39.0021 75.7765 38.0924 76.0383 37.1659 76.0228C36.2105 76.0228 35.2942 75.6461 34.6185 74.9754C33.9429 74.3048 33.5634 73.3952 33.5634 72.4468C33.5634 71.4983 33.9429 70.5887 34.6185 69.9181C35.2942 69.2475 36.2105 68.8707 37.1659 68.8707C38.2673 68.8411 39.3414 69.2129 40.1854 69.9159L41.5951 68.3524C40.3713 67.2927 38.7892 66.7312 37.1659 66.7803C35.6658 66.7803 34.2271 67.3719 33.1664 68.4248C32.1057 69.4777 31.5098 70.9058 31.5098 72.3949C31.5098 73.884 32.1057 75.3121 33.1664 76.3651C34.2271 77.418 35.6658 78.0096 37.1659 78.0096C38.9315 78.0407 40.6535 77.4638 42.0389 76.377V72.3604L36.9658 72.3777Z" fill="white"/>
    <path d="M46.2412 76.0044V66.8828H43.9961V77.8702H51.9408V76.0044H46.2412Z" fill="white"/>
    <path d="M58.3548 75.9089C57.6545 75.9004 56.9724 75.6865 56.3943 75.2941C55.8162 74.9017 55.368 74.3483 55.1059 73.7036C54.8439 73.059 54.7797 72.3517 54.9216 71.671C55.0635 70.9902 55.405 70.3663 55.9032 69.8777C56.4014 69.3892 57.034 69.0578 57.7215 68.9253C58.409 68.7927 59.1206 68.865 59.7668 69.133C60.413 69.4009 60.965 69.8526 61.3532 70.4312C61.7414 71.0098 61.9486 71.6895 61.9486 72.3846C61.9475 72.8508 61.8535 73.3121 61.6719 73.742C61.4904 74.1719 61.2249 74.5619 60.8909 74.8895C60.5568 75.217 60.1607 75.4758 59.7255 75.6507C59.2902 75.8257 58.8244 75.9134 58.3548 75.9089ZM58.3548 66.7786C57.2469 66.8244 56.177 67.1923 55.2781 67.8368C54.3792 68.4812 53.6909 69.3737 53.2989 70.4033C52.9069 71.433 52.8284 72.5542 53.0731 73.6278C53.3179 74.7013 53.8751 75.6798 54.6756 76.4415C55.476 77.2032 56.4844 77.7146 57.5752 77.912C58.6661 78.1094 59.7913 77.9842 60.8111 77.5519C61.8308 77.1197 62.7001 76.3994 63.3108 75.4807C63.9215 74.562 64.2467 73.4853 64.2459 72.3846C64.2301 71.6325 64.0651 70.8909 63.7605 70.202C63.4558 69.5132 63.0174 68.8907 62.4704 68.3701C61.9233 67.8495 61.2782 67.441 60.5721 67.168C59.8659 66.8949 59.1125 66.7626 58.3548 66.7786Z" fill="white"/>
    <path d="M68.3092 75.9439V72.3765H70.998C72.5208 72.3765 73.1735 73.2403 73.1735 74.1645C73.1735 75.1925 72.5382 75.9439 70.9806 75.9439H68.3092ZM68.3092 68.8177H70.1626C70.9458 68.8177 71.3896 69.241 71.3896 69.7679C71.3931 69.9019 71.3674 70.035 71.3144 70.1583C71.2614 70.2816 71.1822 70.3921 71.0823 70.4822C70.9824 70.5724 70.864 70.6401 70.7354 70.6808C70.6067 70.7215 70.4707 70.7342 70.3367 70.718H68.3092V68.8177ZM73.3997 69.3187C73.4031 69.0022 73.3438 68.6882 73.2249 68.3945C73.1061 68.1008 72.9301 67.8332 72.7071 67.607C72.4841 67.3808 72.2184 67.2004 71.9251 67.0761C71.6319 66.9519 71.3168 66.8862 70.998 66.8828H66.125V77.8788H72.2163C72.6695 77.888 73.1198 77.8039 73.5387 77.6317C73.9576 77.4594 74.3359 77.2029 74.6499 76.8782C74.9639 76.5536 75.2066 76.1679 75.3629 75.7454C75.5192 75.3229 75.5855 74.8729 75.5577 74.4237C75.5663 73.5866 75.2685 72.7748 74.7195 72.1393C74.1705 71.5038 73.4078 71.0878 72.573 70.9685C72.8317 70.7796 73.0394 70.5301 73.1776 70.2423C73.3157 69.9544 73.3801 69.6372 73.3649 69.3187H73.3997Z" fill="white"/>
    <path d="M82.0669 70.1574L83.8072 73.7853H80.457L82.0669 70.1574ZM85.5476 77.8797H87.9232L82.6586 66.875H81.5448L76.2715 77.871H78.6384L79.6304 75.6424H84.5817L85.5476 77.8797Z" fill="white"/>
    <path d="M91.5341 76.0044V66.8828H89.2891V77.8702H97.2338V76.0044H91.5341Z" fill="white"/>
    <path d="M112.227 68.8177V66.8828H103.891V77.8702H106.075V74.6655H111.365V72.7306H106.075V68.8177H112.227Z" fill="white"/>
    <path d="M123.617 66.875H121.416V72.9215C121.416 74.9773 120.494 75.9793 118.701 75.9793C116.908 75.9793 116.003 74.96 116.003 72.9215V66.875H113.811V73.4571C113.811 75.9966 115.49 77.9919 118.692 77.9919C121.895 77.9919 123.609 75.9793 123.609 73.4571L123.617 66.875Z" fill="white"/>
    <path d="M133.494 66.8828V73.8018L126.898 66.8828H125.793V77.8702H128.038V70.9513L134.651 77.8702H135.748V66.8828H133.494Z" fill="white"/>
    <path d="M140.229 75.8325V68.9222H142.431C143.333 68.9535 144.187 69.3313 144.814 69.9759C145.44 70.6205 145.79 71.4815 145.79 72.3773C145.816 73.2528 145.497 74.1039 144.901 74.7493C144.304 75.3947 143.477 75.7833 142.596 75.8325H140.229ZM148 72.3773C147.996 70.9149 147.406 69.5141 146.362 68.4825C145.318 67.4509 143.904 66.8727 142.431 66.875H138.08V77.871H142.823C144.234 77.8039 145.564 77.1937 146.531 76.1699C147.497 75.146 148.024 73.7889 148 72.386V72.3773Z" fill="white"/>
  </g>
  <defs>
    <clipPath id="clip0_1016_2035">
      <rect width="148" height="78" fill="white"/>
    </clipPath>
  </defs>
</svg>