<svg xmlns="http://www.w3.org/2000/svg" width="237" height="82" viewBox="0 0 237 82" fill="none">
<path d="M227.737 24.1987C227.737 23.0157 228.696 22.0566 229.879 22.0566H234.18C235.363 22.0566 236.322 23.0157 236.322 24.1987V45.0134C236.322 47.6665 235.69 49.9778 234.427 51.9473C233.165 53.9053 231.404 55.423 229.144 56.5004C226.885 57.5663 224.261 58.0992 221.272 58.0992C218.248 58.0992 215.607 57.5663 213.348 56.5004C211.088 55.423 209.333 53.9053 208.082 51.9473C206.831 49.9778 206.205 47.6665 206.205 45.0134V24.1987C206.205 23.0157 207.164 22.0566 208.347 22.0566H212.665C213.848 22.0566 214.807 23.0157 214.807 24.1987V44.2661C214.807 45.4942 215.074 46.589 215.607 47.5506C216.151 48.5122 216.91 49.2653 217.883 49.8098C218.856 50.3543 219.986 50.6266 221.272 50.6266C222.558 50.6266 223.682 50.3543 224.643 49.8098C225.617 49.2653 226.375 48.5122 226.92 47.5506C227.465 46.589 227.737 45.4942 227.737 44.2661V24.1987Z" fill="white"/>
<path d="M173.982 57.6474C172.799 57.6474 171.84 56.6883 171.84 55.5053V24.1987C171.84 23.0157 172.799 22.0566 173.982 22.0566H178.3C179.483 22.0566 180.442 23.0157 180.442 24.1987V36.7908C180.442 36.965 180.583 37.1062 180.758 37.1062C180.855 37.1062 180.946 37.0616 181.006 36.9851L192.033 22.8794C192.439 22.3601 193.062 22.0566 193.721 22.0566H198.371C200.164 22.0566 201.163 24.1273 200.048 25.5311L191.151 36.7317C190.578 37.4536 190.531 38.4613 191.034 39.2336L200.876 54.3357C201.804 55.7606 200.782 57.6474 199.081 57.6474H193.925C193.191 57.6474 192.508 57.2717 192.115 56.6517L185.498 46.2072C184.709 44.961 182.925 44.8672 182.009 46.0236L180.905 47.418C180.605 47.7965 180.442 48.2651 180.442 48.748V55.5053C180.442 56.6883 179.483 57.6474 178.3 57.6474H173.982Z" fill="white"/>
<path d="M157.864 24.1987C157.864 23.0157 158.823 22.0566 160.006 22.0566H164.307C165.49 22.0566 166.449 23.0157 166.449 24.1987V45.0134C166.449 47.6665 165.817 49.9778 164.554 51.9473C163.292 53.9053 161.531 55.423 159.271 56.5004C157.012 57.5663 154.388 58.0992 151.399 58.0992C148.375 58.0992 145.734 57.5663 143.475 56.5004C141.215 55.423 139.46 53.9053 138.209 51.9473C136.958 49.9778 136.332 47.6665 136.332 45.0134V24.1987C136.332 23.0157 137.291 22.0566 138.474 22.0566H142.792C143.975 22.0566 144.934 23.0157 144.934 24.1987V44.2661C144.934 45.4942 145.201 46.589 145.734 47.5506C146.278 48.5122 147.037 49.2653 148.01 49.8098C148.983 50.3543 150.113 50.6266 151.399 50.6266C152.685 50.6266 153.809 50.3543 154.77 49.8098C155.744 49.2653 156.502 48.5122 157.047 47.5506C157.591 46.589 157.864 45.4942 157.864 44.2661V24.1987Z" fill="white"/>
<path d="M99.8866 25.2298C99.1027 23.8022 100.136 22.0566 101.764 22.0566H106.437C107.245 22.0566 107.984 22.5114 108.349 23.2327L115.209 36.8102C115.252 36.8959 115.34 36.9498 115.436 36.9498C115.532 36.9498 115.619 36.8959 115.663 36.8102L122.523 23.2327C122.887 22.5114 123.626 22.0566 124.435 22.0566H129.107C130.736 22.0566 131.768 23.8022 130.985 25.2298L119.975 45.279C119.802 45.595 119.711 45.9496 119.711 46.3101V55.5053C119.711 56.6883 118.752 57.6474 117.569 57.6474H113.303C112.12 57.6474 111.161 56.6883 111.161 55.5053V46.3101C111.161 45.9496 111.07 45.595 110.896 45.279L99.8866 25.2298Z" fill="white"/>
<path d="M81.4 40.7C81.4 63.178 63.178 81.4 40.7 81.4C18.222 81.4 0 63.178 0 40.7C0 18.222 18.222 0 40.7 0C63.178 0 81.4 18.222 81.4 40.7Z" fill="white"/>
<path d="M18.3145 16.2832L38.2588 32.2387V64.2307L18.3145 64.1496V16.2832Z" fill="black"/>
<path d="M64.1855 16.2832L44.2412 32.2387V64.2307L64.1855 64.1496V16.2832Z" fill="black"/>
</svg>