<svg width="16" height="13" viewBox="0 0 16 13" fill="none" xmlns="http://www.w3.org/2000/svg">
<g id="Group 636011">
<path id="&#239;&#189;&#158;" d="M7.21297 3.19218C6.46919 2.47557 5.84649 2.03583 4.65297 2.03583C3.52865 2.03583 2.5427 2.81759 1.88541 3.97394L0 3.01303C1.15892 0.993486 2.83676 0 4.68757 0C6.34811 0 7.59351 0.58632 8.78703 1.80782C9.53081 2.54072 10.1708 2.96417 11.347 2.96417C12.4714 2.96417 13.4573 2.18241 14.1146 1.02606L16 1.98697C14.8411 4.00651 13.1632 5 11.3124 5C9.65189 5 8.40649 4.41368 7.21297 3.19218Z" fill="#A5A7AD"/>
<path id="&#239;&#189;&#158;_2" d="M7.21297 11.1922C6.46919 10.4756 5.84649 10.0358 4.65297 10.0358C3.52865 10.0358 2.5427 10.8176 1.88541 11.9739L0 11.013C1.15892 8.99349 2.83676 8 4.68757 8C6.34811 8 7.59351 8.58632 8.78703 9.80782C9.53081 10.5407 10.1708 10.9642 11.347 10.9642C12.4714 10.9642 13.4573 10.1824 14.1146 9.02606L16 9.98697C14.8411 12.0065 13.1632 13 11.3124 13C9.65189 13 8.40649 12.4137 7.21297 11.1922Z" fill="#A5A7AD"/>
</g>
</svg>
