<svg xmlns="http://www.w3.org/2000/svg" width="18" height="18" fill="none" viewBox="0 0 18 18">
  <path fill="#F06C10" d="M7.348 16.7c-.856-.507-1.469-1.399-1.504-2.448-.05-1.961 1.312-2.923 2.119-4.237 1.154-1.89.839-3.063.839-3.063s.963.543 1.523 2.555c.175.595.21 1.192.158 1.752-.087 1.418-.7 2.694-.7 2.694s1.068-.227 1.365-2.17c.491.508.946 1.242.997 2.013.088 1.33-.698 2.555-1.89 3.079 2.063-.473 3.536-2.222 4.044-3.5.646-1.609.472-3.044.366-4.287-.14-1.697.455-2.958.455-2.958s-1.137.333-1.978 1.715c-.385.63-.542 1.557-.542 1.557s.088-.822-.456-2.327c-.54-1.47-1.033-1.995-1.33-3.079-.384-1.454.472-2.871.472-2.871s-3.393.631-4.934 3.588c-1.365 2.624-.805 4.2-.805 4.2s-.578-.543-.875-1.296c-.297-.752-.23-1.434-.23-1.434s-2.413 2.66-1.24 6.003c.788 2.345 2.31 3.885 4.146 4.515Z"/>
</svg>
