<svg width="40" height="40" fill="none" xmlns="http://www.w3.org/2000/svg"><g clip-path="url(#prefix__clip0_316_4384)" fill="#fff"><path d="M31.585 1.664h.905c1.991.307 3.186 1.409 3.765 2.71 1.72 3.882-2.226 7.765-6.081 6.067-1.973-.867-3.512-3.792-2.209-6.339.561-1.101 1.847-2.149 3.62-2.438zm-2.461 4.66c.072 3.431 5.014 3.63 5.756.776.615-2.33-1.358-3.937-3.24-3.684-1.702.235-2.552 1.445-2.516 2.908zm-9.152 2.094c2.747-.307 5.186 1.8 5.042 4.772-.054 1.099-.578 2.233-1.23 2.9-2.746 2.88-7.951.918-7.951-3.152 0-2.575 1.735-4.25 4.139-4.52zm-2.458 4.394c-.055 1.567 1.102 2.953 2.783 3.025 4.193.162 3.904-6.357-.325-5.726-1.482.197-2.404 1.224-2.458 2.7zm11.492 2.255c3.195-.363 5.615 2.336 4.983 5.506-.94 4.618-7.692 4.709-8.92.253-.685-2.517.867-4.636 2.384-5.379.397-.181 1.01-.326 1.553-.38zm-2.33 3.695c-1.137 4.419 5.724 5.07 5.742.85.018-1.992-1.553-3.169-3.43-2.843-1.373.218-2.04.978-2.311 1.993z"/><path d="M25.296 27.975c2.857-.65 6.473-1.681 9.709-2.53 1.012-.272 2.368-.922 3.435-.651 1.736.452 2.007 3.344 1.03 4.844-.542.85-2.53 1.97-3.489 2.585-1.32.85-2.53 1.482-3.815 2.205-2.784 1.555-5.243 3.073-8.353 3.76-2.17.47-4.628-.307-6.599-.85-3.562-.976-6.87-2.277-11.264-2.331H2.587c-1.12 0-2.531.162-2.585-.778-.055-1.03 1.157-.904 2.459-.904 1.265 0 2.53-.018 3.363 0 4.267.127 7.557 1.392 11.065 2.332 1.826.488 4.194 1.211 6.147.976 1.681-.217 3.345-1.102 4.719-1.753 2.965-1.41 5.532-2.874 8.28-4.664 1.176-.759 3.074-2.024 1.88-3.814-3.688.94-7.864 2.08-11.842 3.11-1.302.343-2.766.976-4.014.976-.759 0-1.392-.398-2.133-.651-1.41-.47-2.784-.796-4.267-1.302-.868-.289-1.446-.813-1.03-1.482.452-.741 3.091.38 3.76.579.615.198 1.338.47 1.88.65.633.2 1.339.56 1.935.524a1.67 1.67 0 001.483-2.006c-.2-1.066-1.772-1.681-2.46-2.079-2.078-1.175-3.742-2.114-5.749-3.308-1.916-1.12-4.158-2.91-7.376-2.006-1.754.488-4.231 1.97-5.75 2.91-.488.308-1.012 1.139-1.681 1.03-.326-.054-.615-.451-.651-.704-.09-.76.994-1.14 1.681-1.61a22.43 22.43 0 012.007-1.228c1.88-.994 3.218-2.097 5.171-2.26.85-.072 2.423-.09 3.309.127 1.085.27 2.151 1.12 3.236 1.753 2.134 1.23 4.086 2.35 6.274 3.615 1.862 1.121 4.032 1.826 3.598 4.935z"/></g><defs><clipPath id="prefix__clip0_316_4384"><path fill="#fff" d="M0 0h40v40H0z"/></clipPath></defs></svg>