<svg width="244" height="279" fill="none" xmlns="http://www.w3.org/2000/svg"><g filter="url(#prefix__filter0_f_217_3449)"><path d="M122 14.998l108 62.25v124.5l-108 62.25-108-62.25v-124.5l108-62.25z" stroke="#AB22FF" stroke-width="4"/></g><g opacity=".81" filter="url(#prefix__filter1_f_217_3449)"><path d="M122 14.998l108 62.25v124.5l-108 62.25-108-62.25v-124.5l108-62.25z" stroke="#FF22DC" stroke-width="2"/></g><path d="M122 14.998l108 62.25v124.5l-108 62.25-108-62.25v-124.5l108-62.25z" stroke="url(#prefix__paint0_linear_217_3449)" stroke-width="3"/><g filter="url(#prefix__filter2_f_217_3449)"><path d="M122 14.998l108 62.25v124.5l-108 62.25-108-62.25v-124.5l108-62.25z" stroke="url(#prefix__paint1_linear_217_3449)"/></g><defs><filter id="prefix__filter0_f_217_3449" x="0" y=".689" width="244" height="277.617" filterUnits="userSpaceOnUse" color-interpolation-filters="sRGB"><feFlood flood-opacity="0" result="BackgroundImageFix"/><feBlend in="SourceGraphic" in2="BackgroundImageFix" result="shape"/><feGaussianBlur stdDeviation="6" result="effect1_foregroundBlur_217_3449"/></filter><filter id="prefix__filter1_f_217_3449" x="5" y="5.844" width="234" height="267.309" filterUnits="userSpaceOnUse" color-interpolation-filters="sRGB"><feFlood flood-opacity="0" result="BackgroundImageFix"/><feBlend in="SourceGraphic" in2="BackgroundImageFix" result="shape"/><feGaussianBlur stdDeviation="4" result="effect1_foregroundBlur_217_3449"/></filter><filter id="prefix__filter2_f_217_3449" x="12.3" y="13.222" width="219.4" height="252.552" filterUnits="userSpaceOnUse" color-interpolation-filters="sRGB"><feFlood flood-opacity="0" result="BackgroundImageFix"/><feBlend in="SourceGraphic" in2="BackgroundImageFix" result="shape"/><feGaussianBlur stdDeviation=".6" result="effect1_foregroundBlur_217_3449"/></filter><linearGradient id="prefix__paint0_linear_217_3449" x1="122" y1="14.998" x2="122" y2="263.998" gradientUnits="userSpaceOnUse"><stop stop-color="#9122FF"/><stop offset=".517" stop-color="#C022FF"/><stop offset="1" stop-color="#FF228C"/></linearGradient><linearGradient id="prefix__paint1_linear_217_3449" x1="122" y1="14.998" x2="122" y2="263.998" gradientUnits="userSpaceOnUse"><stop stop-color="#fff" stop-opacity="0"/><stop offset=".511" stop-color="#fff"/><stop offset="1" stop-color="#fff" stop-opacity="0"/></linearGradient></defs></svg>