<svg width="40" height="40" fill="none" xmlns="http://www.w3.org/2000/svg"><path d="M5.1 26.9c-.3 0-.6-.2-.6-.5V13.8c0-.3.2-.6.5-.6h.1c.3 0 .6.2.6.5v12.6c0 .3-.2.6-.6.6zm2.2-16.3c-.2 0-.4-.1-.6-.3-.2-.3-.1-.7.2-.9l10.4-6.1c.3-.2.7-.1.9.2.2.3.1.7-.2.9L7.6 10.6h-.3zm27.6 16.3c-.3 0-.6-.2-.6-.5V13.8c0-.3.3-.6.6-.6s.6.3.6.6v12.5c0 .3-.2.6-.6.6zm-17.3 9.9c-.1 0-.2 0-.3-.1L6.9 30.6c-.3-.2-.4-.6-.2-.9.2-.3.6-.4.9-.2L18 35.6c.3.2.4.6.2.9-.1.1-.3.2-.6.3zm4.8 0c-.2 0-.4-.1-.6-.3-.2-.3-.1-.7.3-.9l10.4-6.1c.3-.2.7-.1.9.2.2.3.1.7-.2.9l-10.4 6.1c-.2 0-.3.1-.4.1zm10.3-26.2c-.1 0-.2 0-.3-.1L22 4.4c-.3-.2-.4-.6-.3-.9.2-.3.6-.4.9-.2L33 9.4c.3.2.4.6.2.9 0 .2-.2.3-.5.3zM20 6.2c-1.7 0-3.1-1.4-3.1-3.1V3c0-1.6 1.4-3 3.1-3 1.7 0 3.1 1.4 3.1 3.1 0 1.7-1.3 3.1-3.1 3.1zM20 40c-1.7 0-3.1-1.4-3.1-3.1 0-1.7 1.4-3.1 3.1-3.1 1.7 0 3.1 1.4 3.1 3.1 0 1.7-1.3 3.1-3.1 3.1zm14.9-8.1c-1.7 0-3.1-1.4-3.1-3.1 0-1.7 1.4-3.1 3.1-3.1 1.7 0 3.1 1.4 3.1 3.1 0 1.7-1.3 3.1-3.1 3.1zm0-17.5c-1.7 0-3.1-1.4-3.1-3.1 0-1.7 1.4-3.1 3.1-3.1 1.7 0 3.1 1.4 3.1 3.1 0 1.7-1.3 3.1-3.1 3.1zm-29.8 0C3.4 14.4 2 13 2 11.2c0-1.7 1.4-3.1 3.1-3.1 1.7 0 3.2 1.4 3.2 3.1 0 1.7-1.5 3.2-3.2 3.2zm0 17.5c-1.7 0-3.1-1.4-3.1-3.1 0-1.7 1.4-3.1 3.1-3.1 1.9 0 3.4 1.3 3.4 3.1S7 32.1 5.1 31.9zM20 35c-.3 0-.6-.2-.6-.5v-12c0-.3.2-.6.5-.6h.1c.3 0 .6.2.6.6v12c0 .2-.2.5-.6.5zm0-16.9c-.3 0-.6-.2-.6-.5v-12c0-.3.3-.6.6-.6s.6.3.6.6v11.9c0 .3-.2.6-.6.6zm-2.2 1.3c-.1 0-.2 0-.3-.1L6.9 13.1c-.3-.2-.4-.6-.2-.9.2-.3.6-.4.9-.2l10.6 6.2c.3.2.4.6.2.9-.1.1-.3.3-.6.3zm4.4 0c-.2 0-.4-.1-.6-.3-.2-.3-.1-.7.3-.9L32.5 12c.3-.2.7-.1.9.2.2.3.1.7-.2.9l-10.6 6.2c-.2 0-.4.1-.4.1zm10.5 8.7c-.1 0-.2 0-.3-.1l-10.6-6.2c-.3-.2-.4-.6-.3-.9.2-.3.6-.4.9-.3L33 26.9c.3.2.4.6.2.9 0 .2-.2.3-.5.3zm-25.4 0c-.2 0-.4-.1-.6-.3-.2-.3-.1-.7.2-.9l10.6-6.3c.3-.2.7 0 .9.3.2.3.1.7-.2.9L7.6 28c-.1.1-.3.1-.3.1zm12.7-5c-1.7 0-3.1-1.4-3.1-3.1 0-1.7 1.4-3.1 3.1-3.1 1.7 0 3.1 1.4 3.1 3.1 0 1.7-1.3 3.1-3.1 3.1zM6.3 27.2c-.1 0-.2 0-.3-.1-.3-.2-.4-.5-.2-.8v-.1L18.3 4.9c.2-.3.6-.4.9-.2.3.2.3.6.1.9L6.8 26.9c-.1.2-.3.3-.5.3zm27.4 0c-.2 0-.4-.1-.6-.3L20.8 5.6c-.2-.3-.1-.7.3-.9.3-.2.7-.1.9.2l12.4 21.3c.2.3.1.7-.3.9-.1.1-.4.1-.4.1zm-1.3 2.2H7.6c-.3 0-.6-.3-.6-.6s.3-.6.6-.6h24.8c.3 0 .6.3.6.6s-.2.6-.6.6z" fill="#fff"/></svg>