<svg width="40" height="40" fill="none" xmlns="http://www.w3.org/2000/svg"><path d="M34.009 29.315c-.757 0-1.498.22-2.133.63l-4.612-4.674c-.396.521-.85.995-1.357 1.41l4.628 4.69a4.05 4.05 0 00.686 4.84 3.956 3.956 0 004.807.598 4.04 4.04 0 001.83-4.527 3.991 3.991 0 00-3.85-2.967zm0 6.087a2.042 2.042 0 01-1.887-1.273 2.075 2.075 0 01.443-2.246 2.028 2.028 0 013.142.316c.224.338.344.736.343 1.142a2.053 2.053 0 01-2.041 2.06zM15.09 13.704l-4.618-4.818c.872-1.854.278-4.094-1.387-5.222-1.662-1.127-3.874-.79-5.156.787-1.281 1.578-1.231 3.901.118 5.417 1.349 1.515 3.572 1.75 5.186.545l4.481 4.677c.403-.515.864-.98 1.376-1.386zM6.948 9.191c-1.109 0-2.008-.934-2.008-2.087s.9-2.087 2.008-2.087c1.11 0 2.008.934 2.008 2.087 0 1.151-.897 2.084-2.004 2.087h-.003zm6.807 16.08l-4.779 4.654c-1.814-.934-4.061-.41-5.24 1.223-1.178 1.631-.918 3.86.607 5.195a4.164 4.164 0 005.39.055c1.552-1.304 1.861-3.526.718-5.183l4.64-4.517a8.29 8.29 0 01-1.336-1.427zM7.076 35.425c-.841 0-1.6-.492-1.923-1.246a1.974 1.974 0 01.452-2.2 2.128 2.128 0 012.267-.437 2.02 2.02 0 011.284 1.865c-.001 1.114-.932 2.017-2.08 2.018zm19.662-20.971l4.577-4.472a4.15 4.15 0 005.38-.125 3.878 3.878 0 00.54-5.208c-1.197-1.62-3.445-2.121-5.246-1.167-1.8.953-2.59 3.062-1.84 4.918l-4.878 4.765c.538.37 1.03.803 1.467 1.289zm7.173-9.49c1.142 0 2.068.9 2.068 2.012 0 1.111-.926 2.012-2.068 2.012s-2.068-.9-2.068-2.012c0-1.11.926-2.011 2.068-2.012z" fill="#fff"/><path d="M26.713 25.205a8.15 8.15 0 00-.338-10.468 8.399 8.399 0 00-1.463-1.309c-3.593-2.517-8.544-1.847-11.322 1.53a8.411 8.411 0 00-.646.903.966.966 0 00.325 1.34.993.993 0 001.356-.323c1.515-2.453 4.515-3.586 7.3-2.758 2.785.827 4.655 3.408 4.551 6.282-.104 2.873-2.156 5.315-4.994 5.944-2.838.628-5.747-.714-7.082-3.27a.99.99 0 00-1.806.157.967.967 0 00.056.74 8.377 8.377 0 007.279 4.476 8.384 8.384 0 006.784-3.244z" fill="#fff"/><path d="M14.454 19.224a.955.955 0 00-.955-.954h-.006a.954.954 0 10.96.954z" fill="#fff"/></svg>