<svg width="40" height="40" fill="none" xmlns="http://www.w3.org/2000/svg"><g clip-path="url(#prefix__clip0_316_4387)" fill="#fff"><path d="M15.292 5.16a2.787 2.787 0 00-.47-3.897 2.787 2.787 0 00-3.897.47 2.787 2.787 0 00.471 3.897 2.787 2.787 0 003.897-.47zm-5.6 26.634a2.787 2.787 0 00-3.898.47 2.787 2.787 0 00.47 3.897 2.787 2.787 0 003.897-.47 2.756 2.756 0 00-.47-3.897zM38.637 20.73a2.788 2.788 0 00-3.896.47 2.787 2.787 0 00.47 3.897 2.787 2.787 0 003.897-.47 2.785 2.785 0 00-.47-3.898v.001zm-36.13 8.803a19.218 19.218 0 01-2.47-9.431c0-5.636 2.47-10.942 6.766-14.596l1.2 1.428a17.238 17.238 0 00-6.106 13.168c0 2.974.765 5.915 2.245 8.507l-1.636.922v.002zm16.63 9.689c-1.775 0-3.55-.244-5.236-.73l.503-1.793c1.532.435 3.132.662 4.733.662a17.163 17.163 0 0015.395-9.465l1.67.852a19.082 19.082 0 01-6.923 7.569 19.099 19.099 0 01-10.142 2.905zm17.047-21.71A17.184 17.184 0 0019.467 2.865l.035-1.862a19.067 19.067 0 0112.281 4.783c3.358 2.975 5.586 7.046 6.246 11.447l-1.845.279zm-18.038 12.89l-4.037-15.57-2.713 6.053-4.194.21-.086-1.878 3.045-.14 4.436-9.846 3.897 15.047 4.052-10.559 2.819 7.777.992-2.175h4.122v1.74h-2.922l-2.383 5.358-2.68-7.377-4.349 11.36z"/><path d="M6.246 20.158a.939.939 0 101.878 0 .939.939 0 00-1.878 0zm23.311.017a.94.94 0 101.88 0 .94.94 0 00-1.88 0z"/></g><defs><clipPath id="prefix__clip0_316_4387"><path fill="#fff" d="M0 0h40v40H0z"/></clipPath></defs></svg>