<svg xmlns="http://www.w3.org/2000/svg" width="34" height="34" viewBox="0 0 34 34" fill="none">
  <path d="M9.00967 25.3004C8.87287 25.3009 8.73756 25.272 8.61301 25.2154C8.41654 25.1384 8.24787 25.0039 8.12908 24.8295C8.01028 24.6551 7.94688 24.4489 7.94717 24.2379V20.7387H6.16217C5.27792 20.735 4.43117 20.3811 3.80723 19.7545C3.1833 19.1279 2.833 18.2796 2.83301 17.3954V8.30036C2.833 7.41611 3.1833 6.56786 3.80723 5.94127C4.43117 5.31467 5.27792 4.96078 6.16217 4.95703H22.6663C23.1054 4.95703 23.5401 5.04351 23.9458 5.21153C24.3514 5.37955 24.72 5.62581 25.0304 5.93627C25.3409 6.24673 25.5872 6.61529 25.7552 7.02093C25.9232 7.42656 26.0097 7.86131 26.0097 8.30036V17.3954C26.0097 18.2821 25.6574 19.1325 25.0304 19.7595C24.4034 20.3865 23.553 20.7387 22.6663 20.7387H13.9963L9.74634 24.9887C9.55076 25.1846 9.28645 25.2964 9.00967 25.3004ZM6.16217 7.08203C6.00284 7.08202 5.84509 7.11363 5.69806 7.17503C5.55104 7.23643 5.41766 7.3264 5.30565 7.43972C5.19365 7.55304 5.10525 7.68746 5.04557 7.8352C4.9859 7.98293 4.95613 8.14104 4.95801 8.30036V17.3954C4.95613 17.5547 4.9859 17.7128 5.04557 17.8605C5.10525 18.0083 5.19365 18.1427 5.30565 18.256C5.41766 18.3693 5.55104 18.4593 5.69806 18.5207C5.84509 18.5821 6.00284 18.6137 6.16217 18.6137H8.99551C9.2773 18.6137 9.54755 18.7256 9.74681 18.9249C9.94607 19.1242 10.058 19.3944 10.058 19.6762V21.6737L12.7497 18.9254C12.9487 18.7261 13.2188 18.6139 13.5005 18.6137H22.6663C22.8263 18.6137 22.9848 18.5822 23.1326 18.521C23.2804 18.4597 23.4147 18.37 23.5278 18.2569C23.641 18.1437 23.7307 18.0094 23.7919 17.8616C23.8532 17.7138 23.8847 17.5554 23.8847 17.3954V8.30036C23.8847 8.14037 23.8532 7.98194 23.7919 7.83413C23.7307 7.68631 23.641 7.55201 23.5278 7.43887C23.4147 7.32574 23.2804 7.236 23.1326 7.17477C22.9848 7.11354 22.8263 7.08203 22.6663 7.08203H6.16217Z" fill="white"/>
  <path d="M24.9898 29.0426C24.7081 29.0423 24.4381 28.9302 24.239 28.7309L19.989 24.4809H17.3682V22.3559H20.4423C20.5913 22.3483 20.7401 22.3721 20.8793 22.4258C21.0184 22.4795 21.1446 22.5618 21.2498 22.6676L23.984 25.4159V23.4184C23.984 23.1366 24.0959 22.8663 24.2952 22.6671C24.4945 22.4678 24.7647 22.3559 25.0465 22.3559H27.8798C28.0392 22.3559 28.1969 22.3243 28.3439 22.2629C28.491 22.2015 28.6243 22.1115 28.7364 21.9982C28.8484 21.8849 28.9368 21.7505 28.9964 21.6027C29.0561 21.455 29.0859 21.2969 29.084 21.1376V12.0426C29.0859 11.8832 29.0561 11.7251 28.9964 11.5774C28.9368 11.4297 28.8484 11.2952 28.7364 11.1819C28.6243 11.0686 28.491 10.9786 28.3439 10.9172C28.1969 10.8558 28.0392 10.8242 27.8798 10.8242V8.69922C28.7567 8.71408 29.5926 9.07288 30.2074 9.69827C30.8222 10.3237 31.1666 11.1656 31.1665 12.0426V21.1376C31.1665 22.0218 30.8162 22.8701 30.1923 23.4967C29.5683 24.1232 28.7216 24.4771 27.8373 24.4809H26.0523V27.9801C26.0526 28.1911 25.9892 28.3973 25.8704 28.5717C25.7516 28.7461 25.583 28.8806 25.3865 28.9576C25.2619 29.0141 25.1266 29.0431 24.9898 29.0426Z" fill="white"/>
</svg>