<svg xmlns="http://www.w3.org/2000/svg" width="34" height="34" viewBox="0 0 34 34" fill="none">
  <path d="M30.8191 14.9652C30.8191 14.3809 30.3443 13.9061 29.76 13.9061C29.1756 13.9061 28.7008 14.3809 28.7008 14.9652V17.6414C28.7008 17.6779 28.7041 17.7178 28.7074 17.7543V28.7113H5.37559V5.37949H28.7074V5.58203C28.7041 5.61855 28.7008 5.65508 28.7008 5.69492V8.4541C28.7008 9.03848 29.1756 9.51328 29.76 9.51328C30.3443 9.51328 30.8191 9.03848 30.8191 8.4541V6.65117H30.8258V5.37949C30.8258 4.21074 29.8729 3.25781 28.7041 3.25781H5.37559C4.20684 3.26113 3.25391 4.21074 3.25391 5.37949V28.7113C3.25391 29.8801 4.20684 30.833 5.37559 30.833H28.7074C29.8762 30.833 30.8291 29.8801 30.8291 28.7113V16.1074H30.8225V14.9652H30.8191Z" fill="white"/>
  <path d="M17.0402 24.7434C17.6246 24.7434 18.0994 24.2686 18.0994 23.6842V17.5814H22.5951C23.1795 17.5814 23.6543 17.1066 23.6543 16.5223C23.6543 15.9379 23.1795 15.4631 22.5951 15.4631H18.1027V11.3326C18.1027 10.7482 17.6279 10.2734 17.0436 10.2734C16.4592 10.2734 15.9844 10.7482 15.9844 11.3326V15.4598H11.482C10.8977 15.4598 10.4229 15.9346 10.4229 16.5189C10.4229 17.1033 10.8977 17.5781 11.482 17.5781H15.9777V23.6809C15.9811 24.2686 16.4559 24.7434 17.0402 24.7434Z" fill="white"/>
  <path d="M28.51 11.9827C28.5488 12.147 28.6195 12.3019 28.7182 12.4388C28.8169 12.5757 28.9415 12.6919 29.0851 12.7806C29.2286 12.8693 29.3882 12.9289 29.5548 12.9559C29.7214 12.9829 29.8917 12.9769 30.0559 12.9381C30.2201 12.8993 30.3751 12.8286 30.512 12.7299C30.6489 12.6312 30.765 12.5065 30.8537 12.363C30.9424 12.2194 31.002 12.0598 31.029 11.8932C31.056 11.7266 31.0499 11.5563 31.0111 11.3921C30.9724 11.2279 30.9016 11.0729 30.803 10.936C30.7043 10.7991 30.5796 10.683 30.4361 10.5942C30.2925 10.5055 30.1329 10.446 29.9663 10.4189C29.7998 10.3919 29.6295 10.398 29.4652 10.4367C29.301 10.4755 29.146 10.5463 29.0091 10.645C28.8722 10.7436 28.7561 10.8683 28.6674 11.0119C28.5787 11.1554 28.5192 11.3151 28.4922 11.4816C28.4651 11.6482 28.4712 11.8185 28.51 11.9827Z" fill="white"/>
</svg>