<svg xmlns="http://www.w3.org/2000/svg" width="34" height="34" viewBox="0 0 34 34" fill="none">
  <path d="M24.635 30.5984H22.0804C21.4028 30.5984 20.7531 30.3197 20.274 29.8236C19.7949 29.3274 19.5257 28.6546 19.5257 27.9529V18.6936H14.4165V27.9529C14.4165 28.6546 14.1473 29.3274 13.6683 29.8236C13.1892 30.3197 12.5394 30.5984 11.8619 30.5984H9.30723C8.29094 30.5984 7.31627 30.1804 6.59764 29.4362C5.87901 28.692 5.47529 27.6826 5.47529 26.6301V17.3708C5.47529 17.02 5.60986 16.6835 5.8494 16.4355C6.08895 16.1874 6.41384 16.048 6.7526 16.048C7.09137 16.048 7.41626 16.1874 7.6558 16.4355C7.89534 16.6835 8.02992 17.02 8.02992 17.3708V26.6301C8.02992 26.981 8.16449 27.3174 8.40403 27.5655C8.64358 27.8135 8.96846 27.9529 9.30723 27.9529H11.8619V18.6936C11.8619 17.9919 12.131 17.319 12.6101 16.8229C13.0892 16.3268 13.739 16.048 14.4165 16.048H19.5257C20.2033 16.048 20.8531 16.3268 21.3321 16.8229C21.8112 17.319 22.0804 17.9919 22.0804 18.6936V27.9529H24.635C24.9738 27.9529 25.2987 27.8135 25.5382 27.5655C25.7777 27.3174 25.9123 26.981 25.9123 26.6301V17.3708C25.9123 17.02 26.0469 16.6835 26.2864 16.4355C26.526 16.1874 26.8509 16.048 27.1896 16.048C27.5284 16.048 27.8533 16.1874 28.0928 16.4355C28.3324 16.6835 28.4669 17.02 28.4669 17.3708V26.6301C28.4669 27.6826 28.0632 28.692 27.3446 29.4362C26.626 30.1804 25.6513 30.5984 24.635 30.5984ZM32.0945 14.1168C32.2782 13.8236 32.3423 13.467 32.2729 13.125C32.2035 12.7829 32.0062 12.4833 31.7241 12.2914L19.7557 4.24899C18.9282 3.69383 17.9634 3.39844 16.9775 3.39844C15.9916 3.39844 15.0268 3.69383 14.1993 4.24899L2.23091 12.2914C1.96553 12.4894 1.7836 12.7852 1.72261 13.118C1.66161 13.4507 1.7262 13.795 1.90306 14.08C2.07993 14.3649 2.35559 14.5687 2.67323 14.6493C2.99088 14.73 3.32632 14.6815 3.61041 14.5136L15.5788 6.47123C15.9932 6.19228 16.4769 6.04381 16.9711 6.04381C17.4654 6.04381 17.949 6.19228 18.3634 6.47123L30.3318 14.5136C30.615 14.7038 30.9593 14.7702 31.2896 14.6984C31.6199 14.6265 31.9092 14.4222 32.0945 14.13V14.1168Z" fill="white"/>
</svg>