<svg xmlns="http://www.w3.org/2000/svg" width="34" height="34" viewBox="0 0 34 34" fill="none">
  <path d="M23.8004 10.3881C23.8004 6.84115 20.9251 3.96589 17.3782 3.96589C13.8312 3.96589 10.9559 6.84115 10.9559 10.3881C10.9559 13.9351 13.8312 16.8103 17.3782 16.8103C20.9251 16.8103 23.8004 13.9351 23.8004 10.3881ZM26.0671 10.3881C26.0671 15.187 22.1771 19.077 17.3782 19.077C17.1439 19.077 16.912 19.0676 16.6823 19.0494C16.6332 19.0604 16.5835 19.0681 16.5335 19.0725C10.6855 19.5885 5.66706 24.67 5.66706 31.1659C5.66706 31.4665 5.54765 31.7547 5.33511 31.9673C5.12257 32.1798 4.8343 32.2992 4.53372 32.2992C4.23315 32.2992 3.94488 32.1798 3.73234 31.9673C3.5198 31.7547 3.40039 31.4665 3.40039 31.1659C3.40039 24.8782 7.36819 19.6928 12.6389 17.6717C10.2608 16.122 8.68928 13.4387 8.68928 10.3881C8.68928 5.5892 12.5793 1.69922 17.3782 1.69922C22.1771 1.69922 26.0671 5.5892 26.0671 10.3881ZM24.4324 19.4578C24.1829 19.2939 23.8788 19.235 23.5861 19.2941C23.2935 19.3531 23.0359 19.5252 22.8694 19.773C22.703 20.0208 22.641 20.3243 22.6969 20.6175C22.7529 20.9108 22.9223 21.1701 23.1684 21.3391C26.2718 23.4248 28.3337 27.0406 28.3337 31.1659C28.3337 31.4665 28.4531 31.7547 28.6657 31.9673C28.8782 32.1798 29.1665 32.2992 29.4671 32.2992C29.7676 32.2992 30.0559 32.1798 30.2684 31.9673C30.481 31.7547 30.6004 31.4665 30.6004 31.1659C30.6004 26.2729 28.1524 21.9568 24.4324 19.4578Z" fill="white"/>
</svg>